<svg width="159" height="159" viewBox="0 0 159 159" fill="none" xmlns="http://www.w3.org/2000/svg">
<path fill-rule="evenodd" clip-rule="evenodd" d="M158.131 79.1583C158.131 122.446 123.04 157.536 79.7526 157.536C36.4651 157.536 1.37695 122.446 1.37695 79.1583C1.37695 35.8708 36.4651 0.782616 79.7526 0.782616C123.04 0.782616 158.131 35.8708 158.131 79.1583Z" fill="#007AFF" fill-opacity="0.25"/>
<path d="M158.131 79.1583C158.131 122.446 123.04 157.536 79.7526 157.536C36.4651 157.536 1.37695 122.446 1.37695 79.1583C1.37695 35.8708 36.4651 0.782616 79.7526 0.782616C123.04 0.782616 158.131 35.8708 158.131 79.1583" stroke="#007AFF" stroke-opacity="0.2"/>
<path fill-rule="evenodd" clip-rule="evenodd" d="M99.018 71.7471C99.018 73.9443 100.799 75.7257 102.997 75.7257C105.194 75.7257 106.975 73.9443 106.975 71.7471C106.975 69.55 105.194 67.7685 102.997 67.7685C100.799 67.7685 99.018 69.55 99.018 71.7471ZM62.9895 82.943C62.9895 92.2021 70.4968 99.7071 79.7536 99.7071C89.0104 99.7071 96.5154 92.2021 96.5154 82.943C96.5154 73.6862 89.0104 66.1812 79.7536 66.1812C70.4968 66.1812 62.9895 73.6862 62.9895 82.943ZM99.1988 56.648H109.588C114.081 56.648 117.722 60.2909 117.722 64.7811V101.183C117.722 105.675 114.081 109.316 109.588 109.316H49.9183C45.4258 109.316 41.7852 105.675 41.7852 101.183V64.7811C41.7852 60.2909 45.4258 56.648 49.9183 56.648H60.6025C64.1426 56.2277 65.3303 54.8026 67.041 52.6625C69.1011 50.0862 70.6473 49.7779 72.5521 49.7779H75.069H79.9018H84.7324H87.2493C89.1541 49.7779 90.7003 50.0862 92.7604 52.6625C94.4734 54.8026 95.6587 56.2277 99.1988 56.648ZM68.7284 82.9439C68.7284 76.8549 73.664 71.9193 79.7529 71.9193C85.8419 71.9193 90.7775 76.8549 90.7775 82.9439C90.7775 89.0329 85.8419 93.9685 79.7529 93.9685C73.664 93.9685 68.7284 89.0329 68.7284 82.9439Z" fill="#007AFF"/>
</svg>
