<svg width="310" height="240" viewBox="0 0 310 240" fill="none" xmlns="http://www.w3.org/2000/svg">
<rect x="59.3843" y="85.3503" width="204.664" height="124.732" fill="black"/>
<rect x="60.3843" y="86.3503" width="202.664" height="122.732" stroke="white" stroke-opacity="0.5" stroke-width="2"/>
<rect x="53.3333" y="72.5" width="216.667" height="133.333" fill="black"/>
<rect x="54.3333" y="73.5" width="214.667" height="131.333" stroke="white" stroke-opacity="0.75" stroke-width="2"/>
<rect x="47" y="57.5936" width="229.881" height="139.627" fill="black" stroke="white" stroke-width="2"/>
<path d="M283.55 24.2423C283.55 30.2572 278.759 35.1044 272.885 35.1044C267.011 35.1044 262.22 30.2572 262.22 24.2423C262.22 18.2274 267.011 13.3802 272.885 13.3802C278.759 13.3802 283.55 18.2274 283.55 24.2423Z" stroke="white" stroke-width="2"/>
<path d="M291.001 6.34097C289.616 9.10347 290.702 12.4677 293.397 13.8642C296.092 15.2608 299.407 14.1763 300.791 11.4138C302.175 8.6513 301.09 5.28709 298.394 3.89054C295.699 2.49398 292.385 3.57848 291.001 6.34097Z" stroke="white" stroke-width="2"/>
<path d="M35.9911 219.228C37.293 222.033 40.574 223.218 43.3086 221.905C46.0432 220.592 47.2287 217.263 45.9268 214.459C44.6249 211.654 41.3439 210.469 38.6093 211.782C35.8747 213.095 34.6892 216.424 35.9911 219.228Z" stroke="white" stroke-width="2"/>
<path d="M286.51 52.0364C283.159 49.8582 281.093 47.0564 281.896 45.7783C282.7 44.5003 286.068 45.23 289.419 47.4082C292.77 49.5863 294.836 52.3881 294.033 53.6662C293.23 54.9442 289.862 54.2145 286.51 52.0364Z" fill="white"/>
<path d="M286.318 38.7435C285.514 40.0215 287.58 42.8233 290.931 45.0015C294.283 47.1797 297.651 47.9094 298.454 46.6313M286.318 38.7435C287.121 37.4654 290.489 38.1951 293.84 40.3733C297.192 42.5515 299.257 45.3533 298.454 46.6313M286.318 38.7435L281.896 45.7783M298.454 46.6313L294.033 53.6662M281.896 45.7783C281.093 47.0564 283.159 49.8582 286.51 52.0364C289.862 54.2145 293.23 54.9442 294.033 53.6662M281.896 45.7783C282.7 44.5003 286.068 45.23 289.419 47.4082C292.77 49.5863 294.836 52.3881 294.033 53.6662" stroke="white" stroke-width="2"/>
<path d="M29.7102 37.5363C30.7979 38.0521 31.6113 39.6634 31.6051 42.4794C31.5991 45.199 30.8076 48.6626 29.1881 52.1943C27.5687 55.726 25.4683 58.5689 23.4235 60.3218C21.3062 62.1367 19.5695 62.5388 18.4818 62.023C17.3941 61.5072 16.5807 59.8959 16.5869 57.0799C16.5929 54.3602 17.3844 50.8967 19.0039 47.365C20.6234 43.8333 22.7237 40.9904 24.7685 39.2375C26.8858 37.4226 28.6225 37.0205 29.7102 37.5363Z" stroke="white" stroke-width="2"/>
<path d="M18.2649 62.4965C14.8574 60.8807 12.1639 58.0784 10.8481 54.551C9.53219 51.0235 9.66179 47.1471 11.2083 43.7744C12.7549 40.4016 15.5917 37.8089 19.0947 36.5666C22.5978 35.3243 26.52 35.447 29.9274 37.0628" stroke="white" stroke-width="2"/>
<path d="M29.9275 37.0628C26.52 35.447 22.5978 35.3243 19.0948 36.5666C15.5917 37.8089 12.7549 40.4016 11.2084 43.7743C10.0102 46.3874 11.9706 53.4674 16.1732 55.4603" stroke="white" stroke-width="2"/>
<path d="M281.687 231.942C281.797 232.443 281.495 233.301 280.195 234.314C278.963 235.275 277.09 236.149 274.865 236.656C272.64 237.162 270.579 237.182 269.062 236.847C267.461 236.493 266.828 235.848 266.718 235.347C266.608 234.846 266.91 233.988 268.21 232.974C269.442 232.014 271.315 231.139 273.54 230.633C275.765 230.127 277.826 230.107 279.343 230.442C280.944 230.796 281.577 231.441 281.687 231.942Z" stroke="white" stroke-width="2"/>
<path d="M266.023 235.505C265.525 233.238 265.852 230.882 267.034 228.93C268.215 226.979 270.098 225.605 272.267 225.112C274.436 224.618 276.715 225.045 278.601 226.299C280.487 227.553 281.883 229.517 282.382 231.784" stroke="white" stroke-width="2"/>
<path d="M282.382 231.784C281.883 229.517 280.487 227.553 278.601 226.299C276.715 225.045 274.436 224.618 272.267 225.112C270.586 225.494 267.963 229.078 268.578 231.873" stroke="white" stroke-width="2"/>
<path d="M284.7 215.685C284.599 215.504 284.541 215.196 284.698 214.675C284.857 214.151 285.209 213.505 285.78 212.78C286.917 211.334 288.792 209.74 291.146 208.383C293.501 207.027 295.809 206.212 297.613 205.963C298.518 205.838 299.244 205.863 299.768 205.994C300.288 206.125 300.518 206.334 300.619 206.515C300.72 206.696 300.778 207.004 300.62 207.525C300.462 208.049 300.11 208.695 299.539 209.42C298.402 210.866 296.527 212.46 294.173 213.817C291.818 215.173 289.51 215.988 287.705 216.237C286.8 216.362 286.074 216.337 285.551 216.206C285.031 216.075 284.8 215.866 284.7 215.685Z" fill="white" stroke="white" stroke-width="2"/>
<path d="M284.336 216.369V216.369C291.809 220.788 301.313 215.34 301.383 206.549V206.549" stroke="white" stroke-width="2"/>
<path d="M12.9127 207.233L16.6587 217.19L26.7397 220.117L22.9937 210.16L12.9127 207.233Z" fill="white" stroke="white" stroke-width="2"/>
<path d="M5.55016 215.403L9.29612 225.361L19.3771 228.288L15.6312 218.33L5.55016 215.403Z" stroke="white" stroke-width="2"/>
<line y1="-1" x2="10.9983" y2="-1" transform="matrix(0.66941 -0.742894 -0.731602 -0.681733 20.5837 229.412)" stroke="white" stroke-width="2"/>
<line y1="-1" x2="10.9983" y2="-1" transform="matrix(0.66941 -0.742894 -0.731602 -0.681733 3.91626 213.881)" stroke="white" stroke-width="2"/>
<path d="M18.2617 24.7265L24.5158 21.6855L30.5412 25.1714L24.2871 28.2123L18.2617 24.7265Z" fill="white" stroke="white" stroke-width="2"/>
<path d="M18.5513 16.4633L24.8053 13.4223L30.8308 16.9082L24.5767 19.9492L18.5513 16.4633Z" stroke="white" stroke-width="2"/>
<line y1="-1" x2="8.26821" y2="-1" transform="matrix(-0.0350117 0.999387 -0.999345 -0.036205 32.5466 16.9704)" stroke="white" stroke-width="2"/>
<line y1="-1" x2="8.26821" y2="-1" transform="matrix(-0.0350117 0.999387 -0.999345 -0.036205 16.4219 16.3863)" stroke="white" stroke-width="2"/>
<path d="M44.3599 32.8879L47.982 28.1922L53.6502 26.6456L50.0281 31.3413L44.3599 32.8879Z" fill="white" stroke="white" stroke-width="2"/>
<path d="M56.0495 25.104L40.7604 17.0779L42.0726 34.4953" stroke="white" stroke-width="2"/>
<line y1="-1" x2="12.6692" y2="-1" transform="matrix(0.544838 0.838541 -0.830032 0.557715 40.5188 17.2399)" stroke="white" stroke-width="2"/>
<path d="M69.4941 166.93C69.4941 167.263 69.4258 167.575 69.2891 167.866C69.1569 168.158 68.9769 168.413 68.749 168.632C68.5257 168.851 68.2637 169.024 67.9629 169.152C67.6667 169.275 67.3522 169.336 67.0195 169.336H66.3154C65.9827 169.336 65.666 169.275 65.3652 169.152C65.069 169.024 64.807 168.851 64.5791 168.632C64.3558 168.413 64.1758 168.158 64.0391 167.866C63.9069 167.575 63.8408 167.263 63.8408 166.93V166.54L64.7227 166.397V166.93C64.7227 167.149 64.766 167.354 64.8525 167.545C64.9437 167.732 65.0645 167.898 65.2148 168.044C65.3652 168.185 65.5384 168.297 65.7344 168.379C65.9349 168.461 66.1445 168.502 66.3633 168.502H66.9785C67.1973 168.502 67.4046 168.461 67.6006 168.379C67.7965 168.297 67.9697 168.185 68.1201 168.044C68.2705 167.898 68.389 167.732 68.4756 167.545C68.5667 167.354 68.6123 167.149 68.6123 166.93V166.636C68.6123 166.299 68.5462 166.018 68.4141 165.795C68.2819 165.572 68.1064 165.383 67.8877 165.228C67.6689 165.068 67.4206 164.934 67.1426 164.824C66.8691 164.715 66.5866 164.606 66.2949 164.496C66.0033 164.387 65.7184 164.266 65.4404 164.134C65.167 164.002 64.9209 163.838 64.7021 163.642C64.4834 163.441 64.3079 163.198 64.1758 162.91C64.0436 162.623 63.9775 162.27 63.9775 161.851V161.666C63.9775 161.334 64.0391 161.021 64.1621 160.73C64.2897 160.438 64.4629 160.183 64.6816 159.964C64.9004 159.745 65.1556 159.574 65.4473 159.451C65.7435 159.324 66.0579 159.26 66.3906 159.26H67.0195C67.3522 159.26 67.6644 159.324 67.9561 159.451C68.2477 159.574 68.5029 159.745 68.7217 159.964C68.9404 160.183 69.1113 160.438 69.2344 160.73C69.362 161.021 69.4258 161.334 69.4258 161.666V161.919L68.5439 162.063V161.666C68.5439 161.448 68.5029 161.245 68.4209 161.058C68.3389 160.866 68.2272 160.7 68.0859 160.559C67.9447 160.418 67.7783 160.306 67.5869 160.224C67.4001 160.142 67.1973 160.101 66.9785 160.101H66.4316C66.2129 160.101 66.0078 160.142 65.8164 160.224C65.6296 160.306 65.4632 160.418 65.3174 160.559C65.1761 160.7 65.0645 160.866 64.9824 161.058C64.9004 161.245 64.8594 161.448 64.8594 161.666V161.851C64.8594 162.165 64.9255 162.43 65.0576 162.644C65.1898 162.858 65.3652 163.043 65.584 163.198C65.8027 163.348 66.0488 163.48 66.3223 163.594C66.6003 163.703 66.8851 163.817 67.1768 163.936C67.4684 164.05 67.751 164.177 68.0244 164.319C68.3024 164.455 68.5508 164.626 68.7695 164.831C68.9883 165.032 69.1637 165.278 69.2959 165.57C69.4281 165.861 69.4941 166.217 69.4941 166.636V166.93ZM75.79 167.279C75.79 167.561 75.7354 167.828 75.626 168.078C75.5212 168.329 75.3753 168.548 75.1885 168.735C75.0016 168.921 74.7829 169.07 74.5322 169.179C74.2816 169.284 74.015 169.336 73.7324 169.336H73.1719C72.8893 169.336 72.6227 169.284 72.3721 169.179C72.1214 169.07 71.9027 168.921 71.7158 168.735C71.529 168.548 71.3809 168.329 71.2715 168.078C71.1667 167.828 71.1143 167.561 71.1143 167.279V164.12C71.1143 163.838 71.1667 163.571 71.2715 163.321C71.3809 163.07 71.529 162.851 71.7158 162.664C71.9027 162.477 72.1214 162.332 72.3721 162.227C72.6227 162.117 72.8893 162.063 73.1719 162.063H73.7324C74.015 162.063 74.2816 162.117 74.5322 162.227C74.7829 162.332 75.0016 162.477 75.1885 162.664C75.3753 162.851 75.5212 163.07 75.626 163.321C75.7354 163.571 75.79 163.838 75.79 164.12V165.768H71.9551V167.326C71.9551 167.495 71.987 167.655 72.0508 167.805C72.1146 167.951 72.2012 168.078 72.3105 168.188C72.4199 168.297 72.5475 168.384 72.6934 168.448C72.8438 168.511 73.0033 168.543 73.1719 168.543H73.7324C73.901 168.543 74.0583 168.511 74.2041 168.448C74.3545 168.384 74.4844 168.297 74.5938 168.188C74.7031 168.078 74.7897 167.951 74.8535 167.805C74.9173 167.655 74.9492 167.495 74.9492 167.326V166.862L75.79 166.998V167.279ZM74.9492 164.073C74.9492 163.904 74.9173 163.747 74.8535 163.601C74.7897 163.45 74.7031 163.321 74.5938 163.211C74.4844 163.102 74.3545 163.015 74.2041 162.951C74.0583 162.888 73.901 162.856 73.7324 162.856H73.1719C73.0033 162.856 72.8438 162.888 72.6934 162.951C72.5475 163.015 72.4199 163.102 72.3105 163.211C72.2012 163.321 72.1146 163.45 72.0508 163.601C71.987 163.747 71.9551 163.904 71.9551 164.073V165.112H74.9492V164.073ZM79.5293 162.999C79.3607 162.999 79.2012 163.031 79.0508 163.095C78.9049 163.159 78.7773 163.245 78.668 163.355C78.5586 163.464 78.472 163.594 78.4082 163.744C78.3444 163.89 78.3125 164.047 78.3125 164.216V169.199H77.4717V162.199H77.752L78.21 162.91C78.4014 162.651 78.6406 162.446 78.9277 162.295C79.2194 162.14 79.5361 162.063 79.8779 162.063H80.3701V162.999H79.5293ZM83.6855 169.199H83.2686L80.7871 162.199H81.6279L83.4531 167.504L83.4805 167.866L83.5078 167.504L85.3262 162.199H86.167L83.6855 169.199ZM87.3633 160.518V159.397H88.3408V160.518H87.3633ZM87.4316 169.199V162.199H88.2725V169.199H87.4316ZM94.917 167.279C94.917 167.561 94.8623 167.828 94.7529 168.078C94.6481 168.329 94.5023 168.548 94.3154 168.735C94.1286 168.921 93.9098 169.07 93.6592 169.179C93.4085 169.284 93.1419 169.336 92.8594 169.336H92.2988C92.0163 169.336 91.7497 169.284 91.499 169.179C91.2484 169.07 91.0296 168.921 90.8428 168.735C90.6559 168.548 90.5078 168.329 90.3984 168.078C90.2936 167.828 90.2412 167.561 90.2412 167.279V164.12C90.2412 163.838 90.2936 163.571 90.3984 163.321C90.5078 163.07 90.6559 162.851 90.8428 162.664C91.0296 162.477 91.2484 162.332 91.499 162.227C91.7497 162.117 92.0163 162.063 92.2988 162.063H92.8594C93.1419 162.063 93.4085 162.117 93.6592 162.227C93.9098 162.332 94.1286 162.477 94.3154 162.664C94.5023 162.851 94.6481 163.07 94.7529 163.321C94.8623 163.571 94.917 163.838 94.917 164.12V164.401L94.0762 164.537V164.073C94.0762 163.904 94.0443 163.747 93.9805 163.601C93.9167 163.45 93.8301 163.321 93.7207 163.211C93.6113 163.102 93.4814 163.015 93.3311 162.951C93.1852 162.888 93.028 162.856 92.8594 162.856H92.2988C92.1302 162.856 91.9707 162.888 91.8203 162.951C91.6745 163.015 91.5469 163.102 91.4375 163.211C91.3281 163.321 91.2415 163.45 91.1777 163.601C91.1139 163.747 91.082 163.904 91.082 164.073V167.326C91.082 167.495 91.1139 167.655 91.1777 167.805C91.2415 167.951 91.3281 168.078 91.4375 168.188C91.5469 168.297 91.6745 168.384 91.8203 168.448C91.9707 168.511 92.1302 168.543 92.2988 168.543H92.8594C93.028 168.543 93.1852 168.511 93.3311 168.448C93.4814 168.384 93.6113 168.297 93.7207 168.188C93.8301 168.078 93.9167 167.951 93.9805 167.805C94.0443 167.655 94.0762 167.495 94.0762 167.326V166.862L94.917 166.998V167.279ZM101.274 167.279C101.274 167.561 101.22 167.828 101.11 168.078C101.006 168.329 100.86 168.548 100.673 168.735C100.486 168.921 100.267 169.07 100.017 169.179C99.766 169.284 99.4993 169.336 99.2168 169.336H98.6562C98.3737 169.336 98.1071 169.284 97.8564 169.179C97.6058 169.07 97.387 168.921 97.2002 168.735C97.0133 168.548 96.8652 168.329 96.7559 168.078C96.651 167.828 96.5986 167.561 96.5986 167.279V164.12C96.5986 163.838 96.651 163.571 96.7559 163.321C96.8652 163.07 97.0133 162.851 97.2002 162.664C97.387 162.477 97.6058 162.332 97.8564 162.227C98.1071 162.117 98.3737 162.063 98.6562 162.063H99.2168C99.4993 162.063 99.766 162.117 100.017 162.227C100.267 162.332 100.486 162.477 100.673 162.664C100.86 162.851 101.006 163.07 101.11 163.321C101.22 163.571 101.274 163.838 101.274 164.12V165.768H97.4395V167.326C97.4395 167.495 97.4714 167.655 97.5352 167.805C97.599 167.951 97.6855 168.078 97.7949 168.188C97.9043 168.297 98.0319 168.384 98.1777 168.448C98.3281 168.511 98.4876 168.543 98.6562 168.543H99.2168C99.3854 168.543 99.5426 168.511 99.6885 168.448C99.8389 168.384 99.9688 168.297 100.078 168.188C100.188 168.078 100.274 167.951 100.338 167.805C100.402 167.655 100.434 167.495 100.434 167.326V166.862L101.274 166.998V167.279ZM100.434 164.073C100.434 163.904 100.402 163.747 100.338 163.601C100.274 163.45 100.188 163.321 100.078 163.211C99.9688 163.102 99.8389 163.015 99.6885 162.951C99.5426 162.888 99.3854 162.856 99.2168 162.856H98.6562C98.4876 162.856 98.3281 162.888 98.1777 162.951C98.0319 163.015 97.9043 163.102 97.7949 163.211C97.6855 163.321 97.599 163.45 97.5352 163.601C97.4714 163.747 97.4395 163.904 97.4395 164.073V165.112H100.434V164.073ZM106.319 169.199V159.397H107.201V168.359H110.954V169.199H106.319ZM116.471 169.199L116.006 168.502C115.814 168.753 115.575 168.956 115.288 169.111C115.001 169.261 114.687 169.336 114.345 169.336H114.133C113.85 169.336 113.584 169.284 113.333 169.179C113.082 169.07 112.864 168.921 112.677 168.735C112.49 168.548 112.342 168.329 112.232 168.078C112.128 167.828 112.075 167.561 112.075 167.279V167.21C112.075 166.928 112.128 166.661 112.232 166.41C112.342 166.16 112.49 165.941 112.677 165.754C112.864 165.567 113.082 165.421 113.333 165.317C113.584 165.207 113.85 165.153 114.133 165.153H115.91V164.073C115.91 163.904 115.878 163.747 115.814 163.601C115.751 163.45 115.664 163.321 115.555 163.211C115.445 163.102 115.315 163.015 115.165 162.951C115.019 162.888 114.862 162.856 114.693 162.856H114.201C114.033 162.856 113.873 162.888 113.723 162.951C113.577 163.015 113.449 163.102 113.34 163.211C113.23 163.321 113.144 163.45 113.08 163.601C113.016 163.747 112.984 163.904 112.984 164.073V164.325L112.144 164.189V164.12C112.144 163.838 112.196 163.571 112.301 163.321C112.41 163.07 112.558 162.851 112.745 162.664C112.932 162.477 113.151 162.332 113.401 162.227C113.652 162.117 113.919 162.063 114.201 162.063H114.693C114.976 162.063 115.243 162.117 115.493 162.227C115.744 162.332 115.963 162.477 116.149 162.664C116.336 162.851 116.482 163.07 116.587 163.321C116.696 163.571 116.751 163.838 116.751 164.12V169.199H116.471ZM115.91 165.809H114.133C113.964 165.809 113.805 165.841 113.654 165.905C113.508 165.968 113.381 166.057 113.271 166.171C113.162 166.281 113.076 166.41 113.012 166.561C112.948 166.707 112.916 166.864 112.916 167.032V167.326C112.916 167.495 112.948 167.655 113.012 167.805C113.076 167.951 113.162 168.078 113.271 168.188C113.381 168.297 113.508 168.384 113.654 168.448C113.805 168.511 113.964 168.543 114.133 168.543H114.693C114.862 168.543 115.019 168.511 115.165 168.448C115.315 168.384 115.445 168.297 115.555 168.188C115.664 168.078 115.751 167.951 115.814 167.805C115.878 167.655 115.91 167.495 115.91 167.326V165.809ZM122.828 169.199L122.363 168.489C122.172 168.748 121.933 168.956 121.646 169.111C121.358 169.261 121.044 169.336 120.702 169.336H120.49C120.208 169.336 119.941 169.284 119.69 169.179C119.44 169.07 119.221 168.921 119.034 168.735C118.847 168.548 118.699 168.329 118.59 168.078C118.485 167.828 118.433 167.561 118.433 167.279V162.199H119.273V167.326C119.273 167.495 119.305 167.655 119.369 167.805C119.433 167.951 119.52 168.078 119.629 168.188C119.738 168.297 119.866 168.384 120.012 168.448C120.162 168.511 120.322 168.543 120.49 168.543H121.051C121.219 168.543 121.377 168.511 121.522 168.448C121.673 168.384 121.803 168.297 121.912 168.188C122.021 168.078 122.108 167.951 122.172 167.805C122.236 167.655 122.268 167.495 122.268 167.326V162.199H123.108V169.199H122.828ZM128.625 169.199V164.073C128.625 163.904 128.593 163.747 128.529 163.601C128.465 163.45 128.379 163.321 128.27 163.211C128.16 163.102 128.03 163.015 127.88 162.951C127.734 162.888 127.577 162.856 127.408 162.856H126.848C126.679 162.856 126.52 162.888 126.369 162.951C126.223 163.015 126.096 163.102 125.986 163.211C125.877 163.321 125.79 163.45 125.727 163.601C125.663 163.747 125.631 163.904 125.631 164.073V169.199H124.79V162.199H125.07L125.528 162.91C125.72 162.651 125.959 162.446 126.246 162.295C126.538 162.14 126.854 162.063 127.196 162.063H127.408C127.691 162.063 127.957 162.117 128.208 162.227C128.459 162.332 128.677 162.477 128.864 162.664C129.051 162.851 129.197 163.07 129.302 163.321C129.411 163.571 129.466 163.838 129.466 164.12V169.199H128.625ZM135.823 167.279C135.823 167.561 135.769 167.828 135.659 168.078C135.554 168.329 135.409 168.548 135.222 168.735C135.035 168.921 134.816 169.07 134.565 169.179C134.315 169.284 134.048 169.336 133.766 169.336H133.205C132.923 169.336 132.656 169.284 132.405 169.179C132.155 169.07 131.936 168.921 131.749 168.735C131.562 168.548 131.414 168.329 131.305 168.078C131.2 167.828 131.147 167.561 131.147 167.279V164.12C131.147 163.838 131.2 163.571 131.305 163.321C131.414 163.07 131.562 162.851 131.749 162.664C131.936 162.477 132.155 162.332 132.405 162.227C132.656 162.117 132.923 162.063 133.205 162.063H133.766C134.048 162.063 134.315 162.117 134.565 162.227C134.816 162.332 135.035 162.477 135.222 162.664C135.409 162.851 135.554 163.07 135.659 163.321C135.769 163.571 135.823 163.838 135.823 164.12V164.401L134.982 164.537V164.073C134.982 163.904 134.951 163.747 134.887 163.601C134.823 163.45 134.736 163.321 134.627 163.211C134.518 163.102 134.388 163.015 134.237 162.951C134.091 162.888 133.934 162.856 133.766 162.856H133.205C133.036 162.856 132.877 162.888 132.727 162.951C132.581 163.015 132.453 163.102 132.344 163.211C132.234 163.321 132.148 163.45 132.084 163.601C132.02 163.747 131.988 163.904 131.988 164.073V167.326C131.988 167.495 132.02 167.655 132.084 167.805C132.148 167.951 132.234 168.078 132.344 168.188C132.453 168.297 132.581 168.384 132.727 168.448C132.877 168.511 133.036 168.543 133.205 168.543H133.766C133.934 168.543 134.091 168.511 134.237 168.448C134.388 168.384 134.518 168.297 134.627 168.188C134.736 168.078 134.823 167.951 134.887 167.805C134.951 167.655 134.982 167.495 134.982 167.326V166.862L135.823 166.998V167.279ZM141.34 169.199V164.073C141.34 163.904 141.308 163.747 141.244 163.601C141.18 163.45 141.094 163.321 140.984 163.211C140.875 163.102 140.745 163.015 140.595 162.951C140.449 162.888 140.292 162.856 140.123 162.856H139.562C139.394 162.856 139.234 162.888 139.084 162.951C138.938 163.015 138.811 163.102 138.701 163.211C138.592 163.321 138.505 163.45 138.441 163.601C138.378 163.747 138.346 163.904 138.346 164.073V169.199H137.505V159.397H138.346V162.787C138.537 162.56 138.767 162.382 139.036 162.254C139.305 162.127 139.597 162.063 139.911 162.063H140.123C140.406 162.063 140.672 162.117 140.923 162.227C141.174 162.332 141.392 162.477 141.579 162.664C141.766 162.851 141.912 163.07 142.017 163.321C142.126 163.571 142.181 163.838 142.181 164.12V169.199H141.34ZM151.765 167.279C151.765 167.561 151.71 167.828 151.601 168.078C151.496 168.329 151.35 168.548 151.163 168.735C150.976 168.921 150.757 169.07 150.507 169.179C150.256 169.284 149.99 169.336 149.707 169.336H149.146C148.864 169.336 148.597 169.284 148.347 169.179C148.096 169.07 147.877 168.921 147.69 168.735C147.504 168.548 147.355 168.329 147.246 168.078C147.141 167.828 147.089 167.561 147.089 167.279V164.12C147.089 163.838 147.141 163.571 147.246 163.321C147.355 163.07 147.504 162.851 147.69 162.664C147.877 162.477 148.096 162.332 148.347 162.227C148.597 162.117 148.864 162.063 149.146 162.063H149.707C149.99 162.063 150.256 162.117 150.507 162.227C150.757 162.332 150.976 162.477 151.163 162.664C151.35 162.851 151.496 163.07 151.601 163.321C151.71 163.571 151.765 163.838 151.765 164.12V167.279ZM150.924 164.073C150.924 163.904 150.892 163.747 150.828 163.601C150.764 163.45 150.678 163.321 150.568 163.211C150.459 163.102 150.329 163.015 150.179 162.951C150.033 162.888 149.876 162.856 149.707 162.856H149.146C148.978 162.856 148.818 162.888 148.668 162.951C148.522 163.015 148.395 163.102 148.285 163.211C148.176 163.321 148.089 163.45 148.025 163.601C147.962 163.747 147.93 163.904 147.93 164.073V167.326C147.93 167.495 147.962 167.655 148.025 167.805C148.089 167.951 148.176 168.078 148.285 168.188C148.395 168.297 148.522 168.384 148.668 168.448C148.818 168.511 148.978 168.543 149.146 168.543H149.707C149.876 168.543 150.033 168.511 150.179 168.448C150.329 168.384 150.459 168.297 150.568 168.188C150.678 168.078 150.764 167.951 150.828 167.805C150.892 167.655 150.924 167.495 150.924 167.326V164.073ZM157.281 169.199V164.073C157.281 163.904 157.249 163.747 157.186 163.601C157.122 163.45 157.035 163.321 156.926 163.211C156.816 163.102 156.687 163.015 156.536 162.951C156.39 162.888 156.233 162.856 156.064 162.856H155.504C155.335 162.856 155.176 162.888 155.025 162.951C154.88 163.015 154.752 163.102 154.643 163.211C154.533 163.321 154.447 163.45 154.383 163.601C154.319 163.747 154.287 163.904 154.287 164.073V169.199H153.446V162.199H153.727L154.185 162.91C154.376 162.651 154.615 162.446 154.902 162.295C155.194 162.14 155.511 162.063 155.853 162.063H156.064C156.347 162.063 156.614 162.117 156.864 162.227C157.115 162.332 157.334 162.477 157.521 162.664C157.707 162.851 157.853 163.07 157.958 163.321C158.067 163.571 158.122 163.838 158.122 164.12V169.199H157.281ZM168.362 169.199L164.274 162.063L164.192 161.639V169.199H163.311V159.397H163.769L167.856 166.54L167.945 166.957V159.397H168.827V169.199H168.362ZM175.335 167.279C175.335 167.561 175.28 167.828 175.171 168.078C175.066 168.329 174.92 168.548 174.733 168.735C174.547 168.921 174.328 169.07 174.077 169.179C173.826 169.284 173.56 169.336 173.277 169.336H172.717C172.434 169.336 172.168 169.284 171.917 169.179C171.666 169.07 171.448 168.921 171.261 168.735C171.074 168.548 170.926 168.329 170.816 168.078C170.712 167.828 170.659 167.561 170.659 167.279V164.12C170.659 163.838 170.712 163.571 170.816 163.321C170.926 163.07 171.074 162.851 171.261 162.664C171.448 162.477 171.666 162.332 171.917 162.227C172.168 162.117 172.434 162.063 172.717 162.063H173.277C173.56 162.063 173.826 162.117 174.077 162.227C174.328 162.332 174.547 162.477 174.733 162.664C174.92 162.851 175.066 163.07 175.171 163.321C175.28 163.571 175.335 163.838 175.335 164.12V167.279ZM174.494 164.073C174.494 163.904 174.462 163.747 174.398 163.601C174.335 163.45 174.248 163.321 174.139 163.211C174.029 163.102 173.899 163.015 173.749 162.951C173.603 162.888 173.446 162.856 173.277 162.856H172.717C172.548 162.856 172.389 162.888 172.238 162.951C172.092 163.015 171.965 163.102 171.855 163.211C171.746 163.321 171.66 163.45 171.596 163.601C171.532 163.747 171.5 163.904 171.5 164.073V167.326C171.5 167.495 171.532 167.655 171.596 167.805C171.66 167.951 171.746 168.078 171.855 168.188C171.965 168.297 172.092 168.384 172.238 168.448C172.389 168.511 172.548 168.543 172.717 168.543H173.277C173.446 168.543 173.603 168.511 173.749 168.448C173.899 168.384 174.029 168.297 174.139 168.188C174.248 168.078 174.335 167.951 174.398 167.805C174.462 167.655 174.494 167.495 174.494 167.326V164.073ZM179.211 169.199H178.794L176.312 162.199H177.153L178.979 167.504L179.006 167.866L179.033 167.504L180.852 162.199H181.692L179.211 169.199ZM187.353 167.279C187.353 167.561 187.298 167.828 187.188 168.078C187.084 168.329 186.938 168.548 186.751 168.735C186.564 168.921 186.345 169.07 186.095 169.179C185.844 169.284 185.577 169.336 185.295 169.336H184.734C184.452 169.336 184.185 169.284 183.935 169.179C183.684 169.07 183.465 168.921 183.278 168.735C183.091 168.548 182.943 168.329 182.834 168.078C182.729 167.828 182.677 167.561 182.677 167.279V164.12C182.677 163.838 182.729 163.571 182.834 163.321C182.943 163.07 183.091 162.851 183.278 162.664C183.465 162.477 183.684 162.332 183.935 162.227C184.185 162.117 184.452 162.063 184.734 162.063H185.295C185.577 162.063 185.844 162.117 186.095 162.227C186.345 162.332 186.564 162.477 186.751 162.664C186.938 162.851 187.084 163.07 187.188 163.321C187.298 163.571 187.353 163.838 187.353 164.12V165.768H183.518V167.326C183.518 167.495 183.549 167.655 183.613 167.805C183.677 167.951 183.764 168.078 183.873 168.188C183.982 168.297 184.11 168.384 184.256 168.448C184.406 168.511 184.566 168.543 184.734 168.543H185.295C185.464 168.543 185.621 168.511 185.767 168.448C185.917 168.384 186.047 168.297 186.156 168.188C186.266 168.078 186.352 167.951 186.416 167.805C186.48 167.655 186.512 167.495 186.512 167.326V166.862L187.353 166.998V167.279ZM186.512 164.073C186.512 163.904 186.48 163.747 186.416 163.601C186.352 163.45 186.266 163.321 186.156 163.211C186.047 163.102 185.917 163.015 185.767 162.951C185.621 162.888 185.464 162.856 185.295 162.856H184.734C184.566 162.856 184.406 162.888 184.256 162.951C184.11 163.015 183.982 163.102 183.873 163.211C183.764 163.321 183.677 163.45 183.613 163.601C183.549 163.747 183.518 163.904 183.518 164.073V165.112H186.512V164.073ZM196.424 169.199V164.073C196.424 163.904 196.392 163.747 196.328 163.601C196.264 163.45 196.178 163.321 196.068 163.211C195.959 163.102 195.829 163.015 195.679 162.951C195.533 162.888 195.376 162.856 195.207 162.856H194.79C194.621 162.856 194.462 162.888 194.312 162.951C194.166 163.015 194.036 163.102 193.922 163.211C193.812 163.321 193.726 163.45 193.662 163.601C193.598 163.747 193.566 163.904 193.566 164.073V169.199H192.732V164.073C192.732 163.904 192.701 163.747 192.637 163.601C192.573 163.45 192.484 163.321 192.37 163.211C192.261 163.102 192.131 163.015 191.98 162.951C191.835 162.888 191.677 162.856 191.509 162.856H191.092C190.923 162.856 190.764 162.888 190.613 162.951C190.467 163.015 190.34 163.102 190.23 163.211C190.121 163.321 190.035 163.45 189.971 163.601C189.907 163.747 189.875 163.904 189.875 164.073V169.199H189.034V162.199H189.314L189.772 162.91C189.964 162.651 190.203 162.446 190.49 162.295C190.782 162.14 191.099 162.063 191.44 162.063H191.509C191.905 162.063 192.263 162.161 192.582 162.357C192.901 162.553 193.147 162.812 193.32 163.136C193.407 162.976 193.514 162.831 193.642 162.699C193.769 162.566 193.91 162.455 194.065 162.364C194.22 162.268 194.389 162.195 194.571 162.145C194.754 162.09 194.943 162.063 195.139 162.063H195.207C195.49 162.063 195.756 162.117 196.007 162.227C196.257 162.332 196.476 162.477 196.663 162.664C196.85 162.851 196.996 163.07 197.101 163.321C197.21 163.571 197.265 163.838 197.265 164.12V169.199H196.424ZM203.622 167.279C203.622 167.561 203.567 167.828 203.458 168.078C203.353 168.329 203.207 168.548 203.021 168.735C202.834 168.921 202.615 169.07 202.364 169.179C202.114 169.284 201.847 169.336 201.564 169.336H201.004C200.721 169.336 200.455 169.284 200.204 169.179C199.953 169.07 199.735 168.921 199.548 168.735C199.361 168.548 199.213 168.329 199.104 168.078C198.999 167.828 198.946 167.561 198.946 167.279V159.397H199.787V162.787C199.979 162.56 200.209 162.382 200.478 162.254C200.746 162.127 201.038 162.063 201.353 162.063H201.564C201.847 162.063 202.114 162.117 202.364 162.227C202.615 162.332 202.834 162.477 203.021 162.664C203.207 162.851 203.353 163.07 203.458 163.321C203.567 163.571 203.622 163.838 203.622 164.12V167.279ZM202.781 164.073C202.781 163.904 202.749 163.747 202.686 163.601C202.622 163.45 202.535 163.321 202.426 163.211C202.316 163.102 202.187 163.015 202.036 162.951C201.89 162.888 201.733 162.856 201.564 162.856H201.004C200.835 162.856 200.676 162.888 200.525 162.951C200.38 163.015 200.252 163.102 200.143 163.211C200.033 163.321 199.947 163.45 199.883 163.601C199.819 163.747 199.787 163.904 199.787 164.073V167.326C199.787 167.495 199.819 167.655 199.883 167.805C199.947 167.951 200.033 168.078 200.143 168.188C200.252 168.297 200.38 168.384 200.525 168.448C200.676 168.511 200.835 168.543 201.004 168.543H201.564C201.733 168.543 201.89 168.511 202.036 168.448C202.187 168.384 202.316 168.297 202.426 168.188C202.535 168.078 202.622 167.951 202.686 167.805C202.749 167.655 202.781 167.495 202.781 167.326V164.073ZM209.979 167.279C209.979 167.561 209.925 167.828 209.815 168.078C209.711 168.329 209.565 168.548 209.378 168.735C209.191 168.921 208.972 169.07 208.722 169.179C208.471 169.284 208.204 169.336 207.922 169.336H207.361C207.079 169.336 206.812 169.284 206.562 169.179C206.311 169.07 206.092 168.921 205.905 168.735C205.718 168.548 205.57 168.329 205.461 168.078C205.356 167.828 205.304 167.561 205.304 167.279V164.12C205.304 163.838 205.356 163.571 205.461 163.321C205.57 163.07 205.718 162.851 205.905 162.664C206.092 162.477 206.311 162.332 206.562 162.227C206.812 162.117 207.079 162.063 207.361 162.063H207.922C208.204 162.063 208.471 162.117 208.722 162.227C208.972 162.332 209.191 162.477 209.378 162.664C209.565 162.851 209.711 163.07 209.815 163.321C209.925 163.571 209.979 163.838 209.979 164.12V165.768H206.145V167.326C206.145 167.495 206.176 167.655 206.24 167.805C206.304 167.951 206.391 168.078 206.5 168.188C206.609 168.297 206.737 168.384 206.883 168.448C207.033 168.511 207.193 168.543 207.361 168.543H207.922C208.09 168.543 208.248 168.511 208.394 168.448C208.544 168.384 208.674 168.297 208.783 168.188C208.893 168.078 208.979 167.951 209.043 167.805C209.107 167.655 209.139 167.495 209.139 167.326V166.862L209.979 166.998V167.279ZM209.139 164.073C209.139 163.904 209.107 163.747 209.043 163.601C208.979 163.45 208.893 163.321 208.783 163.211C208.674 163.102 208.544 163.015 208.394 162.951C208.248 162.888 208.09 162.856 207.922 162.856H207.361C207.193 162.856 207.033 162.888 206.883 162.951C206.737 163.015 206.609 163.102 206.5 163.211C206.391 163.321 206.304 163.45 206.24 163.601C206.176 163.747 206.145 163.904 206.145 164.073V165.112H209.139V164.073ZM213.719 162.999C213.55 162.999 213.391 163.031 213.24 163.095C213.094 163.159 212.967 163.245 212.857 163.355C212.748 163.464 212.661 163.594 212.598 163.744C212.534 163.89 212.502 164.047 212.502 164.216V169.199H211.661V162.199H211.941L212.399 162.91C212.591 162.651 212.83 162.446 213.117 162.295C213.409 162.14 213.726 162.063 214.067 162.063H214.56V162.999H213.719ZM219.188 169.199V168.359H221.525V160.238L219.188 161.222V160.381L221.525 159.397H222.407V168.359H224.745V169.199H219.188ZM226.646 171.161H226.29V168.147H227.343L226.646 171.161ZM234.767 160.101C234.548 160.101 234.343 160.142 234.151 160.224C233.965 160.306 233.8 160.418 233.659 160.559C233.518 160.7 233.406 160.866 233.324 161.058C233.242 161.245 233.201 161.448 233.201 161.666V162.063L232.319 161.919V161.666C232.319 161.334 232.381 161.021 232.504 160.73C232.632 160.438 232.805 160.183 233.023 159.964C233.242 159.745 233.497 159.574 233.789 159.451C234.081 159.324 234.393 159.26 234.726 159.26H235.143C235.475 159.26 235.787 159.319 236.079 159.438C236.375 159.556 236.633 159.727 236.852 159.95C237.07 160.174 237.241 160.443 237.364 160.757C237.492 161.067 237.556 161.418 237.556 161.81C237.556 162.197 237.496 162.587 237.378 162.979C237.264 163.371 237.111 163.756 236.92 164.134C236.733 164.512 236.517 164.879 236.271 165.235C236.029 165.59 235.781 165.925 235.525 166.24C234.928 166.973 234.252 167.68 233.495 168.359H237.624V169.199H232.107V168.502C232.96 167.8 233.721 167.074 234.391 166.322C234.678 165.998 234.958 165.654 235.231 165.289C235.505 164.925 235.749 164.551 235.963 164.168C236.177 163.781 236.348 163.389 236.476 162.992C236.608 162.591 236.674 162.197 236.674 161.81C236.674 161.523 236.631 161.272 236.544 161.058C236.457 160.844 236.341 160.666 236.195 160.525C236.049 160.383 235.881 160.279 235.689 160.21C235.503 160.137 235.307 160.101 235.102 160.101H234.767ZM244.679 166.93C244.679 167.263 244.615 167.575 244.487 167.866C244.364 168.158 244.193 168.413 243.975 168.632C243.756 168.851 243.501 169.024 243.209 169.152C242.917 169.275 242.605 169.336 242.272 169.336H241.855C241.523 169.336 241.208 169.275 240.912 169.152C240.62 169.024 240.365 168.851 240.146 168.632C239.928 168.413 239.755 168.158 239.627 167.866C239.504 167.575 239.442 167.263 239.442 166.93V161.666C239.442 161.334 239.504 161.021 239.627 160.73C239.755 160.438 239.928 160.183 240.146 159.964C240.365 159.745 240.62 159.574 240.912 159.451C241.208 159.324 241.523 159.26 241.855 159.26H242.272C242.605 159.26 242.917 159.324 243.209 159.451C243.501 159.574 243.756 159.745 243.975 159.964C244.193 160.183 244.364 160.438 244.487 160.73C244.615 161.021 244.679 161.334 244.679 161.666V166.93ZM243.797 161.666C243.797 161.448 243.756 161.245 243.674 161.058C243.592 160.866 243.48 160.7 243.339 160.559C243.198 160.418 243.031 160.306 242.84 160.224C242.653 160.142 242.45 160.101 242.231 160.101H241.896C241.678 160.101 241.473 160.142 241.281 160.224C241.094 160.306 240.928 160.418 240.782 160.559C240.641 160.7 240.529 160.866 240.447 161.058C240.365 161.245 240.324 161.448 240.324 161.666V166.93C240.324 167.149 240.365 167.354 240.447 167.545C240.529 167.732 240.641 167.898 240.782 168.044C240.928 168.185 241.094 168.297 241.281 168.379C241.473 168.461 241.678 168.502 241.896 168.502H242.231C242.45 168.502 242.653 168.461 242.84 168.379C243.031 168.297 243.198 168.185 243.339 168.044C243.48 167.898 243.592 167.732 243.674 167.545C243.756 167.354 243.797 167.149 243.797 166.93V161.666ZM248.89 160.101C248.671 160.101 248.466 160.142 248.274 160.224C248.088 160.306 247.924 160.418 247.782 160.559C247.641 160.7 247.529 160.866 247.447 161.058C247.365 161.245 247.324 161.448 247.324 161.666V162.063L246.442 161.919V161.666C246.442 161.334 246.504 161.021 246.627 160.73C246.755 160.438 246.928 160.183 247.146 159.964C247.365 159.745 247.62 159.574 247.912 159.451C248.204 159.324 248.516 159.26 248.849 159.26H249.266C249.598 159.26 249.91 159.319 250.202 159.438C250.498 159.556 250.756 159.727 250.975 159.95C251.193 160.174 251.364 160.443 251.487 160.757C251.615 161.067 251.679 161.418 251.679 161.81C251.679 162.197 251.619 162.587 251.501 162.979C251.387 163.371 251.234 163.756 251.043 164.134C250.856 164.512 250.64 164.879 250.394 165.235C250.152 165.59 249.904 165.925 249.648 166.24C249.051 166.973 248.375 167.68 247.618 168.359H251.747V169.199H246.23V168.502C247.083 167.8 247.844 167.074 248.514 166.322C248.801 165.998 249.081 165.654 249.354 165.289C249.628 164.925 249.872 164.551 250.086 164.168C250.3 163.781 250.471 163.389 250.599 162.992C250.731 162.591 250.797 162.197 250.797 161.81C250.797 161.523 250.754 161.272 250.667 161.058C250.58 160.844 250.464 160.666 250.318 160.525C250.173 160.383 250.004 160.279 249.812 160.21C249.626 160.137 249.43 160.101 249.225 160.101H248.89ZM253.709 169.199V168.359H256.047V160.238L253.709 161.222V160.381L256.047 159.397H256.929V168.359H259.267V169.199H253.709Z" fill="white"/>
<path d="M151.776 108.197L156.637 94.1782M171.218 108.197L166.357 94.1782M156.637 94.1782L161.497 80.1593L166.357 94.1782M156.637 94.1782H166.357" stroke="white" stroke-width="4"/>
<path d="M179.348 93.5017C179.348 103.458 171.428 111.517 161.674 111.517C151.92 111.517 144 103.458 144 93.5017C144 83.5452 151.92 75.4864 161.674 75.4864C171.428 75.4864 179.348 83.5452 179.348 93.5017Z" stroke="white" stroke-width="4"/>
<path d="M140.651 132.088H136.482L135.545 134.686H134.192L137.992 124.733H139.141L142.948 134.686H141.602L140.651 132.088ZM136.878 131.008H140.262L138.567 126.353L136.878 131.008ZM147.665 128.424C147.474 128.392 147.266 128.376 147.043 128.376C146.214 128.376 145.651 128.73 145.355 129.436V134.686H144.09V127.289H145.32L145.341 128.144C145.756 127.483 146.344 127.153 147.105 127.153C147.351 127.153 147.538 127.185 147.665 127.248V128.424ZM155.096 131.07C155.096 132.2 154.836 133.109 154.317 133.797C153.797 134.481 153.1 134.823 152.225 134.823C151.29 134.823 150.568 134.492 150.058 133.831L149.996 134.686H148.834V124.186H150.099V128.103C150.609 127.469 151.313 127.153 152.211 127.153C153.109 127.153 153.813 127.492 154.323 128.171C154.838 128.85 155.096 129.78 155.096 130.96V131.07ZM153.831 130.926C153.831 130.065 153.665 129.399 153.332 128.93C152.999 128.461 152.521 128.226 151.897 128.226C151.063 128.226 150.463 128.613 150.099 129.388V132.587C150.486 133.362 151.09 133.749 151.91 133.749C152.516 133.749 152.988 133.515 153.325 133.045C153.663 132.576 153.831 131.87 153.831 130.926ZM159.826 130.249C158.701 129.926 157.88 129.529 157.365 129.06C156.855 128.586 156.6 128.003 156.6 127.31C156.6 126.526 156.912 125.879 157.536 125.369C158.165 124.854 158.981 124.596 159.984 124.596C160.667 124.596 161.276 124.728 161.809 124.993C162.346 125.257 162.761 125.621 163.053 126.086C163.349 126.551 163.497 127.059 163.497 127.611H162.178C162.178 127.009 161.986 126.538 161.604 126.196C161.221 125.849 160.681 125.676 159.984 125.676C159.336 125.676 158.831 125.82 158.466 126.107C158.106 126.389 157.926 126.784 157.926 127.289C157.926 127.695 158.097 128.039 158.439 128.322C158.785 128.6 159.371 128.855 160.195 129.087C161.025 129.32 161.672 129.577 162.137 129.86C162.606 130.138 162.953 130.464 163.176 130.837C163.404 131.211 163.518 131.651 163.518 132.157C163.518 132.963 163.203 133.61 162.574 134.098C161.945 134.581 161.105 134.823 160.052 134.823C159.368 134.823 158.73 134.693 158.138 134.433C157.545 134.169 157.087 133.809 156.764 133.353C156.445 132.897 156.285 132.38 156.285 131.801H157.605C157.605 132.403 157.826 132.879 158.268 133.23C158.714 133.576 159.309 133.749 160.052 133.749C160.745 133.749 161.276 133.608 161.645 133.326C162.014 133.043 162.198 132.658 162.198 132.17C162.198 131.683 162.027 131.307 161.686 131.042C161.344 130.774 160.724 130.509 159.826 130.249ZM166.724 125.498V127.289H168.105V128.267H166.724V132.854C166.724 133.15 166.785 133.373 166.908 133.524C167.031 133.67 167.241 133.743 167.537 133.743C167.683 133.743 167.884 133.715 168.139 133.661V134.686C167.806 134.777 167.483 134.823 167.168 134.823C166.603 134.823 166.177 134.652 165.89 134.31C165.603 133.968 165.459 133.483 165.459 132.854V128.267H164.112V127.289H165.459V125.498H166.724ZM169.116 130.919C169.116 130.195 169.258 129.543 169.54 128.964C169.827 128.385 170.224 127.939 170.73 127.624C171.24 127.31 171.821 127.153 172.473 127.153C173.48 127.153 174.293 127.501 174.913 128.199C175.538 128.896 175.85 129.823 175.85 130.981V131.07C175.85 131.79 175.711 132.437 175.433 133.011C175.159 133.581 174.765 134.025 174.25 134.344C173.74 134.663 173.152 134.823 172.486 134.823C171.484 134.823 170.67 134.474 170.046 133.777C169.426 133.079 169.116 132.157 169.116 131.008V130.919ZM170.388 131.07C170.388 131.89 170.577 132.549 170.955 133.045C171.338 133.542 171.848 133.79 172.486 133.79C173.129 133.79 173.639 133.54 174.018 133.038C174.396 132.533 174.585 131.826 174.585 130.919C174.585 130.108 174.391 129.452 174.004 128.951C173.621 128.445 173.111 128.192 172.473 128.192C171.848 128.192 171.345 128.44 170.962 128.937C170.579 129.434 170.388 130.145 170.388 131.07ZM181.011 128.424C180.819 128.392 180.612 128.376 180.389 128.376C179.559 128.376 178.997 128.73 178.7 129.436V134.686H177.436V127.289H178.666L178.687 128.144C179.101 127.483 179.689 127.153 180.45 127.153C180.696 127.153 180.883 127.185 181.011 127.248V128.424ZM185.112 134.823C184.11 134.823 183.294 134.495 182.665 133.838C182.036 133.177 181.722 132.296 181.722 131.193V130.96C181.722 130.227 181.861 129.573 182.139 128.998C182.421 128.42 182.813 127.968 183.315 127.645C183.82 127.317 184.367 127.153 184.955 127.153C185.917 127.153 186.664 127.469 187.197 128.103C187.731 128.736 187.997 129.643 187.997 130.824V131.35H182.986C183.005 132.079 183.217 132.669 183.622 133.121C184.032 133.567 184.552 133.79 185.181 133.79C185.627 133.79 186.006 133.699 186.316 133.517C186.625 133.335 186.897 133.093 187.129 132.792L187.901 133.394C187.282 134.346 186.352 134.823 185.112 134.823ZM184.955 128.192C184.445 128.192 184.016 128.379 183.67 128.752C183.324 129.121 183.109 129.641 183.027 130.311H186.733V130.215C186.696 129.573 186.523 129.076 186.213 128.725C185.903 128.37 185.484 128.192 184.955 128.192Z" fill="white"/>
</svg>
