<svg width="372" height="288" viewBox="0 0 372 288" fill="none" xmlns="http://www.w3.org/2000/svg">
<rect x="71.2611" y="102.42" width="245.596" height="149.679" fill="black"/>
<rect x="72.2611" y="103.42" width="243.596" height="147.679" stroke="white" stroke-opacity="0.5" stroke-width="2"/>
<rect x="64" y="87" width="260" height="160" fill="black"/>
<rect x="65" y="88" width="258" height="158" stroke="white" stroke-opacity="0.75" stroke-width="2"/>
<rect x="56" y="68.9124" width="276.258" height="167.952" fill="black" stroke="white" stroke-width="2"/>
<path d="M340.46 29.0908C340.46 36.4159 334.625 42.3254 327.462 42.3254C320.299 42.3254 314.464 36.4159 314.464 29.0908C314.464 21.7657 320.299 15.8562 327.462 15.8562C334.625 15.8562 340.46 21.7657 340.46 29.0908Z" stroke="white" stroke-width="2"/>
<path d="M349.023 7.51714C347.313 10.9292 348.653 15.0883 351.987 16.8159C355.321 18.5434 359.417 17.2006 361.127 13.7886C362.836 10.3765 361.497 6.21735 358.163 4.48982C354.829 2.76229 350.733 4.10506 349.023 7.51714Z" stroke="white" stroke-width="2"/>
<path d="M43.0091 263.16C44.6171 266.624 48.6717 268.092 52.0547 266.468C55.4376 264.844 56.9006 260.728 55.2926 257.264C53.6846 253.8 49.63 252.333 46.2471 253.957C42.8641 255.581 41.4012 259.697 43.0091 263.16Z" stroke="white" stroke-width="2"/>
<path d="M343.812 62.4436C339.791 59.8298 337.312 56.4677 338.276 54.934C339.239 53.4004 343.281 54.276 347.303 56.8898C351.324 59.5036 353.803 62.8658 352.839 64.3994C351.875 65.9331 347.834 65.0575 343.812 62.4436Z" fill="white"/>
<path d="M343.581 46.4922C342.617 48.0258 345.096 51.388 349.118 54.0018C353.139 56.6156 357.181 57.4913 358.145 55.9576M343.581 46.4922C344.545 44.9585 348.587 45.8342 352.608 48.448C356.63 51.0618 359.109 54.424 358.145 55.9576M343.581 46.4922L338.276 54.934M358.145 55.9576L352.839 64.3994M338.276 54.934C337.312 56.4677 339.791 59.8298 343.812 62.4436C347.834 65.0575 351.875 65.9331 352.839 64.3994M338.276 54.934C339.239 53.4004 343.281 54.276 347.303 56.8898C351.324 59.5036 353.803 62.8658 352.839 64.3994" stroke="white" stroke-width="2"/>
<path d="M35.7354 44.8617C37.1543 45.5345 38.1324 47.5824 38.1249 50.9774C38.1177 54.2759 37.1588 58.4608 35.2063 62.7189C33.2537 66.977 30.7176 70.4138 28.2375 72.5398C25.6849 74.7279 23.5135 75.2822 22.0947 74.6094C20.6758 73.9366 19.6976 71.8887 19.7051 68.4938C19.7124 65.1952 20.6712 61.0104 22.6238 56.7523C24.5763 52.4942 27.1124 49.0573 29.5926 46.9313C32.1451 44.7433 34.3166 44.1889 35.7354 44.8617Z" stroke="white" stroke-width="2"/>
<path d="M21.9176 74.9958C17.8286 73.0568 14.5964 69.694 13.0174 65.4611C11.4384 61.2282 11.5939 56.5765 13.4497 52.5292C15.3056 48.4819 18.7098 45.3707 22.9134 43.8799C27.1171 42.3891 31.8237 42.5364 35.9127 44.4754" stroke="white" stroke-width="2"/>
<path d="M35.9127 44.4753C31.8237 42.5364 27.1171 42.3891 22.9134 43.8799C18.7098 45.3707 15.3056 48.4819 13.4498 52.5292C12.0119 55.6648 14.3644 64.1609 19.4076 66.5523" stroke="white" stroke-width="2"/>
<path d="M338.219 278.286C338.378 279.007 337.93 280.107 336.356 281.335C334.85 282.509 332.573 283.57 329.881 284.182C327.188 284.794 324.685 284.822 322.83 284.412C320.891 283.983 320.026 283.182 319.867 282.46C319.708 281.739 320.156 280.639 321.73 279.411C323.236 278.237 325.513 277.177 328.205 276.564C330.898 275.952 333.401 275.925 335.256 276.335C337.195 276.763 338.061 277.565 338.219 278.286Z" stroke="white" stroke-width="2"/>
<path d="M319.228 282.606C318.63 279.886 319.023 277.058 320.441 274.716C321.858 272.374 324.117 270.726 326.72 270.134C329.323 269.542 332.057 270.054 334.321 271.559C336.585 273.063 338.26 275.421 338.858 278.14" stroke="white" stroke-width="2"/>
<path d="M338.858 278.141C338.26 275.421 336.585 273.063 334.321 271.559C332.058 270.054 329.323 269.542 326.72 270.134C324.703 270.593 321.555 274.893 322.293 278.248" stroke="white" stroke-width="2"/>
<path d="M341.466 258.922C341.31 258.642 341.249 258.211 341.448 257.552C341.648 256.891 342.086 256.093 342.78 255.211C344.165 253.452 346.436 251.522 349.278 249.885C352.12 248.248 354.915 247.259 357.111 246.956C358.212 246.804 359.11 246.832 359.77 246.998C360.428 247.163 360.76 247.438 360.916 247.718C361.072 247.998 361.133 248.429 360.935 249.087C360.735 249.749 360.296 250.547 359.602 251.429C358.218 253.188 355.947 255.117 353.105 256.755C350.263 258.392 347.468 259.381 345.272 259.684C344.171 259.836 343.273 259.808 342.612 259.642C341.955 259.477 341.622 259.202 341.466 258.922Z" fill="white" stroke="white" stroke-width="2"/>
<path d="M341.203 259.643V259.643C350.171 264.946 361.575 258.407 361.66 247.858V247.858" stroke="white" stroke-width="2"/>
<path d="M15.1682 248.375L19.8405 260.794L32.4142 264.445L27.742 252.025L15.1682 248.375Z" fill="white" stroke="white" stroke-width="2"/>
<path d="M6.33339 258.179L11.0056 270.599L23.5794 274.25L18.9071 261.83L6.33339 258.179Z" stroke="white" stroke-width="2"/>
<line y1="-1" x2="13.198" y2="-1" transform="matrix(0.66941 -0.742894 -0.731602 -0.681733 24.7006 275.295)" stroke="white" stroke-width="2"/>
<line y1="-1" x2="13.198" y2="-1" transform="matrix(0.66941 -0.742894 -0.731602 -0.681733 4.69934 256.657)" stroke="white" stroke-width="2"/>
<path d="M21.4882 29.6564L29.4269 25.7963L37.0754 30.2211L29.1367 34.0812L21.4882 29.6564Z" fill="white" stroke="white" stroke-width="2"/>
<path d="M21.8355 19.7406L29.7742 15.8805L37.4227 20.3053L29.484 24.1654L21.8355 19.7406Z" stroke="white" stroke-width="2"/>
<line y1="-1" x2="9.92185" y2="-1" transform="matrix(-0.0350117 0.999387 -0.999345 -0.036205 39.0559 20.3645)" stroke="white" stroke-width="2"/>
<line y1="-1" x2="9.92185" y2="-1" transform="matrix(-0.0350117 0.999387 -0.999345 -0.036205 19.7063 19.6636)" stroke="white" stroke-width="2"/>
<path d="M52.71 39.8161L57.4634 33.6536L64.902 31.624L60.1486 37.7864L52.71 39.8161Z" fill="white" stroke="white" stroke-width="2"/>
<path d="M67.2595 30.1248L48.9127 20.4935L50.4873 41.3944" stroke="white" stroke-width="2"/>
<line y1="-1" x2="15.203" y2="-1" transform="matrix(0.544838 0.838541 -0.830032 0.557715 48.6228 20.6879)" stroke="white" stroke-width="2"/>
<path d="M89.4219 198.646C89.4219 199.026 89.3438 199.383 89.1875 199.716C89.0365 200.049 88.8307 200.341 88.5703 200.591C88.3151 200.841 88.0156 201.039 87.6719 201.185C87.3333 201.325 86.974 201.396 86.5938 201.396H85.7891C85.4089 201.396 85.0469 201.325 84.7031 201.185C84.3646 201.039 84.0651 200.841 83.8047 200.591C83.5495 200.341 83.3438 200.049 83.1875 199.716C83.0365 199.383 82.9609 199.026 82.9609 198.646V198.2L83.9688 198.036V198.646C83.9688 198.896 84.0182 199.13 84.1172 199.349C84.2214 199.562 84.3594 199.752 84.5312 199.919C84.7031 200.081 84.901 200.208 85.125 200.302C85.3542 200.396 85.5938 200.443 85.8438 200.443H86.5469C86.7969 200.443 87.0339 200.396 87.2578 200.302C87.4818 200.208 87.6797 200.081 87.8516 199.919C88.0234 199.752 88.1589 199.562 88.2578 199.349C88.362 199.13 88.4141 198.896 88.4141 198.646V198.31C88.4141 197.924 88.3385 197.604 88.1875 197.349C88.0365 197.094 87.8359 196.877 87.5859 196.7C87.3359 196.518 87.0521 196.364 86.7344 196.239C86.4219 196.114 86.099 195.989 85.7656 195.864C85.4323 195.739 85.1068 195.601 84.7891 195.45C84.4766 195.299 84.1953 195.112 83.9453 194.888C83.6953 194.659 83.4948 194.38 83.3438 194.052C83.1927 193.724 83.1172 193.32 83.1172 192.841V192.63C83.1172 192.25 83.1875 191.893 83.3281 191.56C83.474 191.226 83.6719 190.935 83.9219 190.685C84.1719 190.435 84.4635 190.239 84.7969 190.099C85.1354 189.953 85.4948 189.88 85.875 189.88H86.5938C86.974 189.88 87.3307 189.953 87.6641 190.099C87.9974 190.239 88.2891 190.435 88.5391 190.685C88.7891 190.935 88.9844 191.226 89.125 191.56C89.2708 191.893 89.3438 192.25 89.3438 192.63V192.919L88.3359 193.083V192.63C88.3359 192.38 88.2891 192.148 88.1953 191.935C88.1016 191.716 87.974 191.526 87.8125 191.364C87.651 191.203 87.4609 191.075 87.2422 190.982C87.0286 190.888 86.7969 190.841 86.5469 190.841H85.9219C85.6719 190.841 85.4375 190.888 85.2188 190.982C85.0052 191.075 84.8151 191.203 84.6484 191.364C84.487 191.526 84.3594 191.716 84.2656 191.935C84.1719 192.148 84.125 192.38 84.125 192.63V192.841C84.125 193.2 84.2005 193.502 84.3516 193.747C84.5026 193.992 84.7031 194.203 84.9531 194.38C85.2031 194.552 85.4844 194.703 85.7969 194.833C86.1146 194.958 86.4401 195.088 86.7734 195.224C87.1068 195.354 87.4297 195.5 87.7422 195.661C88.0599 195.818 88.3438 196.013 88.5938 196.247C88.8438 196.476 89.0443 196.758 89.1953 197.091C89.3464 197.424 89.4219 197.831 89.4219 198.31V198.646ZM96.6172 199.044C96.6172 199.367 96.5547 199.672 96.4297 199.958C96.3099 200.245 96.1432 200.495 95.9297 200.708C95.7161 200.922 95.4661 201.091 95.1797 201.216C94.8932 201.336 94.5885 201.396 94.2656 201.396H93.625C93.3021 201.396 92.9974 201.336 92.7109 201.216C92.4245 201.091 92.1745 200.922 91.9609 200.708C91.7474 200.495 91.5781 200.245 91.4531 199.958C91.3333 199.672 91.2734 199.367 91.2734 199.044V195.435C91.2734 195.112 91.3333 194.807 91.4531 194.521C91.5781 194.234 91.7474 193.984 91.9609 193.771C92.1745 193.557 92.4245 193.39 92.7109 193.271C92.9974 193.146 93.3021 193.083 93.625 193.083H94.2656C94.5885 193.083 94.8932 193.146 95.1797 193.271C95.4661 193.39 95.7161 193.557 95.9297 193.771C96.1432 193.984 96.3099 194.234 96.4297 194.521C96.5547 194.807 96.6172 195.112 96.6172 195.435V197.318H92.2344V199.099C92.2344 199.291 92.2708 199.474 92.3438 199.646C92.4167 199.812 92.5156 199.958 92.6406 200.083C92.7656 200.208 92.9115 200.307 93.0781 200.38C93.25 200.453 93.4323 200.489 93.625 200.489H94.2656C94.4583 200.489 94.638 200.453 94.8047 200.38C94.9766 200.307 95.125 200.208 95.25 200.083C95.375 199.958 95.474 199.812 95.5469 199.646C95.6198 199.474 95.6562 199.291 95.6562 199.099V198.568L96.6172 198.724V199.044ZM95.6562 195.38C95.6562 195.187 95.6198 195.008 95.5469 194.841C95.474 194.669 95.375 194.521 95.25 194.396C95.125 194.271 94.9766 194.172 94.8047 194.099C94.638 194.026 94.4583 193.989 94.2656 193.989H93.625C93.4323 193.989 93.25 194.026 93.0781 194.099C92.9115 194.172 92.7656 194.271 92.6406 194.396C92.5156 194.521 92.4167 194.669 92.3438 194.841C92.2708 195.008 92.2344 195.187 92.2344 195.38V196.568H95.6562V195.38ZM100.891 194.153C100.698 194.153 100.516 194.19 100.344 194.263C100.177 194.336 100.031 194.435 99.9062 194.56C99.7812 194.685 99.6823 194.833 99.6094 195.005C99.5365 195.172 99.5 195.351 99.5 195.544V201.239H98.5391V193.239H98.8594L99.3828 194.052C99.6016 193.755 99.875 193.521 100.203 193.349C100.536 193.172 100.898 193.083 101.289 193.083H101.852V194.153H100.891ZM105.641 201.239H105.164L102.328 193.239H103.289L105.375 199.302L105.406 199.716L105.438 199.302L107.516 193.239H108.477L105.641 201.239ZM109.844 191.318V190.036H110.961V191.318H109.844ZM109.922 201.239V193.239H110.883V201.239H109.922ZM118.477 199.044C118.477 199.367 118.414 199.672 118.289 199.958C118.169 200.245 118.003 200.495 117.789 200.708C117.576 200.922 117.326 201.091 117.039 201.216C116.753 201.336 116.448 201.396 116.125 201.396H115.484C115.161 201.396 114.857 201.336 114.57 201.216C114.284 201.091 114.034 200.922 113.82 200.708C113.607 200.495 113.438 200.245 113.312 199.958C113.193 199.672 113.133 199.367 113.133 199.044V195.435C113.133 195.112 113.193 194.807 113.312 194.521C113.438 194.234 113.607 193.984 113.82 193.771C114.034 193.557 114.284 193.39 114.57 193.271C114.857 193.146 115.161 193.083 115.484 193.083H116.125C116.448 193.083 116.753 193.146 117.039 193.271C117.326 193.39 117.576 193.557 117.789 193.771C118.003 193.984 118.169 194.234 118.289 194.521C118.414 194.807 118.477 195.112 118.477 195.435V195.755L117.516 195.911V195.38C117.516 195.187 117.479 195.008 117.406 194.841C117.333 194.669 117.234 194.521 117.109 194.396C116.984 194.271 116.836 194.172 116.664 194.099C116.497 194.026 116.318 193.989 116.125 193.989H115.484C115.292 193.989 115.109 194.026 114.938 194.099C114.771 194.172 114.625 194.271 114.5 194.396C114.375 194.521 114.276 194.669 114.203 194.841C114.13 195.008 114.094 195.187 114.094 195.38V199.099C114.094 199.291 114.13 199.474 114.203 199.646C114.276 199.812 114.375 199.958 114.5 200.083C114.625 200.208 114.771 200.307 114.938 200.38C115.109 200.453 115.292 200.489 115.484 200.489H116.125C116.318 200.489 116.497 200.453 116.664 200.38C116.836 200.307 116.984 200.208 117.109 200.083C117.234 199.958 117.333 199.812 117.406 199.646C117.479 199.474 117.516 199.291 117.516 199.099V198.568L118.477 198.724V199.044ZM125.742 199.044C125.742 199.367 125.68 199.672 125.555 199.958C125.435 200.245 125.268 200.495 125.055 200.708C124.841 200.922 124.591 201.091 124.305 201.216C124.018 201.336 123.714 201.396 123.391 201.396H122.75C122.427 201.396 122.122 201.336 121.836 201.216C121.549 201.091 121.299 200.922 121.086 200.708C120.872 200.495 120.703 200.245 120.578 199.958C120.458 199.672 120.398 199.367 120.398 199.044V195.435C120.398 195.112 120.458 194.807 120.578 194.521C120.703 194.234 120.872 193.984 121.086 193.771C121.299 193.557 121.549 193.39 121.836 193.271C122.122 193.146 122.427 193.083 122.75 193.083H123.391C123.714 193.083 124.018 193.146 124.305 193.271C124.591 193.39 124.841 193.557 125.055 193.771C125.268 193.984 125.435 194.234 125.555 194.521C125.68 194.807 125.742 195.112 125.742 195.435V197.318H121.359V199.099C121.359 199.291 121.396 199.474 121.469 199.646C121.542 199.812 121.641 199.958 121.766 200.083C121.891 200.208 122.036 200.307 122.203 200.38C122.375 200.453 122.557 200.489 122.75 200.489H123.391C123.583 200.489 123.763 200.453 123.93 200.38C124.102 200.307 124.25 200.208 124.375 200.083C124.5 199.958 124.599 199.812 124.672 199.646C124.745 199.474 124.781 199.291 124.781 199.099V198.568L125.742 198.724V199.044ZM124.781 195.38C124.781 195.187 124.745 195.008 124.672 194.841C124.599 194.669 124.5 194.521 124.375 194.396C124.25 194.271 124.102 194.172 123.93 194.099C123.763 194.026 123.583 193.989 123.391 193.989H122.75C122.557 193.989 122.375 194.026 122.203 194.099C122.036 194.172 121.891 194.271 121.766 194.396C121.641 194.521 121.542 194.669 121.469 194.841C121.396 195.008 121.359 195.187 121.359 195.38V196.568H124.781V195.38ZM131.508 201.239V190.036H132.516V200.278H136.805V201.239H131.508ZM143.109 201.239L142.578 200.443C142.359 200.729 142.086 200.961 141.758 201.138C141.43 201.31 141.07 201.396 140.68 201.396H140.438C140.115 201.396 139.81 201.336 139.523 201.216C139.237 201.091 138.987 200.922 138.773 200.708C138.56 200.495 138.391 200.245 138.266 199.958C138.146 199.672 138.086 199.367 138.086 199.044V198.966C138.086 198.643 138.146 198.338 138.266 198.052C138.391 197.765 138.56 197.515 138.773 197.302C138.987 197.088 139.237 196.922 139.523 196.802C139.81 196.677 140.115 196.614 140.438 196.614H142.469V195.38C142.469 195.187 142.432 195.008 142.359 194.841C142.286 194.669 142.188 194.521 142.062 194.396C141.938 194.271 141.789 194.172 141.617 194.099C141.451 194.026 141.271 193.989 141.078 193.989H140.516C140.323 193.989 140.141 194.026 139.969 194.099C139.802 194.172 139.656 194.271 139.531 194.396C139.406 194.521 139.307 194.669 139.234 194.841C139.161 195.008 139.125 195.187 139.125 195.38V195.669L138.164 195.513V195.435C138.164 195.112 138.224 194.807 138.344 194.521C138.469 194.234 138.638 193.984 138.852 193.771C139.065 193.557 139.315 193.39 139.602 193.271C139.888 193.146 140.193 193.083 140.516 193.083H141.078C141.401 193.083 141.706 193.146 141.992 193.271C142.279 193.39 142.529 193.557 142.742 193.771C142.956 193.984 143.122 194.234 143.242 194.521C143.367 194.807 143.43 195.112 143.43 195.435V201.239H143.109ZM142.469 197.364H140.438C140.245 197.364 140.062 197.401 139.891 197.474C139.724 197.547 139.578 197.648 139.453 197.778C139.328 197.903 139.229 198.052 139.156 198.224C139.083 198.39 139.047 198.57 139.047 198.763V199.099C139.047 199.291 139.083 199.474 139.156 199.646C139.229 199.812 139.328 199.958 139.453 200.083C139.578 200.208 139.724 200.307 139.891 200.38C140.062 200.453 140.245 200.489 140.438 200.489H141.078C141.271 200.489 141.451 200.453 141.617 200.38C141.789 200.307 141.938 200.208 142.062 200.083C142.188 199.958 142.286 199.812 142.359 199.646C142.432 199.474 142.469 199.291 142.469 199.099V197.364ZM150.375 201.239L149.844 200.427C149.625 200.724 149.352 200.961 149.023 201.138C148.695 201.31 148.336 201.396 147.945 201.396H147.703C147.38 201.396 147.076 201.336 146.789 201.216C146.503 201.091 146.253 200.922 146.039 200.708C145.826 200.495 145.656 200.245 145.531 199.958C145.411 199.672 145.352 199.367 145.352 199.044V193.239H146.312V199.099C146.312 199.291 146.349 199.474 146.422 199.646C146.495 199.812 146.594 199.958 146.719 200.083C146.844 200.208 146.99 200.307 147.156 200.38C147.328 200.453 147.51 200.489 147.703 200.489H148.344C148.536 200.489 148.716 200.453 148.883 200.38C149.055 200.307 149.203 200.208 149.328 200.083C149.453 199.958 149.552 199.812 149.625 199.646C149.698 199.474 149.734 199.291 149.734 199.099V193.239H150.695V201.239H150.375ZM157 201.239V195.38C157 195.187 156.964 195.008 156.891 194.841C156.818 194.669 156.719 194.521 156.594 194.396C156.469 194.271 156.32 194.172 156.148 194.099C155.982 194.026 155.802 193.989 155.609 193.989H154.969C154.776 193.989 154.594 194.026 154.422 194.099C154.255 194.172 154.109 194.271 153.984 194.396C153.859 194.521 153.76 194.669 153.688 194.841C153.615 195.008 153.578 195.187 153.578 195.38V201.239H152.617V193.239H152.938L153.461 194.052C153.68 193.755 153.953 193.521 154.281 193.349C154.615 193.172 154.977 193.083 155.367 193.083H155.609C155.932 193.083 156.237 193.146 156.523 193.271C156.81 193.39 157.06 193.557 157.273 193.771C157.487 193.984 157.654 194.234 157.773 194.521C157.898 194.807 157.961 195.112 157.961 195.435V201.239H157ZM165.227 199.044C165.227 199.367 165.164 199.672 165.039 199.958C164.919 200.245 164.753 200.495 164.539 200.708C164.326 200.922 164.076 201.091 163.789 201.216C163.503 201.336 163.198 201.396 162.875 201.396H162.234C161.911 201.396 161.607 201.336 161.32 201.216C161.034 201.091 160.784 200.922 160.57 200.708C160.357 200.495 160.188 200.245 160.062 199.958C159.943 199.672 159.883 199.367 159.883 199.044V195.435C159.883 195.112 159.943 194.807 160.062 194.521C160.188 194.234 160.357 193.984 160.57 193.771C160.784 193.557 161.034 193.39 161.32 193.271C161.607 193.146 161.911 193.083 162.234 193.083H162.875C163.198 193.083 163.503 193.146 163.789 193.271C164.076 193.39 164.326 193.557 164.539 193.771C164.753 193.984 164.919 194.234 165.039 194.521C165.164 194.807 165.227 195.112 165.227 195.435V195.755L164.266 195.911V195.38C164.266 195.187 164.229 195.008 164.156 194.841C164.083 194.669 163.984 194.521 163.859 194.396C163.734 194.271 163.586 194.172 163.414 194.099C163.247 194.026 163.068 193.989 162.875 193.989H162.234C162.042 193.989 161.859 194.026 161.688 194.099C161.521 194.172 161.375 194.271 161.25 194.396C161.125 194.521 161.026 194.669 160.953 194.841C160.88 195.008 160.844 195.187 160.844 195.38V199.099C160.844 199.291 160.88 199.474 160.953 199.646C161.026 199.812 161.125 199.958 161.25 200.083C161.375 200.208 161.521 200.307 161.688 200.38C161.859 200.453 162.042 200.489 162.234 200.489H162.875C163.068 200.489 163.247 200.453 163.414 200.38C163.586 200.307 163.734 200.208 163.859 200.083C163.984 199.958 164.083 199.812 164.156 199.646C164.229 199.474 164.266 199.291 164.266 199.099V198.568L165.227 198.724V199.044ZM171.531 201.239V195.38C171.531 195.187 171.495 195.008 171.422 194.841C171.349 194.669 171.25 194.521 171.125 194.396C171 194.271 170.852 194.172 170.68 194.099C170.513 194.026 170.333 193.989 170.141 193.989H169.5C169.307 193.989 169.125 194.026 168.953 194.099C168.786 194.172 168.641 194.271 168.516 194.396C168.391 194.521 168.292 194.669 168.219 194.841C168.146 195.008 168.109 195.187 168.109 195.38V201.239H167.148V190.036H168.109V193.911C168.328 193.651 168.591 193.448 168.898 193.302C169.206 193.156 169.539 193.083 169.898 193.083H170.141C170.464 193.083 170.768 193.146 171.055 193.271C171.341 193.39 171.591 193.557 171.805 193.771C172.018 193.984 172.185 194.234 172.305 194.521C172.43 194.807 172.492 195.112 172.492 195.435V201.239H171.531ZM183.445 199.044C183.445 199.367 183.383 199.672 183.258 199.958C183.138 200.245 182.971 200.495 182.758 200.708C182.544 200.922 182.294 201.091 182.008 201.216C181.721 201.336 181.417 201.396 181.094 201.396H180.453C180.13 201.396 179.826 201.336 179.539 201.216C179.253 201.091 179.003 200.922 178.789 200.708C178.576 200.495 178.406 200.245 178.281 199.958C178.161 199.672 178.102 199.367 178.102 199.044V195.435C178.102 195.112 178.161 194.807 178.281 194.521C178.406 194.234 178.576 193.984 178.789 193.771C179.003 193.557 179.253 193.39 179.539 193.271C179.826 193.146 180.13 193.083 180.453 193.083H181.094C181.417 193.083 181.721 193.146 182.008 193.271C182.294 193.39 182.544 193.557 182.758 193.771C182.971 193.984 183.138 194.234 183.258 194.521C183.383 194.807 183.445 195.112 183.445 195.435V199.044ZM182.484 195.38C182.484 195.187 182.448 195.008 182.375 194.841C182.302 194.669 182.203 194.521 182.078 194.396C181.953 194.271 181.805 194.172 181.633 194.099C181.466 194.026 181.286 193.989 181.094 193.989H180.453C180.26 193.989 180.078 194.026 179.906 194.099C179.74 194.172 179.594 194.271 179.469 194.396C179.344 194.521 179.245 194.669 179.172 194.841C179.099 195.008 179.062 195.187 179.062 195.38V199.099C179.062 199.291 179.099 199.474 179.172 199.646C179.245 199.812 179.344 199.958 179.469 200.083C179.594 200.208 179.74 200.307 179.906 200.38C180.078 200.453 180.26 200.489 180.453 200.489H181.094C181.286 200.489 181.466 200.453 181.633 200.38C181.805 200.307 181.953 200.208 182.078 200.083C182.203 199.958 182.302 199.812 182.375 199.646C182.448 199.474 182.484 199.291 182.484 199.099V195.38ZM189.75 201.239V195.38C189.75 195.187 189.714 195.008 189.641 194.841C189.568 194.669 189.469 194.521 189.344 194.396C189.219 194.271 189.07 194.172 188.898 194.099C188.732 194.026 188.552 193.989 188.359 193.989H187.719C187.526 193.989 187.344 194.026 187.172 194.099C187.005 194.172 186.859 194.271 186.734 194.396C186.609 194.521 186.51 194.669 186.438 194.841C186.365 195.008 186.328 195.187 186.328 195.38V201.239H185.367V193.239H185.688L186.211 194.052C186.43 193.755 186.703 193.521 187.031 193.349C187.365 193.172 187.727 193.083 188.117 193.083H188.359C188.682 193.083 188.987 193.146 189.273 193.271C189.56 193.39 189.81 193.557 190.023 193.771C190.237 193.984 190.404 194.234 190.523 194.521C190.648 194.807 190.711 195.112 190.711 195.435V201.239H189.75ZM202.414 201.239L197.742 193.083L197.648 192.599V201.239H196.641V190.036H197.164L201.836 198.2L201.938 198.677V190.036H202.945V201.239H202.414ZM210.383 199.044C210.383 199.367 210.32 199.672 210.195 199.958C210.076 200.245 209.909 200.495 209.695 200.708C209.482 200.922 209.232 201.091 208.945 201.216C208.659 201.336 208.354 201.396 208.031 201.396H207.391C207.068 201.396 206.763 201.336 206.477 201.216C206.19 201.091 205.94 200.922 205.727 200.708C205.513 200.495 205.344 200.245 205.219 199.958C205.099 199.672 205.039 199.367 205.039 199.044V195.435C205.039 195.112 205.099 194.807 205.219 194.521C205.344 194.234 205.513 193.984 205.727 193.771C205.94 193.557 206.19 193.39 206.477 193.271C206.763 193.146 207.068 193.083 207.391 193.083H208.031C208.354 193.083 208.659 193.146 208.945 193.271C209.232 193.39 209.482 193.557 209.695 193.771C209.909 193.984 210.076 194.234 210.195 194.521C210.32 194.807 210.383 195.112 210.383 195.435V199.044ZM209.422 195.38C209.422 195.187 209.385 195.008 209.312 194.841C209.24 194.669 209.141 194.521 209.016 194.396C208.891 194.271 208.742 194.172 208.57 194.099C208.404 194.026 208.224 193.989 208.031 193.989H207.391C207.198 193.989 207.016 194.026 206.844 194.099C206.677 194.172 206.531 194.271 206.406 194.396C206.281 194.521 206.182 194.669 206.109 194.841C206.036 195.008 206 195.187 206 195.38V199.099C206 199.291 206.036 199.474 206.109 199.646C206.182 199.812 206.281 199.958 206.406 200.083C206.531 200.208 206.677 200.307 206.844 200.38C207.016 200.453 207.198 200.489 207.391 200.489H208.031C208.224 200.489 208.404 200.453 208.57 200.38C208.742 200.307 208.891 200.208 209.016 200.083C209.141 199.958 209.24 199.812 209.312 199.646C209.385 199.474 209.422 199.291 209.422 199.099V195.38ZM214.812 201.239H214.336L211.5 193.239H212.461L214.547 199.302L214.578 199.716L214.609 199.302L216.688 193.239H217.648L214.812 201.239ZM224.117 199.044C224.117 199.367 224.055 199.672 223.93 199.958C223.81 200.245 223.643 200.495 223.43 200.708C223.216 200.922 222.966 201.091 222.68 201.216C222.393 201.336 222.089 201.396 221.766 201.396H221.125C220.802 201.396 220.497 201.336 220.211 201.216C219.924 201.091 219.674 200.922 219.461 200.708C219.247 200.495 219.078 200.245 218.953 199.958C218.833 199.672 218.773 199.367 218.773 199.044V195.435C218.773 195.112 218.833 194.807 218.953 194.521C219.078 194.234 219.247 193.984 219.461 193.771C219.674 193.557 219.924 193.39 220.211 193.271C220.497 193.146 220.802 193.083 221.125 193.083H221.766C222.089 193.083 222.393 193.146 222.68 193.271C222.966 193.39 223.216 193.557 223.43 193.771C223.643 193.984 223.81 194.234 223.93 194.521C224.055 194.807 224.117 195.112 224.117 195.435V197.318H219.734V199.099C219.734 199.291 219.771 199.474 219.844 199.646C219.917 199.812 220.016 199.958 220.141 200.083C220.266 200.208 220.411 200.307 220.578 200.38C220.75 200.453 220.932 200.489 221.125 200.489H221.766C221.958 200.489 222.138 200.453 222.305 200.38C222.477 200.307 222.625 200.208 222.75 200.083C222.875 199.958 222.974 199.812 223.047 199.646C223.12 199.474 223.156 199.291 223.156 199.099V198.568L224.117 198.724V199.044ZM223.156 195.38C223.156 195.187 223.12 195.008 223.047 194.841C222.974 194.669 222.875 194.521 222.75 194.396C222.625 194.271 222.477 194.172 222.305 194.099C222.138 194.026 221.958 193.989 221.766 193.989H221.125C220.932 193.989 220.75 194.026 220.578 194.099C220.411 194.172 220.266 194.271 220.141 194.396C220.016 194.521 219.917 194.669 219.844 194.841C219.771 195.008 219.734 195.187 219.734 195.38V196.568H223.156V195.38ZM234.484 201.239V195.38C234.484 195.187 234.448 195.008 234.375 194.841C234.302 194.669 234.203 194.521 234.078 194.396C233.953 194.271 233.805 194.172 233.633 194.099C233.466 194.026 233.286 193.989 233.094 193.989H232.617C232.424 193.989 232.242 194.026 232.07 194.099C231.904 194.172 231.755 194.271 231.625 194.396C231.5 194.521 231.401 194.669 231.328 194.841C231.255 195.008 231.219 195.187 231.219 195.38V201.239H230.266V195.38C230.266 195.187 230.229 195.008 230.156 194.841C230.083 194.669 229.982 194.521 229.852 194.396C229.727 194.271 229.578 194.172 229.406 194.099C229.24 194.026 229.06 193.989 228.867 193.989H228.391C228.198 193.989 228.016 194.026 227.844 194.099C227.677 194.172 227.531 194.271 227.406 194.396C227.281 194.521 227.182 194.669 227.109 194.841C227.036 195.008 227 195.187 227 195.38V201.239H226.039V193.239H226.359L226.883 194.052C227.102 193.755 227.375 193.521 227.703 193.349C228.036 193.172 228.398 193.083 228.789 193.083H228.867C229.32 193.083 229.729 193.195 230.094 193.419C230.458 193.643 230.74 193.94 230.938 194.31C231.036 194.127 231.159 193.961 231.305 193.81C231.451 193.659 231.612 193.531 231.789 193.427C231.966 193.318 232.159 193.234 232.367 193.177C232.576 193.114 232.792 193.083 233.016 193.083H233.094C233.417 193.083 233.721 193.146 234.008 193.271C234.294 193.39 234.544 193.557 234.758 193.771C234.971 193.984 235.138 194.234 235.258 194.521C235.383 194.807 235.445 195.112 235.445 195.435V201.239H234.484ZM242.711 199.044C242.711 199.367 242.648 199.672 242.523 199.958C242.404 200.245 242.237 200.495 242.023 200.708C241.81 200.922 241.56 201.091 241.273 201.216C240.987 201.336 240.682 201.396 240.359 201.396H239.719C239.396 201.396 239.091 201.336 238.805 201.216C238.518 201.091 238.268 200.922 238.055 200.708C237.841 200.495 237.672 200.245 237.547 199.958C237.427 199.672 237.367 199.367 237.367 199.044V190.036H238.328V193.911C238.547 193.651 238.81 193.448 239.117 193.302C239.424 193.156 239.758 193.083 240.117 193.083H240.359C240.682 193.083 240.987 193.146 241.273 193.271C241.56 193.39 241.81 193.557 242.023 193.771C242.237 193.984 242.404 194.234 242.523 194.521C242.648 194.807 242.711 195.112 242.711 195.435V199.044ZM241.75 195.38C241.75 195.187 241.714 195.008 241.641 194.841C241.568 194.669 241.469 194.521 241.344 194.396C241.219 194.271 241.07 194.172 240.898 194.099C240.732 194.026 240.552 193.989 240.359 193.989H239.719C239.526 193.989 239.344 194.026 239.172 194.099C239.005 194.172 238.859 194.271 238.734 194.396C238.609 194.521 238.51 194.669 238.438 194.841C238.365 195.008 238.328 195.187 238.328 195.38V199.099C238.328 199.291 238.365 199.474 238.438 199.646C238.51 199.812 238.609 199.958 238.734 200.083C238.859 200.208 239.005 200.307 239.172 200.38C239.344 200.453 239.526 200.489 239.719 200.489H240.359C240.552 200.489 240.732 200.453 240.898 200.38C241.07 200.307 241.219 200.208 241.344 200.083C241.469 199.958 241.568 199.812 241.641 199.646C241.714 199.474 241.75 199.291 241.75 199.099V195.38ZM249.977 199.044C249.977 199.367 249.914 199.672 249.789 199.958C249.669 200.245 249.503 200.495 249.289 200.708C249.076 200.922 248.826 201.091 248.539 201.216C248.253 201.336 247.948 201.396 247.625 201.396H246.984C246.661 201.396 246.357 201.336 246.07 201.216C245.784 201.091 245.534 200.922 245.32 200.708C245.107 200.495 244.938 200.245 244.812 199.958C244.693 199.672 244.633 199.367 244.633 199.044V195.435C244.633 195.112 244.693 194.807 244.812 194.521C244.938 194.234 245.107 193.984 245.32 193.771C245.534 193.557 245.784 193.39 246.07 193.271C246.357 193.146 246.661 193.083 246.984 193.083H247.625C247.948 193.083 248.253 193.146 248.539 193.271C248.826 193.39 249.076 193.557 249.289 193.771C249.503 193.984 249.669 194.234 249.789 194.521C249.914 194.807 249.977 195.112 249.977 195.435V197.318H245.594V199.099C245.594 199.291 245.63 199.474 245.703 199.646C245.776 199.812 245.875 199.958 246 200.083C246.125 200.208 246.271 200.307 246.438 200.38C246.609 200.453 246.792 200.489 246.984 200.489H247.625C247.818 200.489 247.997 200.453 248.164 200.38C248.336 200.307 248.484 200.208 248.609 200.083C248.734 199.958 248.833 199.812 248.906 199.646C248.979 199.474 249.016 199.291 249.016 199.099V198.568L249.977 198.724V199.044ZM249.016 195.38C249.016 195.187 248.979 195.008 248.906 194.841C248.833 194.669 248.734 194.521 248.609 194.396C248.484 194.271 248.336 194.172 248.164 194.099C247.997 194.026 247.818 193.989 247.625 193.989H246.984C246.792 193.989 246.609 194.026 246.438 194.099C246.271 194.172 246.125 194.271 246 194.396C245.875 194.521 245.776 194.669 245.703 194.841C245.63 195.008 245.594 195.187 245.594 195.38V196.568H249.016V195.38ZM254.25 194.153C254.057 194.153 253.875 194.19 253.703 194.263C253.536 194.336 253.391 194.435 253.266 194.56C253.141 194.685 253.042 194.833 252.969 195.005C252.896 195.172 252.859 195.351 252.859 195.544V201.239H251.898V193.239H252.219L252.742 194.052C252.961 193.755 253.234 193.521 253.562 193.349C253.896 193.172 254.258 193.083 254.648 193.083H255.211V194.153H254.25ZM260.5 201.239V200.278H263.172V190.997L260.5 192.122V191.161L263.172 190.036H264.18V200.278H266.852V201.239H260.5ZM269.023 203.482H268.617V200.036H269.82L269.023 203.482ZM278.305 190.841C278.055 190.841 277.82 190.888 277.602 190.982C277.388 191.075 277.201 191.203 277.039 191.364C276.878 191.526 276.75 191.716 276.656 191.935C276.562 192.148 276.516 192.38 276.516 192.63V193.083L275.508 192.919V192.63C275.508 192.25 275.578 191.893 275.719 191.56C275.865 191.226 276.062 190.935 276.312 190.685C276.562 190.435 276.854 190.239 277.188 190.099C277.521 189.953 277.878 189.88 278.258 189.88H278.734C279.115 189.88 279.471 189.948 279.805 190.083C280.143 190.219 280.438 190.414 280.688 190.669C280.938 190.924 281.133 191.232 281.273 191.591C281.419 191.945 281.492 192.346 281.492 192.794C281.492 193.237 281.424 193.682 281.289 194.13C281.159 194.578 280.984 195.018 280.766 195.45C280.552 195.883 280.305 196.302 280.023 196.708C279.747 197.114 279.464 197.497 279.172 197.857C278.49 198.695 277.716 199.502 276.852 200.278H281.57V201.239H275.266V200.443C276.24 199.64 277.109 198.81 277.875 197.95C278.203 197.581 278.523 197.187 278.836 196.771C279.148 196.354 279.427 195.927 279.672 195.489C279.917 195.047 280.112 194.599 280.258 194.146C280.409 193.687 280.484 193.237 280.484 192.794C280.484 192.466 280.435 192.179 280.336 191.935C280.237 191.69 280.104 191.487 279.938 191.325C279.771 191.164 279.578 191.044 279.359 190.966C279.146 190.883 278.922 190.841 278.688 190.841H278.305ZM289.633 198.646C289.633 199.026 289.56 199.383 289.414 199.716C289.273 200.049 289.078 200.341 288.828 200.591C288.578 200.841 288.286 201.039 287.953 201.185C287.62 201.325 287.263 201.396 286.883 201.396H286.406C286.026 201.396 285.667 201.325 285.328 201.185C284.995 201.039 284.703 200.841 284.453 200.591C284.203 200.341 284.005 200.049 283.859 199.716C283.719 199.383 283.648 199.026 283.648 198.646V192.63C283.648 192.25 283.719 191.893 283.859 191.56C284.005 191.226 284.203 190.935 284.453 190.685C284.703 190.435 284.995 190.239 285.328 190.099C285.667 189.953 286.026 189.88 286.406 189.88H286.883C287.263 189.88 287.62 189.953 287.953 190.099C288.286 190.239 288.578 190.435 288.828 190.685C289.078 190.935 289.273 191.226 289.414 191.56C289.56 191.893 289.633 192.25 289.633 192.63V198.646ZM288.625 192.63C288.625 192.38 288.578 192.148 288.484 191.935C288.391 191.716 288.263 191.526 288.102 191.364C287.94 191.203 287.75 191.075 287.531 190.982C287.318 190.888 287.086 190.841 286.836 190.841H286.453C286.203 190.841 285.969 190.888 285.75 190.982C285.536 191.075 285.346 191.203 285.18 191.364C285.018 191.526 284.891 191.716 284.797 191.935C284.703 192.148 284.656 192.38 284.656 192.63V198.646C284.656 198.896 284.703 199.13 284.797 199.349C284.891 199.562 285.018 199.752 285.18 199.919C285.346 200.081 285.536 200.208 285.75 200.302C285.969 200.396 286.203 200.443 286.453 200.443H286.836C287.086 200.443 287.318 200.396 287.531 200.302C287.75 200.208 287.94 200.081 288.102 199.919C288.263 199.752 288.391 199.562 288.484 199.349C288.578 199.13 288.625 198.896 288.625 198.646V192.63ZM294.445 190.841C294.195 190.841 293.961 190.888 293.742 190.982C293.529 191.075 293.341 191.203 293.18 191.364C293.018 191.526 292.891 191.716 292.797 191.935C292.703 192.148 292.656 192.38 292.656 192.63V193.083L291.648 192.919V192.63C291.648 192.25 291.719 191.893 291.859 191.56C292.005 191.226 292.203 190.935 292.453 190.685C292.703 190.435 292.995 190.239 293.328 190.099C293.661 189.953 294.018 189.88 294.398 189.88H294.875C295.255 189.88 295.612 189.948 295.945 190.083C296.284 190.219 296.578 190.414 296.828 190.669C297.078 190.924 297.273 191.232 297.414 191.591C297.56 191.945 297.633 192.346 297.633 192.794C297.633 193.237 297.565 193.682 297.43 194.13C297.299 194.578 297.125 195.018 296.906 195.45C296.693 195.883 296.445 196.302 296.164 196.708C295.888 197.114 295.604 197.497 295.312 197.857C294.63 198.695 293.857 199.502 292.992 200.278H297.711V201.239H291.406V200.443C292.38 199.64 293.25 198.81 294.016 197.95C294.344 197.581 294.664 197.187 294.977 196.771C295.289 196.354 295.568 195.927 295.812 195.489C296.057 195.047 296.253 194.599 296.398 194.146C296.549 193.687 296.625 193.237 296.625 192.794C296.625 192.466 296.576 192.179 296.477 191.935C296.378 191.69 296.245 191.487 296.078 191.325C295.911 191.164 295.719 191.044 295.5 190.966C295.286 190.883 295.062 190.841 294.828 190.841H294.445ZM299.953 201.239V200.278H302.625V190.997L299.953 192.122V191.161L302.625 190.036H303.633V200.278H306.305V201.239H299.953Z" fill="white"/>
<path d="M182.332 129.836L188.164 113.014M205.661 129.836L199.829 113.014M188.164 113.014L193.997 96.1911L199.829 113.014M188.164 113.014H199.829" stroke="white" stroke-width="4"/>
<path d="M215.417 112.202C215.417 124.15 205.914 133.821 194.209 133.821C182.504 133.821 173 124.15 173 112.202C173 100.254 182.504 90.5836 194.209 90.5836C205.914 90.5836 215.417 100.254 215.417 112.202Z" stroke="white" stroke-width="4"/>
<path d="M170.602 158.054H165.836L164.766 161.023H163.219L167.562 149.648H168.875L173.227 161.023H171.688L170.602 158.054ZM166.289 156.82H170.156L168.219 151.5L166.289 156.82ZM178.617 153.867C178.398 153.83 178.161 153.812 177.906 153.812C176.958 153.812 176.315 154.216 175.977 155.023V161.023H174.531V152.57H175.938L175.961 153.547C176.435 152.791 177.107 152.414 177.977 152.414C178.258 152.414 178.471 152.45 178.617 152.523V153.867ZM187.109 156.89C187.109 158.182 186.812 159.221 186.219 160.008C185.625 160.789 184.828 161.179 183.828 161.179C182.76 161.179 181.935 160.802 181.352 160.047L181.281 161.023H179.953V149.023H181.398V153.5C181.982 152.776 182.786 152.414 183.812 152.414C184.839 152.414 185.643 152.802 186.227 153.578C186.815 154.354 187.109 155.416 187.109 156.765V156.89ZM185.664 156.726C185.664 155.742 185.474 154.981 185.094 154.445C184.714 153.909 184.167 153.64 183.453 153.64C182.5 153.64 181.815 154.083 181.398 154.968V158.625C181.841 159.51 182.531 159.953 183.469 159.953C184.161 159.953 184.701 159.685 185.086 159.148C185.471 158.612 185.664 157.804 185.664 156.726ZM192.516 155.953C191.229 155.583 190.292 155.13 189.703 154.593C189.12 154.052 188.828 153.385 188.828 152.593C188.828 151.698 189.185 150.958 189.898 150.375C190.617 149.786 191.549 149.492 192.695 149.492C193.477 149.492 194.172 149.643 194.781 149.945C195.396 150.247 195.87 150.664 196.203 151.195C196.542 151.726 196.711 152.307 196.711 152.937H195.203C195.203 152.25 194.984 151.711 194.547 151.32C194.109 150.924 193.492 150.726 192.695 150.726C191.956 150.726 191.378 150.89 190.961 151.218C190.549 151.541 190.344 151.992 190.344 152.57C190.344 153.034 190.539 153.427 190.93 153.75C191.326 154.067 191.995 154.359 192.938 154.625C193.885 154.89 194.625 155.185 195.156 155.508C195.693 155.825 196.089 156.198 196.344 156.625C196.604 157.052 196.734 157.554 196.734 158.133C196.734 159.054 196.375 159.794 195.656 160.351C194.938 160.903 193.977 161.179 192.773 161.179C191.992 161.179 191.263 161.031 190.586 160.734C189.909 160.432 189.385 160.021 189.016 159.5C188.651 158.979 188.469 158.388 188.469 157.726H189.977C189.977 158.414 190.229 158.958 190.734 159.359C191.245 159.755 191.924 159.953 192.773 159.953C193.565 159.953 194.172 159.791 194.594 159.468C195.016 159.146 195.227 158.705 195.227 158.148C195.227 157.591 195.031 157.161 194.641 156.859C194.25 156.552 193.542 156.25 192.516 155.953ZM200.398 150.523V152.57H201.977V153.687H200.398V158.929C200.398 159.268 200.469 159.523 200.609 159.695C200.75 159.862 200.99 159.945 201.328 159.945C201.495 159.945 201.724 159.914 202.016 159.851V161.023C201.635 161.127 201.266 161.179 200.906 161.179C200.26 161.179 199.773 160.984 199.445 160.593C199.117 160.203 198.953 159.648 198.953 158.929V153.687H197.414V152.57H198.953V150.523H200.398ZM203.133 156.718C203.133 155.89 203.294 155.146 203.617 154.484C203.945 153.823 204.398 153.312 204.977 152.953C205.56 152.593 206.224 152.414 206.969 152.414C208.12 152.414 209.049 152.812 209.758 153.609C210.471 154.406 210.828 155.466 210.828 156.789V156.89C210.828 157.713 210.669 158.453 210.352 159.109C210.039 159.76 209.589 160.268 209 160.633C208.417 160.997 207.745 161.179 206.984 161.179C205.839 161.179 204.909 160.781 204.195 159.984C203.487 159.187 203.133 158.133 203.133 156.82V156.718ZM204.586 156.89C204.586 157.828 204.802 158.58 205.234 159.148C205.672 159.716 206.255 160 206.984 160C207.719 160 208.302 159.713 208.734 159.14C209.167 158.562 209.383 157.755 209.383 156.718C209.383 155.791 209.161 155.041 208.719 154.468C208.281 153.89 207.698 153.601 206.969 153.601C206.255 153.601 205.68 153.885 205.242 154.453C204.805 155.021 204.586 155.833 204.586 156.89ZM216.727 153.867C216.508 153.83 216.271 153.812 216.016 153.812C215.068 153.812 214.424 154.216 214.086 155.023V161.023H212.641V152.57H214.047L214.07 153.547C214.544 152.791 215.216 152.414 216.086 152.414C216.367 152.414 216.581 152.45 216.727 152.523V153.867ZM221.414 161.179C220.268 161.179 219.336 160.804 218.617 160.054C217.898 159.299 217.539 158.291 217.539 157.031V156.765C217.539 155.927 217.698 155.179 218.016 154.523C218.339 153.862 218.786 153.346 219.359 152.976C219.938 152.601 220.562 152.414 221.234 152.414C222.333 152.414 223.188 152.776 223.797 153.5C224.406 154.224 224.711 155.26 224.711 156.609V157.211H218.984C219.005 158.044 219.247 158.718 219.711 159.234C220.18 159.744 220.773 160 221.492 160C222.003 160 222.435 159.896 222.789 159.687C223.143 159.479 223.453 159.203 223.719 158.859L224.602 159.547C223.893 160.635 222.831 161.179 221.414 161.179ZM221.234 153.601C220.651 153.601 220.161 153.815 219.766 154.242C219.37 154.664 219.125 155.258 219.031 156.023H223.266V155.914C223.224 155.179 223.026 154.612 222.672 154.211C222.318 153.804 221.839 153.601 221.234 153.601Z" fill="white"/>
</svg>
