<svg width="877" height="667" viewBox="0 0 877 667" fill="none" xmlns="http://www.w3.org/2000/svg">
<rect x="168" y="237.441" width="579" height="347" fill="black"/>
<rect x="171.5" y="240.941" width="572" height="340" stroke="white" stroke-opacity="0.5" stroke-width="7"/>
<rect x="151" y="201.441" width="612" height="368" fill="black"/>
<rect x="154.5" y="204.941" width="605" height="361" stroke="white" stroke-opacity="0.75" stroke-width="7"/>
<rect x="132.5" y="160.941" width="649" height="387" fill="black" stroke="white" stroke-width="7"/>
<path d="M802.5 67.4413C802.5 84.286 788.845 97.9413 772 97.9413C755.155 97.9413 741.5 84.286 741.5 67.4413C741.5 50.5966 755.155 36.9413 772 36.9413C788.845 36.9413 802.5 50.5966 802.5 67.4413Z" stroke="white" stroke-width="5"/>
<path d="M822.966 17.4954C818.989 25.3008 822.092 34.8524 829.897 38.8294C837.703 42.8065 847.254 39.703 851.231 31.8976C855.209 24.0922 852.105 14.5406 844.3 10.5636C836.494 6.58653 826.943 9.69002 822.966 17.4954Z" stroke="white" stroke-width="5"/>
<path d="M101.531 610.021C105.27 617.943 114.724 621.333 122.646 617.594C130.567 613.854 133.958 604.401 130.218 596.479C126.479 588.557 117.025 585.167 109.103 588.906C101.181 592.646 97.791 602.099 101.531 610.021Z" stroke="white" stroke-width="5"/>
<path d="M810.547 144.763C801.065 138.704 795.221 130.909 797.494 127.354C799.766 123.798 809.294 125.828 818.775 131.888C828.257 137.947 834.101 145.742 831.828 149.297C829.556 152.853 820.028 150.823 810.547 144.763Z" fill="white"/>
<path d="M810.002 107.783C807.729 111.338 813.573 119.133 823.054 125.193C832.536 131.252 842.064 133.282 844.336 129.727M810.002 107.783C812.274 104.227 821.802 106.257 831.283 112.317C840.765 118.377 846.609 126.171 844.336 129.727M810.002 107.783L797.494 127.354M844.336 129.727L831.828 149.297M797.494 127.354C795.221 130.909 801.065 138.704 810.547 144.763C820.028 150.823 829.556 152.853 831.828 149.297M797.494 127.354C799.766 123.798 809.294 125.828 818.775 131.888C828.257 137.947 834.101 145.742 831.828 149.297" stroke="white" stroke-width="5"/>
<path d="M84.1735 104.161C87.4462 105.687 89.7442 110.356 89.7266 118.2C89.7095 125.813 87.4579 135.487 82.8643 145.338C78.2707 155.189 72.3077 163.132 66.4862 168.039C60.4888 173.094 55.4355 174.335 52.1628 172.808C48.8901 171.282 46.592 166.614 46.6096 158.77C46.6267 151.156 48.8783 141.483 53.4719 131.632C58.0656 121.781 64.0285 113.838 69.8501 108.931C75.8474 103.876 80.9007 102.635 84.1735 104.161Z" stroke="white" stroke-width="5"/>
<path d="M51.6711 173.863C42.0313 169.368 34.4114 161.572 30.6887 151.758C26.9661 141.945 27.3328 131.161 31.708 121.778C36.0833 112.396 44.1087 105.183 54.0189 101.727C63.9291 98.2706 75.0251 98.612 84.665 103.107" stroke="white" stroke-width="5"/>
<path d="M84.6648 103.107C75.025 98.612 63.9289 98.2706 54.0188 101.727C44.1086 105.183 36.0831 112.396 31.7079 121.778C28.3181 129.048 33.8642 148.744 45.7536 154.288" stroke="white" stroke-width="5"/>
<path d="M797.22 645.182C797.565 646.726 796.6 649.216 792.884 652.065C789.35 654.774 784 657.226 777.664 658.644C771.328 660.061 765.442 660.122 761.091 659.176C756.516 658.182 754.581 656.341 754.236 654.797C753.891 653.253 754.856 650.763 758.572 647.914C762.106 645.204 767.456 642.752 773.792 641.335C780.128 639.917 786.014 639.856 790.365 640.802C794.94 641.797 796.875 643.638 797.22 645.182Z" stroke="white" stroke-width="5"/>
<path d="M752.589 655.165C751.178 648.86 752.105 642.303 755.447 636.874C758.789 631.445 764.115 627.624 770.252 626.251C776.389 624.879 782.835 626.067 788.171 629.555C793.508 633.042 797.457 638.508 798.867 644.813" stroke="white" stroke-width="5"/>
<path d="M798.867 644.813C797.457 638.508 793.508 633.042 788.171 629.555C782.834 626.067 776.389 624.879 770.252 626.251C765.497 627.315 758.075 637.285 759.814 645.062" stroke="white" stroke-width="5"/>
<path d="M805.148 600.184C804.815 599.596 804.662 598.652 805.123 597.151C805.586 595.643 806.608 593.81 808.238 591.773C811.489 587.711 816.828 583.248 823.517 579.459C830.207 575.669 836.779 573.384 841.935 572.684C844.52 572.333 846.618 572.399 848.149 572.778C849.673 573.154 850.405 573.771 850.738 574.359C851.071 574.947 851.224 575.891 850.763 577.392C850.3 578.9 849.278 580.733 847.648 582.77C844.398 586.833 839.058 591.295 832.369 595.084C825.679 598.874 819.107 601.159 813.951 601.859C811.366 602.21 809.268 602.144 807.737 601.766C806.213 601.389 805.482 600.773 805.148 600.184Z" fill="white" stroke="white" stroke-width="5"/>
<path d="M804.395 601.931L822.401 612.4C835.672 620.117 852.329 610.624 852.454 595.274L852.623 574.61" stroke="white" stroke-width="5"/>
<path d="M36.0288 576.054L46.8978 604.465L76.148 612.816L65.279 584.405L36.0288 576.054Z" fill="white" stroke="white" stroke-width="5"/>
<path d="M15.2005 598.784L26.0694 627.195L55.3196 635.547L44.4507 607.136L15.2005 598.784Z" stroke="white" stroke-width="5"/>
<line y1="-2.5" x2="30.83" y2="-2.5" transform="matrix(0.675591 -0.737278 -0.737278 -0.675591 58.2321 638.216)" stroke="white" stroke-width="5"/>
<line y1="-2.5" x2="30.83" y2="-2.5" transform="matrix(0.67559 -0.737278 -0.737278 -0.67559 11.079 595.008)" stroke="white" stroke-width="5"/>
<path d="M51.0328 68.7651L69.3678 59.9982L87.0325 70.0476L68.6975 78.8145L51.0328 68.7651Z" fill="white" stroke="white" stroke-width="5"/>
<path d="M51.8516 45.7778L70.1867 37.0109L87.8514 47.0603L69.5163 55.8272L51.8516 45.7778Z" stroke="white" stroke-width="5"/>
<line x1="94.5737" y1="47.2999" x2="93.7548" y2="70.2872" stroke="white" stroke-width="5"/>
<line x1="48.9565" y1="45.6747" x2="48.1376" y2="68.662" stroke="white" stroke-width="5"/>
<path d="M124.71 92.0121L135.569 78.1675L152.564 73.6077L141.704 87.4523L124.71 92.0121Z" fill="white" stroke="white" stroke-width="5"/>
<path d="M158.566 69.8384L115.313 47.5103L119.025 95.9648" stroke="white" stroke-width="5"/>
<line x1="116.715" y1="46.5828" x2="136.243" y2="76.1372" stroke="white" stroke-width="5"/>
<path d="M194.555 464.516C194.555 465.466 194.359 466.358 193.969 467.191C193.591 468.025 193.077 468.754 192.426 469.379C191.788 470.004 191.039 470.499 190.18 470.863C189.333 471.215 188.435 471.391 187.484 471.391H185.473C184.522 471.391 183.617 471.215 182.758 470.863C181.911 470.499 181.163 470.004 180.512 469.379C179.874 468.754 179.359 468.025 178.969 467.191C178.591 466.358 178.402 465.466 178.402 464.516V463.402L180.922 462.992V464.516C180.922 465.141 181.046 465.727 181.293 466.273C181.553 466.807 181.898 467.283 182.328 467.699C182.758 468.103 183.253 468.422 183.812 468.656C184.385 468.891 184.984 469.008 185.609 469.008H187.367C187.992 469.008 188.585 468.891 189.145 468.656C189.704 468.422 190.199 468.103 190.629 467.699C191.059 467.283 191.397 466.807 191.645 466.273C191.905 465.727 192.035 465.141 192.035 464.516V463.676C192.035 462.712 191.846 461.911 191.469 461.273C191.091 460.635 190.59 460.095 189.965 459.652C189.34 459.197 188.63 458.812 187.836 458.5C187.055 458.188 186.247 457.875 185.414 457.562C184.581 457.25 183.767 456.905 182.973 456.527C182.191 456.15 181.488 455.681 180.863 455.121C180.238 454.548 179.737 453.852 179.359 453.031C178.982 452.211 178.793 451.202 178.793 450.004V449.477C178.793 448.526 178.969 447.634 179.32 446.801C179.685 445.967 180.18 445.238 180.805 444.613C181.43 443.988 182.159 443.5 182.992 443.148C183.839 442.784 184.737 442.602 185.688 442.602H187.484C188.435 442.602 189.327 442.784 190.16 443.148C190.993 443.5 191.723 443.988 192.348 444.613C192.973 445.238 193.461 445.967 193.812 446.801C194.177 447.634 194.359 448.526 194.359 449.477V450.199L191.84 450.609V449.477C191.84 448.852 191.723 448.272 191.488 447.738C191.254 447.191 190.935 446.716 190.531 446.312C190.128 445.909 189.652 445.59 189.105 445.355C188.572 445.121 187.992 445.004 187.367 445.004H185.805C185.18 445.004 184.594 445.121 184.047 445.355C183.513 445.59 183.038 445.909 182.621 446.312C182.217 446.716 181.898 447.191 181.664 447.738C181.43 448.272 181.312 448.852 181.312 449.477V450.004C181.312 450.902 181.501 451.658 181.879 452.27C182.257 452.882 182.758 453.409 183.383 453.852C184.008 454.281 184.711 454.659 185.492 454.984C186.286 455.297 187.1 455.622 187.934 455.961C188.767 456.286 189.574 456.651 190.355 457.055C191.15 457.445 191.859 457.934 192.484 458.52C193.109 459.092 193.611 459.796 193.988 460.629C194.366 461.462 194.555 462.478 194.555 463.676V464.516ZM212.543 465.512C212.543 466.319 212.387 467.081 212.074 467.797C211.775 468.513 211.358 469.138 210.824 469.672C210.29 470.206 209.665 470.629 208.949 470.941C208.233 471.241 207.471 471.391 206.664 471.391H205.062C204.255 471.391 203.493 471.241 202.777 470.941C202.061 470.629 201.436 470.206 200.902 469.672C200.368 469.138 199.945 468.513 199.633 467.797C199.333 467.081 199.184 466.319 199.184 465.512V456.488C199.184 455.681 199.333 454.919 199.633 454.203C199.945 453.487 200.368 452.862 200.902 452.328C201.436 451.794 202.061 451.378 202.777 451.078C203.493 450.766 204.255 450.609 205.062 450.609H206.664C207.471 450.609 208.233 450.766 208.949 451.078C209.665 451.378 210.29 451.794 210.824 452.328C211.358 452.862 211.775 453.487 212.074 454.203C212.387 454.919 212.543 455.681 212.543 456.488V461.195H201.586V465.648C201.586 466.13 201.677 466.586 201.859 467.016C202.042 467.432 202.289 467.797 202.602 468.109C202.914 468.422 203.279 468.669 203.695 468.852C204.125 469.034 204.581 469.125 205.062 469.125H206.664C207.146 469.125 207.595 469.034 208.012 468.852C208.441 468.669 208.812 468.422 209.125 468.109C209.438 467.797 209.685 467.432 209.867 467.016C210.049 466.586 210.141 466.13 210.141 465.648V464.32L212.543 464.711V465.512ZM210.141 456.352C210.141 455.87 210.049 455.421 209.867 455.004C209.685 454.574 209.438 454.203 209.125 453.891C208.812 453.578 208.441 453.331 208.012 453.148C207.595 452.966 207.146 452.875 206.664 452.875H205.062C204.581 452.875 204.125 452.966 203.695 453.148C203.279 453.331 202.914 453.578 202.602 453.891C202.289 454.203 202.042 454.574 201.859 455.004C201.677 455.421 201.586 455.87 201.586 456.352V459.32H210.141V456.352ZM223.227 453.285C222.745 453.285 222.289 453.376 221.859 453.559C221.443 453.741 221.078 453.988 220.766 454.301C220.453 454.613 220.206 454.984 220.023 455.414C219.841 455.831 219.75 456.28 219.75 456.762V471H217.348V451H218.148L219.457 453.031C220.004 452.289 220.688 451.703 221.508 451.273C222.341 450.831 223.246 450.609 224.223 450.609H225.629V453.285H223.227ZM235.102 471H233.91L226.82 451H229.223L234.438 466.156L234.516 467.191L234.594 466.156L239.789 451H242.191L235.102 471ZM245.609 446.195V442.992H248.402V446.195H245.609ZM245.805 471V451H248.207V471H245.805ZM267.191 465.512C267.191 466.319 267.035 467.081 266.723 467.797C266.423 468.513 266.007 469.138 265.473 469.672C264.939 470.206 264.314 470.629 263.598 470.941C262.882 471.241 262.12 471.391 261.312 471.391H259.711C258.904 471.391 258.142 471.241 257.426 470.941C256.71 470.629 256.085 470.206 255.551 469.672C255.017 469.138 254.594 468.513 254.281 467.797C253.982 467.081 253.832 466.319 253.832 465.512V456.488C253.832 455.681 253.982 454.919 254.281 454.203C254.594 453.487 255.017 452.862 255.551 452.328C256.085 451.794 256.71 451.378 257.426 451.078C258.142 450.766 258.904 450.609 259.711 450.609H261.312C262.12 450.609 262.882 450.766 263.598 451.078C264.314 451.378 264.939 451.794 265.473 452.328C266.007 452.862 266.423 453.487 266.723 454.203C267.035 454.919 267.191 455.681 267.191 456.488V457.289L264.789 457.68V456.352C264.789 455.87 264.698 455.421 264.516 455.004C264.333 454.574 264.086 454.203 263.773 453.891C263.461 453.578 263.09 453.331 262.66 453.148C262.243 452.966 261.794 452.875 261.312 452.875H259.711C259.229 452.875 258.773 452.966 258.344 453.148C257.927 453.331 257.562 453.578 257.25 453.891C256.938 454.203 256.69 454.574 256.508 455.004C256.326 455.421 256.234 455.87 256.234 456.352V465.648C256.234 466.13 256.326 466.586 256.508 467.016C256.69 467.432 256.938 467.797 257.25 468.109C257.562 468.422 257.927 468.669 258.344 468.852C258.773 469.034 259.229 469.125 259.711 469.125H261.312C261.794 469.125 262.243 469.034 262.66 468.852C263.09 468.669 263.461 468.422 263.773 468.109C264.086 467.797 264.333 467.432 264.516 467.016C264.698 466.586 264.789 466.13 264.789 465.648V464.32L267.191 464.711V465.512ZM285.355 465.512C285.355 466.319 285.199 467.081 284.887 467.797C284.587 468.513 284.171 469.138 283.637 469.672C283.103 470.206 282.478 470.629 281.762 470.941C281.046 471.241 280.284 471.391 279.477 471.391H277.875C277.068 471.391 276.306 471.241 275.59 470.941C274.874 470.629 274.249 470.206 273.715 469.672C273.181 469.138 272.758 468.513 272.445 467.797C272.146 467.081 271.996 466.319 271.996 465.512V456.488C271.996 455.681 272.146 454.919 272.445 454.203C272.758 453.487 273.181 452.862 273.715 452.328C274.249 451.794 274.874 451.378 275.59 451.078C276.306 450.766 277.068 450.609 277.875 450.609H279.477C280.284 450.609 281.046 450.766 281.762 451.078C282.478 451.378 283.103 451.794 283.637 452.328C284.171 452.862 284.587 453.487 284.887 454.203C285.199 454.919 285.355 455.681 285.355 456.488V461.195H274.398V465.648C274.398 466.13 274.49 466.586 274.672 467.016C274.854 467.432 275.102 467.797 275.414 468.109C275.727 468.422 276.091 468.669 276.508 468.852C276.938 469.034 277.393 469.125 277.875 469.125H279.477C279.958 469.125 280.408 469.034 280.824 468.852C281.254 468.669 281.625 468.422 281.938 468.109C282.25 467.797 282.497 467.432 282.68 467.016C282.862 466.586 282.953 466.13 282.953 465.648V464.32L285.355 464.711V465.512ZM282.953 456.352C282.953 455.87 282.862 455.421 282.68 455.004C282.497 454.574 282.25 454.203 281.938 453.891C281.625 453.578 281.254 453.331 280.824 453.148C280.408 452.966 279.958 452.875 279.477 452.875H277.875C277.393 452.875 276.938 452.966 276.508 453.148C276.091 453.331 275.727 453.578 275.414 453.891C275.102 454.203 274.854 454.574 274.672 455.004C274.49 455.421 274.398 455.87 274.398 456.352V459.32H282.953V456.352ZM299.77 471V442.992H302.289V468.598H313.012V471H299.77ZM328.773 471L327.445 469.008C326.898 469.724 326.215 470.303 325.395 470.746C324.574 471.176 323.676 471.391 322.699 471.391H322.094C321.286 471.391 320.525 471.241 319.809 470.941C319.092 470.629 318.467 470.206 317.934 469.672C317.4 469.138 316.977 468.513 316.664 467.797C316.365 467.081 316.215 466.319 316.215 465.512V465.316C316.215 464.509 316.365 463.747 316.664 463.031C316.977 462.315 317.4 461.69 317.934 461.156C318.467 460.622 319.092 460.206 319.809 459.906C320.525 459.594 321.286 459.438 322.094 459.438H327.172V456.352C327.172 455.87 327.081 455.421 326.898 455.004C326.716 454.574 326.469 454.203 326.156 453.891C325.844 453.578 325.473 453.331 325.043 453.148C324.626 452.966 324.177 452.875 323.695 452.875H322.289C321.807 452.875 321.352 452.966 320.922 453.148C320.505 453.331 320.141 453.578 319.828 453.891C319.516 454.203 319.268 454.574 319.086 455.004C318.904 455.421 318.812 455.87 318.812 456.352V457.074L316.41 456.684V456.488C316.41 455.681 316.56 454.919 316.859 454.203C317.172 453.487 317.595 452.862 318.129 452.328C318.663 451.794 319.288 451.378 320.004 451.078C320.72 450.766 321.482 450.609 322.289 450.609H323.695C324.503 450.609 325.264 450.766 325.98 451.078C326.697 451.378 327.322 451.794 327.855 452.328C328.389 452.862 328.806 453.487 329.105 454.203C329.418 454.919 329.574 455.681 329.574 456.488V471H328.773ZM327.172 461.312H322.094C321.612 461.312 321.156 461.404 320.727 461.586C320.31 461.768 319.945 462.022 319.633 462.348C319.32 462.66 319.073 463.031 318.891 463.461C318.708 463.878 318.617 464.327 318.617 464.809V465.648C318.617 466.13 318.708 466.586 318.891 467.016C319.073 467.432 319.32 467.797 319.633 468.109C319.945 468.422 320.31 468.669 320.727 468.852C321.156 469.034 321.612 469.125 322.094 469.125H323.695C324.177 469.125 324.626 469.034 325.043 468.852C325.473 468.669 325.844 468.422 326.156 468.109C326.469 467.797 326.716 467.432 326.898 467.016C327.081 466.586 327.172 466.13 327.172 465.648V461.312ZM346.938 471L345.609 468.969C345.062 469.711 344.379 470.303 343.559 470.746C342.738 471.176 341.84 471.391 340.863 471.391H340.258C339.451 471.391 338.689 471.241 337.973 470.941C337.257 470.629 336.632 470.206 336.098 469.672C335.564 469.138 335.141 468.513 334.828 467.797C334.529 467.081 334.379 466.319 334.379 465.512V451H336.781V465.648C336.781 466.13 336.872 466.586 337.055 467.016C337.237 467.432 337.484 467.797 337.797 468.109C338.109 468.422 338.474 468.669 338.891 468.852C339.32 469.034 339.776 469.125 340.258 469.125H341.859C342.341 469.125 342.79 469.034 343.207 468.852C343.637 468.669 344.008 468.422 344.32 468.109C344.633 467.797 344.88 467.432 345.062 467.016C345.245 466.586 345.336 466.13 345.336 465.648V451H347.738V471H346.938ZM363.5 471V456.352C363.5 455.87 363.409 455.421 363.227 455.004C363.044 454.574 362.797 454.203 362.484 453.891C362.172 453.578 361.801 453.331 361.371 453.148C360.954 452.966 360.505 452.875 360.023 452.875H358.422C357.94 452.875 357.484 452.966 357.055 453.148C356.638 453.331 356.273 453.578 355.961 453.891C355.648 454.203 355.401 454.574 355.219 455.004C355.036 455.421 354.945 455.87 354.945 456.352V471H352.543V451H353.344L354.652 453.031C355.199 452.289 355.883 451.703 356.703 451.273C357.536 450.831 358.441 450.609 359.418 450.609H360.023C360.831 450.609 361.592 450.766 362.309 451.078C363.025 451.378 363.65 451.794 364.184 452.328C364.717 452.862 365.134 453.487 365.434 454.203C365.746 454.919 365.902 455.681 365.902 456.488V471H363.5ZM384.066 465.512C384.066 466.319 383.91 467.081 383.598 467.797C383.298 468.513 382.882 469.138 382.348 469.672C381.814 470.206 381.189 470.629 380.473 470.941C379.757 471.241 378.995 471.391 378.188 471.391H376.586C375.779 471.391 375.017 471.241 374.301 470.941C373.585 470.629 372.96 470.206 372.426 469.672C371.892 469.138 371.469 468.513 371.156 467.797C370.857 467.081 370.707 466.319 370.707 465.512V456.488C370.707 455.681 370.857 454.919 371.156 454.203C371.469 453.487 371.892 452.862 372.426 452.328C372.96 451.794 373.585 451.378 374.301 451.078C375.017 450.766 375.779 450.609 376.586 450.609H378.188C378.995 450.609 379.757 450.766 380.473 451.078C381.189 451.378 381.814 451.794 382.348 452.328C382.882 452.862 383.298 453.487 383.598 454.203C383.91 454.919 384.066 455.681 384.066 456.488V457.289L381.664 457.68V456.352C381.664 455.87 381.573 455.421 381.391 455.004C381.208 454.574 380.961 454.203 380.648 453.891C380.336 453.578 379.965 453.331 379.535 453.148C379.118 452.966 378.669 452.875 378.188 452.875H376.586C376.104 452.875 375.648 452.966 375.219 453.148C374.802 453.331 374.438 453.578 374.125 453.891C373.812 454.203 373.565 454.574 373.383 455.004C373.201 455.421 373.109 455.87 373.109 456.352V465.648C373.109 466.13 373.201 466.586 373.383 467.016C373.565 467.432 373.812 467.797 374.125 468.109C374.438 468.422 374.802 468.669 375.219 468.852C375.648 469.034 376.104 469.125 376.586 469.125H378.188C378.669 469.125 379.118 469.034 379.535 468.852C379.965 468.669 380.336 468.422 380.648 468.109C380.961 467.797 381.208 467.432 381.391 467.016C381.573 466.586 381.664 466.13 381.664 465.648V464.32L384.066 464.711V465.512ZM399.828 471V456.352C399.828 455.87 399.737 455.421 399.555 455.004C399.372 454.574 399.125 454.203 398.812 453.891C398.5 453.578 398.129 453.331 397.699 453.148C397.283 452.966 396.833 452.875 396.352 452.875H394.75C394.268 452.875 393.812 452.966 393.383 453.148C392.966 453.331 392.602 453.578 392.289 453.891C391.977 454.203 391.729 454.574 391.547 455.004C391.365 455.421 391.273 455.87 391.273 456.352V471H388.871V442.992H391.273V452.68C391.82 452.029 392.478 451.521 393.246 451.156C394.014 450.792 394.848 450.609 395.746 450.609H396.352C397.159 450.609 397.921 450.766 398.637 451.078C399.353 451.378 399.978 451.794 400.512 452.328C401.046 452.862 401.462 453.487 401.762 454.203C402.074 454.919 402.23 455.681 402.23 456.488V471H399.828ZM429.613 465.512C429.613 466.319 429.457 467.081 429.145 467.797C428.845 468.513 428.428 469.138 427.895 469.672C427.361 470.206 426.736 470.629 426.02 470.941C425.303 471.241 424.542 471.391 423.734 471.391H422.133C421.326 471.391 420.564 471.241 419.848 470.941C419.132 470.629 418.507 470.206 417.973 469.672C417.439 469.138 417.016 468.513 416.703 467.797C416.404 467.081 416.254 466.319 416.254 465.512V456.488C416.254 455.681 416.404 454.919 416.703 454.203C417.016 453.487 417.439 452.862 417.973 452.328C418.507 451.794 419.132 451.378 419.848 451.078C420.564 450.766 421.326 450.609 422.133 450.609H423.734C424.542 450.609 425.303 450.766 426.02 451.078C426.736 451.378 427.361 451.794 427.895 452.328C428.428 452.862 428.845 453.487 429.145 454.203C429.457 454.919 429.613 455.681 429.613 456.488V465.512ZM427.211 456.352C427.211 455.87 427.12 455.421 426.938 455.004C426.755 454.574 426.508 454.203 426.195 453.891C425.883 453.578 425.512 453.331 425.082 453.148C424.665 452.966 424.216 452.875 423.734 452.875H422.133C421.651 452.875 421.195 452.966 420.766 453.148C420.349 453.331 419.984 453.578 419.672 453.891C419.359 454.203 419.112 454.574 418.93 455.004C418.747 455.421 418.656 455.87 418.656 456.352V465.648C418.656 466.13 418.747 466.586 418.93 467.016C419.112 467.432 419.359 467.797 419.672 468.109C419.984 468.422 420.349 468.669 420.766 468.852C421.195 469.034 421.651 469.125 422.133 469.125H423.734C424.216 469.125 424.665 469.034 425.082 468.852C425.512 468.669 425.883 468.422 426.195 468.109C426.508 467.797 426.755 467.432 426.938 467.016C427.12 466.586 427.211 466.13 427.211 465.648V456.352ZM445.375 471V456.352C445.375 455.87 445.284 455.421 445.102 455.004C444.919 454.574 444.672 454.203 444.359 453.891C444.047 453.578 443.676 453.331 443.246 453.148C442.829 452.966 442.38 452.875 441.898 452.875H440.297C439.815 452.875 439.359 452.966 438.93 453.148C438.513 453.331 438.148 453.578 437.836 453.891C437.523 454.203 437.276 454.574 437.094 455.004C436.911 455.421 436.82 455.87 436.82 456.352V471H434.418V451H435.219L436.527 453.031C437.074 452.289 437.758 451.703 438.578 451.273C439.411 450.831 440.316 450.609 441.293 450.609H441.898C442.706 450.609 443.467 450.766 444.184 451.078C444.9 451.378 445.525 451.794 446.059 452.328C446.592 452.862 447.009 453.487 447.309 454.203C447.621 454.919 447.777 455.681 447.777 456.488V471H445.375ZM477.035 471L465.355 450.609L465.121 449.398V471H462.602V442.992H463.91L475.59 463.402L475.844 464.594V442.992H478.363V471H477.035ZM496.957 465.512C496.957 466.319 496.801 467.081 496.488 467.797C496.189 468.513 495.772 469.138 495.238 469.672C494.704 470.206 494.079 470.629 493.363 470.941C492.647 471.241 491.885 471.391 491.078 471.391H489.477C488.669 471.391 487.908 471.241 487.191 470.941C486.475 470.629 485.85 470.206 485.316 469.672C484.783 469.138 484.359 468.513 484.047 467.797C483.747 467.081 483.598 466.319 483.598 465.512V456.488C483.598 455.681 483.747 454.919 484.047 454.203C484.359 453.487 484.783 452.862 485.316 452.328C485.85 451.794 486.475 451.378 487.191 451.078C487.908 450.766 488.669 450.609 489.477 450.609H491.078C491.885 450.609 492.647 450.766 493.363 451.078C494.079 451.378 494.704 451.794 495.238 452.328C495.772 452.862 496.189 453.487 496.488 454.203C496.801 454.919 496.957 455.681 496.957 456.488V465.512ZM494.555 456.352C494.555 455.87 494.464 455.421 494.281 455.004C494.099 454.574 493.852 454.203 493.539 453.891C493.227 453.578 492.855 453.331 492.426 453.148C492.009 452.966 491.56 452.875 491.078 452.875H489.477C488.995 452.875 488.539 452.966 488.109 453.148C487.693 453.331 487.328 453.578 487.016 453.891C486.703 454.203 486.456 454.574 486.273 455.004C486.091 455.421 486 455.87 486 456.352V465.648C486 466.13 486.091 466.586 486.273 467.016C486.456 467.432 486.703 467.797 487.016 468.109C487.328 468.422 487.693 468.669 488.109 468.852C488.539 469.034 488.995 469.125 489.477 469.125H491.078C491.56 469.125 492.009 469.034 492.426 468.852C492.855 468.669 493.227 468.422 493.539 468.109C493.852 467.797 494.099 467.432 494.281 467.016C494.464 466.586 494.555 466.13 494.555 465.648V456.352ZM508.031 471H506.84L499.75 451H502.152L507.367 466.156L507.445 467.191L507.523 466.156L512.719 451H515.121L508.031 471ZM531.293 465.512C531.293 466.319 531.137 467.081 530.824 467.797C530.525 468.513 530.108 469.138 529.574 469.672C529.04 470.206 528.415 470.629 527.699 470.941C526.983 471.241 526.221 471.391 525.414 471.391H523.812C523.005 471.391 522.243 471.241 521.527 470.941C520.811 470.629 520.186 470.206 519.652 469.672C519.118 469.138 518.695 468.513 518.383 467.797C518.083 467.081 517.934 466.319 517.934 465.512V456.488C517.934 455.681 518.083 454.919 518.383 454.203C518.695 453.487 519.118 452.862 519.652 452.328C520.186 451.794 520.811 451.378 521.527 451.078C522.243 450.766 523.005 450.609 523.812 450.609H525.414C526.221 450.609 526.983 450.766 527.699 451.078C528.415 451.378 529.04 451.794 529.574 452.328C530.108 452.862 530.525 453.487 530.824 454.203C531.137 454.919 531.293 455.681 531.293 456.488V461.195H520.336V465.648C520.336 466.13 520.427 466.586 520.609 467.016C520.792 467.432 521.039 467.797 521.352 468.109C521.664 468.422 522.029 468.669 522.445 468.852C522.875 469.034 523.331 469.125 523.812 469.125H525.414C525.896 469.125 526.345 469.034 526.762 468.852C527.191 468.669 527.562 468.422 527.875 468.109C528.188 467.797 528.435 467.432 528.617 467.016C528.799 466.586 528.891 466.13 528.891 465.648V464.32L531.293 464.711V465.512ZM528.891 456.352C528.891 455.87 528.799 455.421 528.617 455.004C528.435 454.574 528.188 454.203 527.875 453.891C527.562 453.578 527.191 453.331 526.762 453.148C526.345 452.966 525.896 452.875 525.414 452.875H523.812C523.331 452.875 522.875 452.966 522.445 453.148C522.029 453.331 521.664 453.578 521.352 453.891C521.039 454.203 520.792 454.574 520.609 455.004C520.427 455.421 520.336 455.87 520.336 456.352V459.32H528.891V456.352ZM557.211 471V456.352C557.211 455.87 557.12 455.421 556.938 455.004C556.755 454.574 556.508 454.203 556.195 453.891C555.883 453.578 555.512 453.331 555.082 453.148C554.665 452.966 554.216 452.875 553.734 452.875H552.543C552.061 452.875 551.605 452.966 551.176 453.148C550.759 453.331 550.388 453.578 550.062 453.891C549.75 454.203 549.503 454.574 549.32 455.004C549.138 455.421 549.047 455.87 549.047 456.352V471H546.664V456.352C546.664 455.87 546.573 455.421 546.391 455.004C546.208 454.574 545.954 454.203 545.629 453.891C545.316 453.578 544.945 453.331 544.516 453.148C544.099 452.966 543.65 452.875 543.168 452.875H541.977C541.495 452.875 541.039 452.966 540.609 453.148C540.193 453.331 539.828 453.578 539.516 453.891C539.203 454.203 538.956 454.574 538.773 455.004C538.591 455.421 538.5 455.87 538.5 456.352V471H536.098V451H536.898L538.207 453.031C538.754 452.289 539.438 451.703 540.258 451.273C541.091 450.831 541.996 450.609 542.973 450.609H543.168C544.301 450.609 545.323 450.889 546.234 451.449C547.146 452.009 547.849 452.751 548.344 453.676C548.591 453.22 548.897 452.803 549.262 452.426C549.626 452.048 550.03 451.729 550.473 451.469C550.915 451.195 551.397 450.987 551.918 450.844C552.439 450.688 552.979 450.609 553.539 450.609H553.734C554.542 450.609 555.303 450.766 556.02 451.078C556.736 451.378 557.361 451.794 557.895 452.328C558.428 452.862 558.845 453.487 559.145 454.203C559.457 454.919 559.613 455.681 559.613 456.488V471H557.211ZM577.777 465.512C577.777 466.319 577.621 467.081 577.309 467.797C577.009 468.513 576.592 469.138 576.059 469.672C575.525 470.206 574.9 470.629 574.184 470.941C573.467 471.241 572.706 471.391 571.898 471.391H570.297C569.49 471.391 568.728 471.241 568.012 470.941C567.296 470.629 566.671 470.206 566.137 469.672C565.603 469.138 565.18 468.513 564.867 467.797C564.568 467.081 564.418 466.319 564.418 465.512V442.992H566.82V452.68C567.367 452.029 568.025 451.521 568.793 451.156C569.561 450.792 570.395 450.609 571.293 450.609H571.898C572.706 450.609 573.467 450.766 574.184 451.078C574.9 451.378 575.525 451.794 576.059 452.328C576.592 452.862 577.009 453.487 577.309 454.203C577.621 454.919 577.777 455.681 577.777 456.488V465.512ZM575.375 456.352C575.375 455.87 575.284 455.421 575.102 455.004C574.919 454.574 574.672 454.203 574.359 453.891C574.047 453.578 573.676 453.331 573.246 453.148C572.829 452.966 572.38 452.875 571.898 452.875H570.297C569.815 452.875 569.359 452.966 568.93 453.148C568.513 453.331 568.148 453.578 567.836 453.891C567.523 454.203 567.276 454.574 567.094 455.004C566.911 455.421 566.82 455.87 566.82 456.352V465.648C566.82 466.13 566.911 466.586 567.094 467.016C567.276 467.432 567.523 467.797 567.836 468.109C568.148 468.422 568.513 468.669 568.93 468.852C569.359 469.034 569.815 469.125 570.297 469.125H571.898C572.38 469.125 572.829 469.034 573.246 468.852C573.676 468.669 574.047 468.422 574.359 468.109C574.672 467.797 574.919 467.432 575.102 467.016C575.284 466.586 575.375 466.13 575.375 465.648V456.352ZM595.941 465.512C595.941 466.319 595.785 467.081 595.473 467.797C595.173 468.513 594.757 469.138 594.223 469.672C593.689 470.206 593.064 470.629 592.348 470.941C591.632 471.241 590.87 471.391 590.062 471.391H588.461C587.654 471.391 586.892 471.241 586.176 470.941C585.46 470.629 584.835 470.206 584.301 469.672C583.767 469.138 583.344 468.513 583.031 467.797C582.732 467.081 582.582 466.319 582.582 465.512V456.488C582.582 455.681 582.732 454.919 583.031 454.203C583.344 453.487 583.767 452.862 584.301 452.328C584.835 451.794 585.46 451.378 586.176 451.078C586.892 450.766 587.654 450.609 588.461 450.609H590.062C590.87 450.609 591.632 450.766 592.348 451.078C593.064 451.378 593.689 451.794 594.223 452.328C594.757 452.862 595.173 453.487 595.473 454.203C595.785 454.919 595.941 455.681 595.941 456.488V461.195H584.984V465.648C584.984 466.13 585.076 466.586 585.258 467.016C585.44 467.432 585.688 467.797 586 468.109C586.312 468.422 586.677 468.669 587.094 468.852C587.523 469.034 587.979 469.125 588.461 469.125H590.062C590.544 469.125 590.993 469.034 591.41 468.852C591.84 468.669 592.211 468.422 592.523 468.109C592.836 467.797 593.083 467.432 593.266 467.016C593.448 466.586 593.539 466.13 593.539 465.648V464.32L595.941 464.711V465.512ZM593.539 456.352C593.539 455.87 593.448 455.421 593.266 455.004C593.083 454.574 592.836 454.203 592.523 453.891C592.211 453.578 591.84 453.331 591.41 453.148C590.993 452.966 590.544 452.875 590.062 452.875H588.461C587.979 452.875 587.523 452.966 587.094 453.148C586.677 453.331 586.312 453.578 586 453.891C585.688 454.203 585.44 454.574 585.258 455.004C585.076 455.421 584.984 455.87 584.984 456.352V459.32H593.539V456.352ZM606.625 453.285C606.143 453.285 605.688 453.376 605.258 453.559C604.841 453.741 604.477 453.988 604.164 454.301C603.852 454.613 603.604 454.984 603.422 455.414C603.24 455.831 603.148 456.28 603.148 456.762V471H600.746V451H601.547L602.855 453.031C603.402 452.289 604.086 451.703 604.906 451.273C605.74 450.831 606.645 450.609 607.621 450.609H609.027V453.285H606.625ZM622.25 471V468.598H628.93V445.395L622.25 448.207V445.805L628.93 442.992H631.449V468.598H638.129V471H622.25ZM643.559 476.605H642.543V467.992H645.551L643.559 476.605ZM666.762 445.004C666.137 445.004 665.551 445.121 665.004 445.355C664.47 445.59 664.001 445.909 663.598 446.312C663.194 446.716 662.875 447.191 662.641 447.738C662.406 448.272 662.289 448.852 662.289 449.477V450.609L659.77 450.199V449.477C659.77 448.526 659.945 447.634 660.297 446.801C660.661 445.967 661.156 445.238 661.781 444.613C662.406 443.988 663.135 443.5 663.969 443.148C664.802 442.784 665.694 442.602 666.645 442.602H667.836C668.786 442.602 669.678 442.771 670.512 443.109C671.358 443.448 672.094 443.936 672.719 444.574C673.344 445.212 673.832 445.98 674.184 446.879C674.548 447.764 674.73 448.767 674.73 449.887C674.73 450.993 674.561 452.107 674.223 453.227C673.897 454.346 673.461 455.447 672.914 456.527C672.38 457.608 671.762 458.656 671.059 459.672C670.368 460.688 669.659 461.645 668.93 462.543C667.224 464.639 665.29 466.658 663.129 468.598H674.926V471H659.164V469.008C661.599 467.003 663.773 464.926 665.688 462.777C666.508 461.853 667.309 460.87 668.09 459.828C668.871 458.786 669.568 457.719 670.18 456.625C670.792 455.518 671.28 454.398 671.645 453.266C672.022 452.12 672.211 450.993 672.211 449.887C672.211 449.066 672.087 448.35 671.84 447.738C671.592 447.126 671.26 446.618 670.844 446.215C670.427 445.811 669.945 445.512 669.398 445.316C668.865 445.108 668.305 445.004 667.719 445.004H666.762ZM695.082 464.516C695.082 465.466 694.9 466.358 694.535 467.191C694.184 468.025 693.695 468.754 693.07 469.379C692.445 470.004 691.716 470.499 690.883 470.863C690.049 471.215 689.158 471.391 688.207 471.391H687.016C686.065 471.391 685.167 471.215 684.32 470.863C683.487 470.499 682.758 470.004 682.133 469.379C681.508 468.754 681.013 468.025 680.648 467.191C680.297 466.358 680.121 465.466 680.121 464.516V449.477C680.121 448.526 680.297 447.634 680.648 446.801C681.013 445.967 681.508 445.238 682.133 444.613C682.758 443.988 683.487 443.5 684.32 443.148C685.167 442.784 686.065 442.602 687.016 442.602H688.207C689.158 442.602 690.049 442.784 690.883 443.148C691.716 443.5 692.445 443.988 693.07 444.613C693.695 445.238 694.184 445.967 694.535 446.801C694.9 447.634 695.082 448.526 695.082 449.477V464.516ZM692.562 449.477C692.562 448.852 692.445 448.272 692.211 447.738C691.977 447.191 691.658 446.716 691.254 446.312C690.85 445.909 690.375 445.59 689.828 445.355C689.294 445.121 688.715 445.004 688.09 445.004H687.133C686.508 445.004 685.922 445.121 685.375 445.355C684.841 445.59 684.366 445.909 683.949 446.312C683.546 446.716 683.227 447.191 682.992 447.738C682.758 448.272 682.641 448.852 682.641 449.477V464.516C682.641 465.141 682.758 465.727 682.992 466.273C683.227 466.807 683.546 467.283 683.949 467.699C684.366 468.103 684.841 468.422 685.375 468.656C685.922 468.891 686.508 469.008 687.133 469.008H688.09C688.715 469.008 689.294 468.891 689.828 468.656C690.375 468.422 690.85 468.103 691.254 467.699C691.658 467.283 691.977 466.807 692.211 466.273C692.445 465.727 692.562 465.141 692.562 464.516V449.477ZM707.113 445.004C706.488 445.004 705.902 445.121 705.355 445.355C704.822 445.59 704.353 445.909 703.949 446.312C703.546 446.716 703.227 447.191 702.992 447.738C702.758 448.272 702.641 448.852 702.641 449.477V450.609L700.121 450.199V449.477C700.121 448.526 700.297 447.634 700.648 446.801C701.013 445.967 701.508 445.238 702.133 444.613C702.758 443.988 703.487 443.5 704.32 443.148C705.154 442.784 706.046 442.602 706.996 442.602H708.188C709.138 442.602 710.03 442.771 710.863 443.109C711.71 443.448 712.445 443.936 713.07 444.574C713.695 445.212 714.184 445.98 714.535 446.879C714.9 447.764 715.082 448.767 715.082 449.887C715.082 450.993 714.913 452.107 714.574 453.227C714.249 454.346 713.812 455.447 713.266 456.527C712.732 457.608 712.113 458.656 711.41 459.672C710.72 460.688 710.01 461.645 709.281 462.543C707.576 464.639 705.642 466.658 703.48 468.598H715.277V471H699.516V469.008C701.951 467.003 704.125 464.926 706.039 462.777C706.859 461.853 707.66 460.87 708.441 459.828C709.223 458.786 709.919 457.719 710.531 456.625C711.143 455.518 711.632 454.398 711.996 453.266C712.374 452.12 712.562 450.993 712.562 449.887C712.562 449.066 712.439 448.35 712.191 447.738C711.944 447.126 711.612 446.618 711.195 446.215C710.779 445.811 710.297 445.512 709.75 445.316C709.216 445.108 708.656 445.004 708.07 445.004H707.113ZM720.883 471V468.598H727.562V445.395L720.883 448.207V445.805L727.562 442.992H730.082V468.598H736.762V471H720.883Z" fill="white"/>
<path d="M429 301L442.75 262M484 301L470.25 262M442.75 262L456.5 223L470.25 262M442.75 262H470.25" stroke="white" stroke-width="9"/>
<path d="M507 260.118C507 287.817 484.595 310.236 457 310.236C429.405 310.236 407 287.817 407 260.118C407 232.419 429.405 210 457 210C484.595 210 507 232.419 507 260.118Z" stroke="white" stroke-width="7"/>
<path d="M398.004 367.578H386.09L383.414 375H379.547L390.406 346.562H393.688L404.566 375H400.719L398.004 367.578ZM387.223 364.492H396.891L392.047 351.191L387.223 364.492ZM418.043 357.109C417.496 357.018 416.904 356.973 416.266 356.973C413.896 356.973 412.288 357.982 411.441 360V375H407.828V353.867H411.344L411.402 356.309C412.587 354.421 414.267 353.477 416.441 353.477C417.145 353.477 417.678 353.568 418.043 353.75V357.109ZM439.273 364.668C439.273 367.897 438.531 370.495 437.047 372.461C435.562 374.414 433.57 375.391 431.07 375.391C428.401 375.391 426.337 374.447 424.879 372.559L424.703 375H421.383V345H424.996V356.191C426.454 354.382 428.466 353.477 431.031 353.477C433.596 353.477 435.608 354.447 437.066 356.387C438.538 358.327 439.273 360.983 439.273 364.355V364.668ZM435.66 364.258C435.66 361.797 435.185 359.896 434.234 358.555C433.284 357.214 431.917 356.543 430.133 356.543C427.75 356.543 426.038 357.65 424.996 359.863V369.004C426.103 371.217 427.828 372.324 430.172 372.324C431.904 372.324 433.251 371.654 434.215 370.312C435.178 368.971 435.66 366.953 435.66 364.258ZM452.789 362.324C449.573 361.4 447.229 360.267 445.758 358.926C444.299 357.572 443.57 355.905 443.57 353.926C443.57 351.686 444.462 349.837 446.246 348.379C448.043 346.908 450.374 346.172 453.238 346.172C455.191 346.172 456.93 346.549 458.453 347.305C459.99 348.06 461.174 349.102 462.008 350.43C462.854 351.758 463.277 353.21 463.277 354.785H459.508C459.508 353.066 458.961 351.719 457.867 350.742C456.773 349.753 455.23 349.258 453.238 349.258C451.389 349.258 449.944 349.668 448.902 350.488C447.874 351.296 447.359 352.422 447.359 353.867C447.359 355.026 447.848 356.009 448.824 356.816C449.814 357.611 451.487 358.34 453.844 359.004C456.214 359.668 458.062 360.404 459.391 361.211C460.732 362.005 461.721 362.936 462.359 364.004C463.01 365.072 463.336 366.328 463.336 367.773C463.336 370.078 462.438 371.927 460.641 373.32C458.844 374.701 456.441 375.391 453.434 375.391C451.48 375.391 449.658 375.02 447.965 374.277C446.272 373.522 444.964 372.493 444.039 371.191C443.128 369.889 442.672 368.411 442.672 366.758H446.441C446.441 368.477 447.073 369.837 448.336 370.84C449.612 371.829 451.311 372.324 453.434 372.324C455.413 372.324 456.93 371.921 457.984 371.113C459.039 370.306 459.566 369.206 459.566 367.812C459.566 366.419 459.078 365.345 458.102 364.59C457.125 363.822 455.354 363.066 452.789 362.324ZM472.496 348.75V353.867H476.441V356.66H472.496V369.766C472.496 370.612 472.672 371.25 473.023 371.68C473.375 372.096 473.974 372.305 474.82 372.305C475.237 372.305 475.81 372.227 476.539 372.07V375C475.589 375.26 474.664 375.391 473.766 375.391C472.151 375.391 470.934 374.902 470.113 373.926C469.293 372.949 468.883 371.562 468.883 369.766V356.66H465.035V353.867H468.883V348.75H472.496ZM479.332 364.238C479.332 362.168 479.736 360.306 480.543 358.652C481.363 356.999 482.496 355.723 483.941 354.824C485.4 353.926 487.06 353.477 488.922 353.477C491.799 353.477 494.124 354.473 495.895 356.465C497.678 358.457 498.57 361.107 498.57 364.414V364.668C498.57 366.725 498.173 368.574 497.379 370.215C496.598 371.842 495.471 373.112 494 374.023C492.542 374.935 490.862 375.391 488.961 375.391C486.096 375.391 483.772 374.395 481.988 372.402C480.217 370.41 479.332 367.773 479.332 364.492V364.238ZM482.965 364.668C482.965 367.012 483.505 368.893 484.586 370.312C485.68 371.732 487.138 372.441 488.961 372.441C490.797 372.441 492.255 371.725 493.336 370.293C494.417 368.848 494.957 366.829 494.957 364.238C494.957 361.921 494.404 360.046 493.297 358.613C492.203 357.168 490.745 356.445 488.922 356.445C487.138 356.445 485.699 357.155 484.605 358.574C483.512 359.993 482.965 362.025 482.965 364.668ZM513.316 357.109C512.77 357.018 512.177 356.973 511.539 356.973C509.169 356.973 507.561 357.982 506.715 360V375H503.102V353.867H506.617L506.676 356.309C507.861 354.421 509.54 353.477 511.715 353.477C512.418 353.477 512.952 353.568 513.316 353.75V357.109ZM525.035 375.391C522.171 375.391 519.84 374.453 518.043 372.578C516.246 370.69 515.348 368.171 515.348 365.02V364.355C515.348 362.259 515.745 360.391 516.539 358.75C517.346 357.096 518.466 355.807 519.898 354.883C521.344 353.945 522.906 353.477 524.586 353.477C527.333 353.477 529.469 354.382 530.992 356.191C532.516 358.001 533.277 360.592 533.277 363.965V365.469H518.961C519.013 367.552 519.618 369.238 520.777 370.527C521.949 371.803 523.434 372.441 525.23 372.441C526.507 372.441 527.587 372.181 528.473 371.66C529.358 371.139 530.133 370.449 530.797 369.59L533.004 371.309C531.233 374.03 528.577 375.391 525.035 375.391ZM524.586 356.445C523.128 356.445 521.904 356.979 520.914 358.047C519.924 359.102 519.312 360.586 519.078 362.5H529.664V362.227C529.56 360.391 529.065 358.971 528.18 357.969C527.294 356.953 526.096 356.445 524.586 356.445Z" fill="white"/>
</svg>
