<svg width="30" height="30" viewBox="0 0 30 30" fill="none" xmlns="http://www.w3.org/2000/svg">
<g clip-path="url(#clip0)">
<path fill-rule="evenodd" clip-rule="evenodd" d="M0.000228882 1.5C0.000228882 0.671572 0.671802 0 1.50023 0H16.1473C16.9757 0 17.6473 0.671573 17.6473 1.5V4.67648C17.6473 5.50491 16.9757 6.17648 16.1473 6.17648H1.50023C0.671801 6.17648 0.000228882 5.50491 0.000228882 4.67648V1.5ZM23.8233 1.50163C23.8233 0.673199 24.4949 0.00162762 25.3233 0.00162762H28.4998C29.3282 0.00162762 29.9998 0.6732 29.9998 1.50163V4.67811C29.9998 5.50653 29.3282 6.17811 28.4998 6.17811H25.3233C24.4949 6.17811 23.8233 5.50653 23.8233 4.67811V1.50163ZM19.1471 23.8235C18.3187 23.8235 17.6471 24.4951 17.6471 25.3235V28.5C17.6471 29.3284 18.3187 30 19.1471 30H28.5001C29.3285 30 30.0001 29.3284 30.0001 28.5V25.3235C30.0001 24.4951 29.3285 23.8235 28.5001 23.8235H19.1471ZM0 25.3235C0 24.4951 0.671573 23.8235 1.5 23.8235H10.853C11.6814 23.8235 12.353 24.4951 12.353 25.3235V28.5C12.353 29.3284 11.6814 30 10.853 30H1.5C0.671572 30 0 29.3284 0 28.5V25.3235ZM1.5 11.4715C0.671573 11.4715 0 12.1431 0 12.9715V16.148C0 16.9764 0.671572 17.648 1.5 17.648H28.5C29.3285 17.648 30 16.9764 30 16.148V12.9715C30 12.1431 29.3285 11.4715 28.5 11.4715H1.5Z" fill="white"/>
</g>
<defs>
<clipPath id="clip0">
<rect width="30" height="30" fill="white"/>
</clipPath>
</defs>
</svg>
