<svg width="30" height="30" viewBox="0 0 30 30" fill="none" xmlns="http://www.w3.org/2000/svg">
<path d="M6.69191 30H0.49372V9.97098H6.69191V30ZM3.58948 7.23884C1.60793 7.23884 0 5.59152 0 3.60268C0 1.61384 1.60793 0 3.58948 0C5.57103 0 7.17896 1.61384 7.17896 3.60268C7.17896 5.59152 5.57103 7.23884 3.58948 7.23884ZM29.8901 30H23.7052V20.25C23.7052 17.9263 23.6585 14.9464 20.4827 14.9464C17.2602 14.9464 16.7665 17.471 16.7665 20.0826V30H10.575V9.97098H16.5196V12.7031H16.6063C17.4337 11.1295 19.4552 9.46875 22.4709 9.46875C28.7425 9.46875 29.8968 13.6138 29.8968 18.9978V30H29.8901Z" fill="white"/>
</svg>
