<svg width="30" height="30" viewBox="0 0 30 30" fill="none" xmlns="http://www.w3.org/2000/svg">
<path d="M26.9163 9.54977C26.9354 9.8043 26.9354 10.0589 26.9354 10.3134C26.9354 18.0767 20.7488 27.0219 9.44166 27.0219C5.95813 27.0219 2.7221 26.0583 0 24.3857C0.494943 24.4402 0.970785 24.4584 1.48477 24.4584C4.3591 24.4584 7.00509 23.5311 9.11804 21.9494C6.41499 21.8948 4.14974 20.204 3.36927 17.8768C3.75001 17.9313 4.1307 17.9677 4.53049 17.9677C5.0825 17.9677 5.63457 17.8949 6.1485 17.7677C3.33124 17.2222 1.21823 14.8587 1.21823 12.0042V11.9315C2.03673 12.3679 2.98859 12.6406 3.9974 12.6769C2.3413 11.6224 1.25631 9.82249 1.25631 7.78618C1.25631 6.69533 1.56083 5.69536 2.09386 4.82266C5.12053 8.38617 9.67006 10.7133 14.7715 10.9679C14.6764 10.5315 14.6193 10.0771 14.6193 9.62253C14.6193 6.38624 17.3604 3.75 20.7678 3.75C22.5381 3.75 24.137 4.45906 25.2602 5.60448C26.6497 5.34995 27.9822 4.85904 29.1625 4.18635C28.7055 5.54997 27.7348 6.69539 26.4594 7.42258C27.6967 7.29538 28.896 6.96804 30 6.51356C29.1626 7.67711 28.1156 8.71339 26.9163 9.54977Z" fill="white"/>
</svg>
