<svg width="30" height="30" viewBox="0 0 30 30" fill="none" xmlns="http://www.w3.org/2000/svg">
<path d="M10.0343 24.3083C10.0343 24.4235 9.89516 24.5156 9.71976 24.5156C9.52016 24.5329 9.38105 24.4408 9.38105 24.3083C9.38105 24.193 9.52016 24.1009 9.69556 24.1009C9.87702 24.0836 10.0343 24.1758 10.0343 24.3083ZM8.15323 24.049C8.11089 24.1642 8.23186 24.2967 8.41331 24.3313C8.57056 24.3889 8.75202 24.3313 8.78831 24.2161C8.8246 24.1009 8.70968 23.9684 8.52823 23.9165C8.37097 23.8762 8.19556 23.9338 8.15323 24.049ZM10.8266 23.9511C10.6512 23.9914 10.5302 24.1009 10.5484 24.2334C10.5665 24.3486 10.7238 24.4235 10.9052 24.3831C11.0806 24.3428 11.2016 24.2334 11.1835 24.1181C11.1653 24.0087 11.002 23.9338 10.8266 23.9511ZM14.8065 1.875C6.41734 1.875 0 7.94131 0 15.9318C0 22.3207 4.22177 27.7879 10.252 29.7121C11.0262 29.8446 11.2984 29.3894 11.2984 29.015C11.2984 28.6578 11.2802 26.6875 11.2802 25.4777C11.2802 25.4777 7.04637 26.3419 6.15726 23.761C6.15726 23.761 5.46774 22.0845 4.47581 21.6524C4.47581 21.6524 3.09073 20.748 4.57258 20.7653C4.57258 20.7653 6.07863 20.8805 6.90726 22.2516C8.23185 24.4753 10.4516 23.8359 11.3165 23.4556C11.4556 22.5339 11.8488 21.8944 12.2843 21.5142C8.90323 21.157 5.49194 20.6904 5.49194 15.1483C5.49194 13.564 5.95161 12.769 6.91935 11.7551C6.7621 11.3806 6.24798 9.83667 7.07661 7.84337C8.34073 7.46891 11.25 9.39884 11.25 9.39884C12.4597 9.07622 13.7601 8.90916 15.0484 8.90916C16.3367 8.90916 17.6371 9.07622 18.8468 9.39884C18.8468 9.39884 21.756 7.46315 23.0202 7.84337C23.8488 9.84243 23.3347 11.3806 23.1774 11.7551C24.1452 12.7748 24.7379 13.5698 24.7379 15.1483C24.7379 20.7076 21.1754 21.1512 17.7944 21.5142C18.3508 21.9693 18.8226 22.8334 18.8226 24.1873C18.8226 26.1287 18.8044 28.5311 18.8044 29.0035C18.8044 29.3779 19.0827 29.833 19.8508 29.7005C25.8992 27.7879 30 22.3207 30 15.9318C30 7.94131 23.1956 1.875 14.8065 1.875ZM5.87903 21.7446C5.8004 21.8022 5.81855 21.9347 5.92137 22.0442C6.01815 22.1364 6.15726 22.1767 6.23589 22.1018C6.31452 22.0442 6.29637 21.9117 6.19355 21.8022C6.09677 21.7101 5.95766 21.6697 5.87903 21.7446ZM5.22581 21.278C5.18347 21.3529 5.24395 21.445 5.36492 21.5027C5.46169 21.5603 5.58266 21.543 5.625 21.4623C5.66734 21.3874 5.60685 21.2953 5.48589 21.2377C5.36492 21.2031 5.26815 21.2204 5.22581 21.278ZM7.18548 23.3289C7.08871 23.4038 7.125 23.5766 7.26411 23.6861C7.40323 23.8186 7.57863 23.8359 7.65726 23.7437C7.73589 23.6688 7.6996 23.496 7.57863 23.3865C7.44556 23.254 7.26411 23.2367 7.18548 23.3289ZM6.49597 22.482C6.39919 22.5396 6.39919 22.6894 6.49597 22.8219C6.59274 22.9544 6.75605 23.012 6.83468 22.9544C6.93145 22.8795 6.93145 22.7297 6.83468 22.5972C6.75 22.4647 6.59274 22.4071 6.49597 22.482Z" fill="white"/>
</svg>
