<svg width="30" height="30" viewBox="0 0 30 30" fill="none" xmlns="http://www.w3.org/2000/svg">
<path d="M26.6547 10.8504C25.7062 10.8504 24.8716 11.2424 24.2582 11.8557C22.0009 10.2939 18.9595 9.28857 15.5893 9.18108L17.3408 1.2899L22.9178 2.54187C22.9178 3.90765 24.0306 5.02051 25.3964 5.02051C26.7875 5.02051 27.9066 3.87603 27.9066 2.51025C27.9066 1.14447 26.7938 0 25.3964 0C24.4226 0 23.5817 0.588045 23.1644 1.39107L17.0057 0.0252922C16.6959 -0.0569075 16.3924 0.1644 16.3102 0.47423L14.3879 9.17476C11.043 9.31387 8.03327 10.3192 5.76961 11.881C5.15628 11.2424 4.29002 10.8504 3.34156 10.8504C-0.174063 10.8504 -1.32486 15.5674 1.89358 17.1798C1.77976 17.6793 1.72918 18.2104 1.72918 18.7415C1.72918 24.0403 7.69815 28.3336 15.0266 28.3336C22.3866 28.3336 28.3556 24.0403 28.3556 18.7415C28.3556 18.2104 28.2987 17.654 28.1596 17.1545C31.3148 15.5358 30.1513 10.8504 26.6547 10.8504ZM6.99629 17.5149C6.99629 16.1238 8.10915 15.0046 9.50654 15.0046C10.8723 15.0046 11.9852 16.1175 11.9852 17.5149C11.9852 18.8807 10.8723 19.9935 9.50654 19.9935C8.11547 19.9998 6.99629 18.8807 6.99629 17.5149ZM20.5466 23.4269C18.245 25.7285 11.7512 25.7285 9.44963 23.4269C9.19671 23.2056 9.19671 22.8136 9.44963 22.5607C9.67094 22.3394 10.063 22.3394 10.2843 22.5607C12.0421 24.3627 17.8719 24.3944 19.7056 22.5607C19.9269 22.3394 20.319 22.3394 20.5403 22.5607C20.7995 22.8136 20.7995 23.2056 20.5466 23.4269ZM20.496 19.9998C19.1302 19.9998 18.0174 18.887 18.0174 17.5212C18.0174 16.1301 19.1302 15.0109 20.496 15.0109C21.8871 15.0109 23.0063 16.1238 23.0063 17.5212C23 18.8807 21.8871 19.9998 20.496 19.9998Z" fill="white"/>
</svg>
