<svg width="30" height="30" viewBox="0 0 30 30" fill="none" xmlns="http://www.w3.org/2000/svg">
<path d="M6.30268 18.9576C6.30268 20.692 4.88571 22.1089 3.15134 22.1089C1.41696 22.1089 0 20.692 0 18.9576C0 17.2232 1.41696 15.8062 3.15134 15.8062H6.30268V18.9576ZM7.89107 18.9576C7.89107 17.2232 9.30803 15.8062 11.0424 15.8062C12.7768 15.8062 14.1938 17.2232 14.1938 18.9576V26.8487C14.1938 28.583 12.7768 30 11.0424 30C9.30803 30 7.89107 28.583 7.89107 26.8487V18.9576ZM11.0424 6.30268C9.30803 6.30268 7.89107 4.88571 7.89107 3.15134C7.89107 1.41696 9.30803 0 11.0424 0C12.7768 0 14.1938 1.41696 14.1938 3.15134V6.30268H11.0424ZM11.0424 7.89107C12.7768 7.89107 14.1938 9.30803 14.1938 11.0424C14.1938 12.7768 12.7768 14.1938 11.0424 14.1938H3.15134C1.41696 14.1938 0 12.7768 0 11.0424C0 9.30803 1.41696 7.89107 3.15134 7.89107H11.0424ZM23.6973 11.0424C23.6973 9.30803 25.1143 7.89107 26.8487 7.89107C28.583 7.89107 30 9.30803 30 11.0424C30 12.7768 28.583 14.1938 26.8487 14.1938H23.6973V11.0424ZM22.1089 11.0424C22.1089 12.7768 20.692 14.1938 18.9576 14.1938C17.2232 14.1938 15.8062 12.7768 15.8062 11.0424V3.15134C15.8062 1.41696 17.2232 0 18.9576 0C20.692 0 22.1089 1.41696 22.1089 3.15134V11.0424ZM18.9576 23.6973C20.692 23.6973 22.1089 25.1143 22.1089 26.8487C22.1089 28.583 20.692 30 18.9576 30C17.2232 30 15.8062 28.583 15.8062 26.8487V23.6973H18.9576ZM18.9576 22.1089C17.2232 22.1089 15.8062 20.692 15.8062 18.9576C15.8062 17.2232 17.2232 15.8062 18.9576 15.8062H26.8487C28.583 15.8062 30 17.2232 30 18.9576C30 20.692 28.583 22.1089 26.8487 22.1089H18.9576Z" fill="white"/>
</svg>
