<svg width="196" height="196" viewBox="0 0 196 196" fill="none" xmlns="http://www.w3.org/2000/svg">
<path d="M61.9668 121H52.9141V96.2148L53.002 92.1426L53.1484 87.6895C51.6445 89.1934 50.5996 90.1797 50.0137 90.6484L45.0918 94.6035L40.7266 89.1543L54.5254 78.168H61.9668V121ZM103.568 99.584C103.568 107.064 102.338 112.602 99.877 116.195C97.4355 119.789 93.666 121.586 88.5684 121.586C83.627 121.586 79.8965 119.73 77.377 116.02C74.877 112.309 73.627 106.83 73.627 99.584C73.627 92.0254 74.8477 86.459 77.2891 82.8848C79.7305 79.291 83.4902 77.4941 88.5684 77.4941C93.5098 77.4941 97.2402 79.3691 99.7598 83.1191C102.299 86.8691 103.568 92.3574 103.568 99.584ZM82.6211 99.584C82.6211 104.838 83.0703 108.607 83.9688 110.893C84.8867 113.158 86.4199 114.291 88.5684 114.291C90.6777 114.291 92.2012 113.139 93.1387 110.834C94.0762 108.529 94.5449 104.779 94.5449 99.584C94.5449 94.3301 94.0664 90.5605 93.1094 88.2754C92.1719 85.9707 90.6582 84.8184 88.5684 84.8184C86.4395 84.8184 84.916 85.9707 83.998 88.2754C83.0801 90.5605 82.6211 94.3301 82.6211 99.584ZM114.965 91C114.965 93.4805 115.18 95.3359 115.609 96.5664C116.059 97.7773 116.771 98.3828 117.748 98.3828C119.623 98.3828 120.561 95.9219 120.561 91C120.561 86.1172 119.623 83.6758 117.748 83.6758C116.771 83.6758 116.059 84.2812 115.609 85.4922C115.18 86.6836 114.965 88.5195 114.965 91ZM127.943 90.9414C127.943 95.4336 127.074 98.8125 125.336 101.078C123.598 103.324 121.049 104.447 117.689 104.447C114.467 104.447 111.977 103.295 110.219 100.99C108.461 98.666 107.582 95.3164 107.582 90.9414C107.582 82.0156 110.951 77.5527 117.689 77.5527C120.99 77.5527 123.52 78.7148 125.277 81.0391C127.055 83.3438 127.943 86.6445 127.943 90.9414ZM148.1 78.168L124.34 121H117.309L141.068 78.168H148.1ZM144.965 108.109C144.965 110.59 145.18 112.445 145.609 113.676C146.059 114.887 146.771 115.492 147.748 115.492C149.623 115.492 150.561 113.031 150.561 108.109C150.561 103.227 149.623 100.785 147.748 100.785C146.771 100.785 146.059 101.391 145.609 102.602C145.18 103.793 144.965 105.629 144.965 108.109ZM157.943 108.051C157.943 112.523 157.074 115.893 155.336 118.158C153.598 120.404 151.049 121.527 147.689 121.527C144.467 121.527 141.977 120.375 140.219 118.07C138.461 115.746 137.582 112.406 137.582 108.051C137.582 99.125 140.951 94.6621 147.689 94.6621C150.99 94.6621 153.52 95.8242 155.277 98.1484C157.055 100.453 157.943 103.754 157.943 108.051Z" fill="white"/>
<path fill-rule="evenodd" clip-rule="evenodd" d="M98 194C151.019 194 194 151.019 194 98C194 44.9808 151.019 2 98 2C44.9808 2 2 44.9808 2 98C2 151.019 44.9808 194 98 194Z" stroke="white" stroke-width="3" stroke-linecap="square" stroke-dasharray="2 6"/>
</svg>
