<svg width="196" height="196" viewBox="0 0 196 196" fill="none" xmlns="http://www.w3.org/2000/svg">
<path d="M67.8555 87.748C67.8555 90.4238 67.0449 92.6992 65.4238 94.5742C63.8027 96.4492 61.5273 97.7383 58.5977 98.4414V98.6172C62.0547 99.0469 64.6719 100.102 66.4492 101.781C68.2266 103.441 69.1152 105.688 69.1152 108.52C69.1152 112.641 67.6211 115.854 64.6328 118.158C61.6445 120.443 57.377 121.586 51.8301 121.586C47.1816 121.586 43.0605 120.814 39.4668 119.271V111.566C41.127 112.406 42.9531 113.09 44.9453 113.617C46.9375 114.145 48.9102 114.408 50.8633 114.408C53.8516 114.408 56.0586 113.9 57.4844 112.885C58.9102 111.869 59.623 110.238 59.623 107.992C59.623 105.98 58.8027 104.555 57.1621 103.715C55.5215 102.875 52.9043 102.455 49.3105 102.455H46.0586V95.5117H49.3691C52.6895 95.5117 55.1113 95.082 56.6348 94.2227C58.1777 93.3438 58.9492 91.8496 58.9492 89.7402C58.9492 86.498 56.918 84.877 52.8555 84.877C51.4492 84.877 50.0137 85.1113 48.5488 85.5801C47.1035 86.0488 45.4922 86.8594 43.7148 88.0117L39.5254 81.7715C43.4316 78.959 48.0898 77.5527 53.5 77.5527C57.9336 77.5527 61.4297 78.4512 63.9883 80.248C66.5664 82.0449 67.8555 84.5449 67.8555 87.748ZM89.4473 93.6367C93.5879 93.6367 96.8789 94.7988 99.3203 97.123C101.781 99.4473 103.012 102.631 103.012 106.674C103.012 111.459 101.537 115.141 98.5879 117.719C95.6387 120.297 91.4199 121.586 85.9316 121.586C81.166 121.586 77.3184 120.814 74.3887 119.271V111.449C75.9316 112.27 77.7285 112.943 79.7793 113.471C81.8301 113.979 83.7734 114.232 85.6094 114.232C91.1367 114.232 93.9004 111.967 93.9004 107.436C93.9004 103.119 91.0391 100.961 85.3164 100.961C84.2812 100.961 83.1387 101.068 81.8887 101.283C80.6387 101.479 79.623 101.693 78.8418 101.928L75.2383 99.9941L76.8496 78.168H100.082V85.8438H84.7891L83.998 94.252L85.0234 94.0469C86.2148 93.7734 87.6895 93.6367 89.4473 93.6367ZM114.965 91C114.965 93.4805 115.18 95.3359 115.609 96.5664C116.059 97.7773 116.771 98.3828 117.748 98.3828C119.623 98.3828 120.561 95.9219 120.561 91C120.561 86.1172 119.623 83.6758 117.748 83.6758C116.771 83.6758 116.059 84.2812 115.609 85.4922C115.18 86.6836 114.965 88.5195 114.965 91ZM127.943 90.9414C127.943 95.4336 127.074 98.8125 125.336 101.078C123.598 103.324 121.049 104.447 117.689 104.447C114.467 104.447 111.977 103.295 110.219 100.99C108.461 98.666 107.582 95.3164 107.582 90.9414C107.582 82.0156 110.951 77.5527 117.689 77.5527C120.99 77.5527 123.52 78.7148 125.277 81.0391C127.055 83.3438 127.943 86.6445 127.943 90.9414ZM148.1 78.168L124.34 121H117.309L141.068 78.168H148.1ZM144.965 108.109C144.965 110.59 145.18 112.445 145.609 113.676C146.059 114.887 146.771 115.492 147.748 115.492C149.623 115.492 150.561 113.031 150.561 108.109C150.561 103.227 149.623 100.785 147.748 100.785C146.771 100.785 146.059 101.391 145.609 102.602C145.18 103.793 144.965 105.629 144.965 108.109ZM157.943 108.051C157.943 112.523 157.074 115.893 155.336 118.158C153.598 120.404 151.049 121.527 147.689 121.527C144.467 121.527 141.977 120.375 140.219 118.07C138.461 115.746 137.582 112.406 137.582 108.051C137.582 99.125 140.951 94.6621 147.689 94.6621C150.99 94.6621 153.52 95.8242 155.277 98.1484C157.055 100.453 157.943 103.754 157.943 108.051Z" fill="white"/>
<path fill-rule="evenodd" clip-rule="evenodd" d="M98 194C151.019 194 194 151.019 194 98C194 44.9808 151.019 2 98 2C44.9808 2 2 44.9808 2 98C2 151.019 44.9808 194 98 194Z" stroke="white" stroke-width="3" stroke-linecap="square" stroke-dasharray="2 6"/>
</svg>
