<svg width="651" height="498" viewBox="0 0 651 498" fill="none" xmlns="http://www.w3.org/2000/svg">
<g clip-path="url(#clip0_422:7572)">
<path d="M205.1 337.26L298.416 284.056C301.827 282.095 301.385 278.65 297.461 276.37L243.77 245.378C239.828 243.098 233.855 242.851 230.444 244.83L137.128 298.033C133.717 299.994 134.141 303.44 138.083 305.719L191.774 336.694C195.716 338.974 201.689 339.256 205.1 337.26Z" fill="#D5ECFB"/>
<path d="M128.82 280.116V62.3207L215.42 39.6506L231.326 30.4448C235.002 28.3421 241.382 28.6778 245.624 31.0455L260.505 39.633H306.685L293.006 249.901C293.017 250.706 292.792 251.497 292.359 252.175C291.925 252.853 291.302 253.39 290.567 253.718L204.126 318.919C200.468 321.039 194.088 320.774 189.846 318.336L132.284 285.046C129.845 283.633 128.679 281.813 128.82 280.116Z" fill="#3A6DAC"/>
<path d="M237.989 29.0312C240.671 29.0724 243.303 29.7636 245.66 31.0456L260.541 39.633H306.721V257.976C306.732 258.781 306.507 259.572 306.074 260.25C305.64 260.928 305.017 261.465 304.282 261.793L204.162 318.866C202.122 319.93 199.831 320.418 197.535 320.279L196.51 100.54L237.989 29.0312Z" fill="#D5ECFB"/>
<path d="M203.243 319.343C199.545 320.674 195.49 320.624 191.826 319.201V97.9602H203.243V319.343Z" fill="#5793CE"/>
<path d="M204.163 100.575L304.283 43.5026C307.942 41.3999 307.482 37.707 303.258 35.2686L245.661 2.01439C241.419 -0.424016 235.056 -0.68906 231.363 1.43129L131.261 58.4864C127.602 60.6068 128.062 64.2997 132.286 66.7381L189.883 99.9923C194.125 102.484 200.505 102.696 204.163 100.575Z" fill="#D5ECFB"/>
<path d="M132.285 62.6918L189.882 95.9284C194.124 98.3844 200.487 98.6495 204.163 96.5291L304.282 39.4563C304.983 39.0569 305.586 38.5078 306.05 37.8484C307.305 39.8627 306.739 42.0538 304.282 43.5027L204.163 100.575C200.504 102.696 194.124 102.342 189.882 99.9924L132.285 66.7382C129.015 64.8475 128.008 62.1971 129.439 60.0767C130.156 61.171 131.134 62.0697 132.285 62.6918Z" fill="#FBFDFF"/>
<path d="M201.337 77.4458L267.983 38.8731C269.751 37.8836 269.485 36.152 267.506 35.0211L240.554 19.4365C239.538 18.8757 238.405 18.5597 237.245 18.5137C236.085 18.4677 234.931 18.6929 233.873 19.1715L167.227 57.7619C165.46 58.7514 165.725 60.4654 167.704 61.6139L194.656 77.1631C195.67 77.7308 196.802 78.0522 197.963 78.1013C199.123 78.1504 200.279 77.9259 201.337 77.4458Z" fill="#1A3E78"/>
<path d="M237.32 40.6401L241.19 38.4137C241.42 38.2724 241.385 38.0427 241.19 37.8836L237.461 35.7279C237.319 35.6551 237.161 35.6171 237.002 35.6171C236.842 35.6171 236.684 35.6551 236.542 35.7279L232.672 37.9543C232.442 38.0957 232.46 38.3254 232.672 38.4844L236.401 40.6401C236.542 40.7144 236.7 40.7532 236.86 40.7532C237.02 40.7532 237.178 40.7144 237.32 40.6401Z" fill="#D5ECFB"/>
<path d="M224.451 47.973L228.322 45.7466C228.552 45.6053 228.516 45.3756 228.322 45.2165L224.451 43.0608C224.309 42.988 224.152 42.95 223.992 42.95C223.832 42.95 223.675 42.988 223.532 43.0608L219.662 45.2872C219.432 45.4286 219.45 45.6583 219.662 45.8173L223.391 47.973C223.549 48.0735 223.733 48.1269 223.921 48.1269C224.109 48.1269 224.293 48.0735 224.451 47.973Z" fill="#D5ECFB"/>
<path d="M211.516 55.3942L215.386 53.1679C215.616 53.0265 215.58 52.7791 215.386 52.6378L211.657 50.4821C211.515 50.4092 211.357 50.3712 211.197 50.3712C211.038 50.3712 210.88 50.4092 210.738 50.4821L206.779 52.6731C206.549 52.7968 206.567 53.0442 206.779 53.2032L210.508 55.3589C210.657 55.4545 210.83 55.5082 211.007 55.5144C211.184 55.5206 211.36 55.4791 211.516 55.3942Z" fill="#D5ECFB"/>
<path d="M198.615 62.8155L202.486 60.5891C202.715 60.4478 202.68 60.2004 202.486 60.0413L198.756 57.9033C198.61 57.8341 198.45 57.7982 198.288 57.7982C198.126 57.7982 197.966 57.8341 197.82 57.9033L193.896 60.0767C193.666 60.218 193.684 60.4654 193.896 60.6244L197.625 62.7801C197.776 62.862 197.944 62.9077 198.116 62.9139C198.288 62.92 198.459 62.8863 198.615 62.8155Z" fill="#D5ECFB"/>
<path d="M267.981 38.8731C267.839 38.7848 267.733 38.6787 267.574 38.5904L240.551 22.9705C239.538 22.4028 238.405 22.0814 237.245 22.0323C236.084 21.9832 234.929 22.2077 233.871 22.6878L167.295 61.3312C165.722 60.2003 165.634 58.6631 167.295 57.7972L233.942 19.1715C234.999 18.6929 236.153 18.4677 237.313 18.5137C238.473 18.5597 239.606 18.8757 240.622 19.4365L267.574 35.0035C269.483 36.099 269.695 37.8306 267.981 38.8731Z" fill="#5793CE"/>
<path d="M178.643 143.725L140.751 122.044C139.573 121.201 138.61 120.094 137.937 118.811C137.265 117.529 136.903 116.106 136.881 114.658V101.105C136.881 98.2784 138.648 96.9708 140.751 98.19L178.643 119.888C179.814 120.725 180.772 121.824 181.441 123.097C182.11 124.37 182.471 125.783 182.496 127.221V140.774C182.496 143.654 180.782 144.891 178.643 143.725Z" fill="#1A3E78"/>
<path d="M138.878 97.7836C138.532 98.164 138.268 98.6109 138.101 99.097C137.933 99.5831 137.867 100.098 137.906 100.611V114.146C137.929 115.592 138.29 117.012 138.958 118.294C139.627 119.576 140.586 120.685 141.759 121.532L179.668 143.212C180.221 143.575 180.886 143.726 181.542 143.636C181.129 143.963 180.619 144.141 180.092 144.141C179.566 144.141 179.055 143.963 178.643 143.636L140.751 122.044C139.573 121.201 138.61 120.094 137.937 118.811C137.265 117.528 136.903 116.106 136.881 114.658V101.105C136.881 99.1795 137.694 97.9956 138.878 97.7836Z" fill="white"/>
<path d="M167.244 128.988L163.71 126.991C163.455 126.807 163.248 126.565 163.103 126.286C162.959 126.007 162.882 125.698 162.879 125.383V121.673C162.879 121.054 163.25 120.754 163.71 121.037L167.244 123.033C167.501 123.217 167.711 123.458 167.858 123.737C168.006 124.016 168.086 124.326 168.093 124.641V128.352C168.093 128.988 167.704 129.271 167.244 128.988Z" fill="#3A6DAC"/>
<path d="M155.615 122.309L152.081 120.295C151.824 120.111 151.614 119.87 151.467 119.591C151.319 119.312 151.239 119.002 151.232 118.687V114.976C151.232 114.358 151.621 114.075 152.081 114.34L155.615 116.354C155.876 116.534 156.089 116.774 156.237 117.054C156.385 117.334 156.463 117.646 156.464 117.962V121.673C156.464 122.291 156.093 122.574 155.615 122.309Z" fill="white"/>
<path d="M178.643 241.632L140.751 219.934C139.573 219.096 138.608 217.992 137.936 216.712C137.263 215.432 136.902 214.011 136.881 212.565V199.013C136.881 196.168 138.648 194.86 140.751 196.097L178.643 217.796C179.819 218.634 180.781 219.739 181.451 221.019C182.12 222.299 182.478 223.719 182.496 225.164V238.716C182.496 241.561 180.782 242.851 178.643 241.632Z" fill="#1A3E78"/>
<path d="M138.878 195.691C138.534 196.069 138.27 196.513 138.103 196.996C137.936 197.479 137.869 197.991 137.906 198.5V212.035C137.928 213.479 138.288 214.898 138.957 216.177C139.626 217.457 140.585 218.562 141.759 219.404L179.668 241.102C180.223 241.46 180.888 241.604 181.542 241.508C181.144 241.856 180.639 242.057 180.111 242.076C179.583 242.096 179.065 241.932 178.643 241.614L140.751 219.934C139.573 219.096 138.608 217.992 137.936 216.712C137.263 215.432 136.902 214.011 136.881 212.565V199.013C136.881 197.087 137.694 195.885 138.878 195.691Z" fill="white"/>
<path d="M167.244 226.913L163.71 224.899C163.455 224.714 163.248 224.473 163.103 224.193C162.959 223.914 162.882 223.605 162.879 223.291V219.58C162.879 218.962 163.25 218.679 163.71 218.944L167.244 220.958C167.501 221.142 167.711 221.383 167.858 221.662C168.006 221.941 168.086 222.251 168.093 222.566V226.277C168.093 226.895 167.704 227.178 167.244 226.913Z" fill="#3A6DAC"/>
<path d="M155.615 220.199L152.081 218.202C151.826 218.016 151.617 217.775 151.47 217.496C151.323 217.218 151.242 216.909 151.232 216.594V212.883C151.232 212.265 151.621 211.965 152.081 212.247L155.615 214.244C155.875 214.425 156.088 214.665 156.235 214.945C156.383 215.225 156.461 215.536 156.464 215.852V219.563C156.464 220.181 156.093 220.464 155.615 220.199Z" fill="white"/>
<path d="M178.643 290.577L140.751 268.896C139.573 268.053 138.61 266.946 137.937 265.663C137.265 264.381 136.903 262.958 136.881 261.51V247.958C136.881 245.13 138.648 243.823 140.751 245.042L178.643 266.811C179.819 267.65 180.781 268.754 181.451 270.034C182.12 271.315 182.478 272.735 182.496 274.179V287.732C182.496 290.506 180.782 291.813 178.643 290.577Z" fill="#1A3E78"/>
<path d="M138.878 244.636C138.532 245.016 138.268 245.463 138.101 245.949C137.933 246.435 137.867 246.95 137.906 247.463V260.998C137.929 262.444 138.29 263.864 138.958 265.146C139.627 266.429 140.586 267.537 141.759 268.384L179.668 290.064C180.221 290.427 180.886 290.578 181.542 290.488C181.129 290.815 180.619 290.993 180.092 290.993C179.566 290.993 179.055 290.815 178.643 290.488L140.751 268.896C139.573 268.053 138.61 266.946 137.937 265.663C137.265 264.381 136.903 262.958 136.881 261.51V247.958C136.881 246.032 137.694 244.83 138.878 244.636Z" fill="white"/>
<path d="M167.244 275.858L163.71 273.861C163.457 273.675 163.251 273.433 163.107 273.154C162.963 272.875 162.885 272.567 162.879 272.253V268.578C162.879 267.96 163.25 267.659 163.71 267.942L167.244 269.939C167.501 270.122 167.711 270.363 167.858 270.642C168.006 270.921 168.086 271.231 168.093 271.546V275.257C168.093 275.84 167.704 276.123 167.244 275.858Z" fill="#3A6DAC"/>
<path d="M155.615 269.161L152.081 267.147C151.824 266.963 151.614 266.722 151.467 266.443C151.319 266.164 151.239 265.854 151.232 265.539V261.828C151.232 261.21 151.621 260.927 152.081 261.192L155.615 263.189C155.873 263.372 156.084 263.612 156.231 263.892C156.379 264.171 156.458 264.481 156.464 264.797V268.578C156.464 269.143 156.093 269.426 155.615 269.161Z" fill="white"/>
<path d="M178.643 192.687L140.751 170.989C139.576 170.148 138.613 169.043 137.941 167.764C137.269 166.484 136.906 165.066 136.881 163.621V150.068C136.881 147.223 138.648 145.916 140.751 147.152L178.643 168.833C179.819 169.677 180.78 170.785 181.449 172.067C182.118 173.35 182.477 174.772 182.496 176.219V189.754C182.496 192.599 180.782 193.906 178.643 192.687Z" fill="#1A3E78"/>
<path d="M138.878 146.658C138.532 147.038 138.268 147.485 138.101 147.971C137.933 148.457 137.867 148.972 137.906 149.485V163.037C137.928 164.481 138.288 165.9 138.957 167.179C139.626 168.459 140.585 169.564 141.759 170.406L179.668 192.104C180.226 192.453 180.889 192.597 181.542 192.51C181.143 192.855 180.638 193.054 180.111 193.073C179.584 193.093 179.066 192.931 178.643 192.616L140.751 170.989C139.576 170.148 138.613 169.043 137.941 167.764C137.269 166.484 136.906 165.065 136.881 163.621V150.068C136.881 148.142 137.694 146.94 138.878 146.658Z" fill="white"/>
<path d="M167.244 177.968L163.71 175.954C163.455 175.769 163.248 175.528 163.103 175.248C162.959 174.969 162.882 174.66 162.879 174.346V170.635C162.879 170.017 163.25 169.734 163.71 169.999L167.244 172.014C167.502 172.196 167.713 172.437 167.86 172.716C168.007 172.996 168.087 173.306 168.093 173.621V177.332C168.093 177.951 167.704 178.233 167.244 177.968Z" fill="#3A6DAC"/>
<path d="M155.615 171.254L152.081 169.24C151.824 169.056 151.614 168.815 151.467 168.536C151.319 168.257 151.239 167.947 151.232 167.632V163.921C151.232 163.303 151.621 163.02 152.081 163.285L155.615 165.299C155.875 165.48 156.088 165.72 156.235 166C156.383 166.28 156.461 166.591 156.464 166.907V170.618C156.464 171.236 156.093 171.519 155.615 171.254Z" fill="white"/>
<path d="M211.462 129.854L298.893 79.3895C299.969 78.6152 300.849 77.6 301.463 76.4249C302.077 75.2498 302.407 73.9475 302.427 72.622V55.9596C302.427 53.3622 300.837 52.1606 298.893 53.2915L211.462 103.756C210.382 104.526 209.499 105.541 208.885 106.717C208.27 107.892 207.943 109.197 207.928 110.523V127.221C207.928 129.783 209.501 130.985 211.462 129.854Z" fill="#5793CE"/>
<path opacity="0.4" d="M213.974 124.023L296.385 76.4564C296.939 76.0498 297.388 75.5173 297.695 74.9028C298.002 74.2883 298.159 73.6095 298.152 72.9225V60.4831C298.152 59.1579 297.357 58.5571 296.385 59.1225L213.974 106.689C213.433 107.088 212.992 107.606 212.685 108.204C212.378 108.802 212.214 109.463 212.206 110.135V122.662C212.171 123.988 212.984 124.588 213.974 124.023Z" fill="#D5ECFB"/>
<path d="M279.24 80.0256L291.611 72.9578C292.145 72.5803 292.582 72.0833 292.889 71.5065C293.196 70.9297 293.364 70.2891 293.379 69.6359C293.379 68.346 292.583 67.7629 291.611 68.3107L279.24 75.3785C278.702 75.7558 278.262 76.2552 277.954 76.8357C277.647 77.4162 277.482 78.0614 277.473 78.7181C277.473 79.9903 278.233 80.5911 279.24 80.0256Z" fill="#D5ECFB"/>
<path d="M268.725 83.7539C268.725 85.0438 269.626 85.5208 270.739 84.9201C271.331 84.5323 271.822 84.0098 272.172 83.3955C272.522 82.7812 272.722 82.0925 272.754 81.3862C272.754 80.0963 271.853 79.6192 270.739 80.22C270.148 80.6077 269.657 81.1302 269.307 81.7445C268.956 82.3589 268.757 83.0475 268.725 83.7539Z" fill="#1A3E78"/>
<path d="M261.566 87.8533C261.566 89.1432 262.468 89.6202 263.581 89.0195C264.174 88.6328 264.665 88.1105 265.016 87.496C265.366 86.8814 265.565 86.1922 265.596 85.4856C265.596 84.2133 264.695 83.7186 263.581 84.337C262.989 84.7199 262.497 85.2388 262.147 85.8505C261.796 86.4623 261.597 87.149 261.566 87.8533Z" fill="#1A3E78"/>
<path d="M254.496 91.8821C254.496 93.1719 255.397 93.649 256.511 93.0482C257.103 92.6615 257.595 92.1393 257.945 91.5247C258.296 90.9102 258.495 90.221 258.526 89.5143C258.526 88.2244 257.624 87.7474 256.511 88.3481C255.918 88.7348 255.427 89.2571 255.076 89.8716C254.726 90.4862 254.527 91.1754 254.496 91.8821Z" fill="#D5ECFB"/>
<path d="M247.428 96.0697C247.428 97.3419 248.329 97.8366 249.443 97.2359C250.034 96.8481 250.525 96.3256 250.875 95.7113C251.225 95.097 251.425 94.4083 251.457 93.702C251.457 92.4121 250.556 91.935 249.443 92.5358C248.851 92.9235 248.36 93.446 248.01 94.0603C247.66 94.6747 247.46 95.3633 247.428 96.0697Z" fill="#1A3E78"/>
<path d="M217.383 117.044L221.536 114.64C221.878 114.397 222.157 114.077 222.35 113.705C222.544 113.334 222.646 112.921 222.65 112.502V108.12C222.65 107.308 222.155 106.919 221.536 107.272L217.383 109.675C217.042 109.918 216.763 110.239 216.569 110.61C216.376 110.982 216.273 111.394 216.27 111.813V116.195C216.323 117.008 216.817 117.397 217.383 117.044Z" fill="#1A3E78"/>
<path d="M211.462 159.256L298.893 108.792C299.967 108.016 300.846 107 301.459 105.825C302.073 104.651 302.404 103.349 302.427 102.024V85.3442C302.427 82.7468 300.837 81.5453 298.893 82.6761L211.462 133.14C210.383 133.912 209.501 134.926 208.887 136.102C208.273 137.278 207.944 138.582 207.928 139.908V156.57C207.928 159.185 209.501 160.387 211.462 159.256Z" fill="#5793CE"/>
<path opacity="0.4" d="M213.974 153.408L296.385 105.841C296.927 105.448 297.37 104.933 297.677 104.338C297.984 103.742 298.147 103.083 298.152 102.413V89.8854C298.152 88.5602 297.357 87.9417 296.385 88.5248L213.974 136.056C213.432 136.45 212.99 136.965 212.683 137.56C212.376 138.156 212.213 138.814 212.206 139.484V152.012C212.171 153.372 212.984 153.973 213.974 153.408Z" fill="#D5ECFB"/>
<path d="M279.24 109.41L291.611 102.342C292.145 101.961 292.583 101.461 292.889 100.881C293.196 100.302 293.364 99.6585 293.379 99.0029C293.379 97.713 292.583 97.1299 291.611 97.6776L279.24 104.745C278.703 105.124 278.263 105.623 277.956 106.204C277.649 106.784 277.483 107.429 277.473 108.085C277.473 109.393 278.233 109.976 279.24 109.41Z" fill="#D5ECFB"/>
<path d="M268.725 113.086C268.725 114.375 269.626 114.853 270.739 114.252C271.332 113.865 271.824 113.343 272.174 112.728C272.524 112.114 272.723 111.425 272.754 110.718C272.754 109.446 271.853 108.951 270.739 109.569C270.147 109.952 269.655 110.471 269.305 111.083C268.954 111.695 268.755 112.381 268.725 113.086Z" fill="white"/>
<path d="M261.566 117.238C261.566 118.528 262.468 119.005 263.581 118.404C264.174 118.017 264.665 117.495 265.016 116.881C265.366 116.266 265.565 115.577 265.596 114.87C265.596 113.58 264.695 113.103 263.581 113.704C262.989 114.091 262.497 114.613 262.147 115.227C261.796 115.842 261.597 116.531 261.566 117.238Z" fill="#1A3E78"/>
<path d="M254.496 121.355C254.496 122.627 255.397 123.122 256.511 122.521C257.102 122.133 257.593 121.611 257.944 120.996C258.294 120.382 258.493 119.693 258.526 118.987C258.526 117.697 257.624 117.22 256.511 117.821C255.919 118.209 255.428 118.731 255.078 119.346C254.728 119.96 254.528 120.648 254.496 121.355Z" fill="#D5ECFB"/>
<path d="M247.428 125.454C247.428 126.744 248.329 127.221 249.443 126.62C250.034 126.233 250.525 125.71 250.875 125.096C251.225 124.482 251.425 123.793 251.457 123.087C251.457 121.814 250.556 121.32 249.443 121.92C248.851 122.308 248.36 122.831 248.01 123.445C247.66 124.059 247.46 124.748 247.428 125.454Z" fill="#1A3E78"/>
<path d="M217.383 146.428L221.536 144.043C221.875 143.797 222.151 143.476 222.344 143.105C222.538 142.734 222.642 142.323 222.65 141.905V137.523C222.65 136.692 222.155 136.303 221.536 136.674L217.383 139.06C217.042 139.303 216.763 139.623 216.569 139.995C216.376 140.367 216.273 140.779 216.27 141.198V145.58C216.323 146.41 216.817 146.781 217.383 146.428Z" fill="#1A3E78"/>
<path d="M211.462 188.641L298.893 138.176C299.969 137.402 300.849 136.387 301.463 135.212C302.077 134.037 302.407 132.734 302.427 131.409V114.747C302.427 112.131 300.837 110.93 298.893 112.061L211.462 162.56C210.385 163.334 209.504 164.349 208.89 165.524C208.277 166.699 207.947 168.002 207.928 169.328V185.99C207.928 188.57 209.501 189.772 211.462 188.641Z" fill="#5793CE"/>
<path opacity="0.4" d="M213.974 182.792L296.385 135.226C296.927 134.833 297.37 134.318 297.677 133.722C297.984 133.127 298.147 132.467 298.152 131.798V119.27C298.152 117.945 297.357 117.326 296.385 117.909L213.974 165.476C213.432 165.87 212.99 166.385 212.683 166.98C212.376 167.576 212.213 168.234 212.206 168.904V181.432C212.171 182.757 212.984 183.375 213.974 182.792Z" fill="#D5ECFB"/>
<path d="M279.24 138.812L291.611 131.745C292.146 131.364 292.584 130.864 292.891 130.284C293.198 129.705 293.365 129.061 293.379 128.405C293.379 127.133 292.583 126.532 291.611 127.098L279.24 134.165C278.703 134.544 278.263 135.043 277.956 135.624C277.649 136.204 277.483 136.848 277.473 137.505C277.473 138.777 278.233 139.36 279.24 138.812Z" fill="#D5ECFB"/>
<path d="M268.725 142.523C268.725 143.813 269.626 144.29 270.739 143.689C271.332 143.303 271.824 142.78 272.174 142.166C272.524 141.551 272.723 140.862 272.754 140.155C272.754 138.865 271.853 138.388 270.739 138.989C270.147 139.376 269.655 139.898 269.305 140.513C268.954 141.127 268.756 141.816 268.725 142.523Z" fill="white"/>
<path d="M261.566 146.658C261.566 147.93 262.468 148.425 263.581 147.824C264.173 147.436 264.664 146.914 265.014 146.299C265.364 145.685 265.564 144.996 265.596 144.29C265.596 143 264.695 142.523 263.581 143.124C262.99 143.512 262.499 144.034 262.148 144.648C261.798 145.263 261.599 145.951 261.566 146.658Z" fill="#1A3E78"/>
<path d="M254.496 150.739C254.496 152.029 255.397 152.506 256.511 151.906C257.102 151.518 257.593 150.995 257.944 150.381C258.294 149.767 258.493 149.078 258.526 148.372C258.526 147.099 257.624 146.605 256.511 147.205C255.919 147.593 255.428 148.116 255.078 148.73C254.728 149.344 254.528 150.033 254.496 150.739Z" fill="#D5ECFB"/>
<path d="M247.428 154.839C247.428 156.129 248.329 156.606 249.443 156.005C250.035 155.618 250.527 155.096 250.877 154.482C251.227 153.867 251.426 153.178 251.457 152.471C251.457 151.181 250.556 150.704 249.443 151.305C248.85 151.692 248.358 152.214 248.008 152.828C247.658 153.443 247.459 154.132 247.428 154.839Z" fill="#1A3E78"/>
<path d="M217.383 175.813L221.536 173.427C221.878 173.184 222.157 172.864 222.35 172.492C222.544 172.12 222.646 171.708 222.65 171.289V166.907C222.65 166.077 222.155 165.706 221.536 166.059L217.383 168.444C217.045 168.69 216.768 169.011 216.575 169.382C216.382 169.753 216.277 170.164 216.27 170.582V174.929C216.323 175.795 216.817 176.184 217.383 175.813Z" fill="#1A3E78"/>
<path d="M211.462 218.025L298.893 167.561C299.969 166.787 300.849 165.771 301.463 164.596C302.077 163.421 302.407 162.119 302.427 160.793V144.131C302.427 141.516 300.837 140.332 298.893 141.445L211.462 191.91C210.385 192.683 209.504 193.698 208.89 194.873C208.277 196.048 207.947 197.351 207.928 198.677V215.357C207.928 217.955 209.501 219.103 211.462 218.025Z" fill="#5793CE"/>
<path opacity="0.4" d="M213.974 212.177L296.385 164.628C296.939 164.221 297.388 163.689 297.695 163.074C298.002 162.46 298.159 161.781 298.152 161.094V148.654C298.152 147.329 297.357 146.728 296.385 147.294L213.974 194.86C213.435 195.257 212.995 195.773 212.689 196.368C212.382 196.962 212.217 197.62 212.206 198.288V210.834C212.171 212.141 212.984 212.76 213.974 212.177Z" fill="#D5ECFB"/>
<path d="M279.24 168.197L291.611 161.129C292.145 160.752 292.582 160.255 292.889 159.678C293.196 159.101 293.364 158.46 293.379 157.807C293.379 156.517 292.583 155.917 291.611 156.482L279.24 163.55C278.704 163.924 278.264 164.421 277.956 164.998C277.649 165.576 277.483 166.218 277.473 166.872C277.473 168.162 278.233 168.762 279.24 168.197Z" fill="#D5ECFB"/>
<path d="M268.725 171.925C268.725 173.197 269.626 173.692 270.739 173.091C271.331 172.704 271.822 172.181 272.172 171.567C272.522 170.953 272.722 170.264 272.754 169.558C272.754 168.268 271.853 167.791 270.739 168.391C270.148 168.779 269.657 169.302 269.307 169.916C268.956 170.53 268.757 171.219 268.725 171.925Z" fill="#1A3E78"/>
<path d="M261.566 176.025C261.566 177.314 262.468 177.792 263.581 177.191C264.173 176.803 264.664 176.281 265.014 175.666C265.364 175.052 265.564 174.363 265.596 173.657C265.596 172.385 264.695 171.89 263.581 172.491C262.99 172.878 262.499 173.401 262.148 174.015C261.798 174.63 261.599 175.318 261.566 176.025Z" fill="#1A3E78"/>
<path d="M254.496 180.124C254.496 181.414 255.397 181.891 256.511 181.29C257.103 180.903 257.595 180.381 257.945 179.767C258.296 179.152 258.495 178.463 258.526 177.756C258.526 176.466 257.624 175.989 256.511 176.59C255.918 176.977 255.427 177.499 255.076 178.113C254.726 178.728 254.527 179.417 254.496 180.124Z" fill="#D5ECFB"/>
<path d="M247.428 184.241C247.428 185.513 248.329 186.008 249.443 185.39C250.037 185.005 250.53 184.483 250.881 183.868C251.232 183.253 251.429 182.563 251.457 181.856C251.457 180.566 250.556 180.089 249.443 180.689C248.848 181.078 248.354 181.603 248.004 182.221C247.653 182.839 247.456 183.531 247.428 184.241Z" fill="#1A3E78"/>
<path d="M217.383 205.215L221.536 202.812C221.878 202.569 222.157 202.248 222.35 201.877C222.544 201.505 222.646 201.093 222.65 200.674V196.292C222.65 195.479 222.155 195.09 221.536 195.443L217.383 197.9C217.042 198.143 216.763 198.463 216.569 198.835C216.376 199.206 216.273 199.619 216.27 200.038V204.42C216.323 205.179 216.817 205.568 217.383 205.215Z" fill="#D5ECFB"/>
<path d="M211.462 247.374L298.893 196.91C299.967 196.134 300.846 195.118 301.459 193.944C302.073 192.769 302.404 191.468 302.427 190.143V173.515C302.427 170.918 300.837 169.717 298.893 170.847L211.462 221.312C210.383 222.083 209.501 223.098 208.887 224.273C208.273 225.449 207.944 226.753 207.928 228.079V244.742C207.928 247.374 209.501 248.541 211.462 247.374Z" fill="#5793CE"/>
<path opacity="0.4" d="M213.974 241.579L296.385 194.012C296.924 193.616 297.365 193.101 297.671 192.506C297.978 191.911 298.142 191.253 298.152 190.584V178.039C298.152 176.731 297.357 176.113 296.385 176.696L213.974 224.245C213.421 224.652 212.972 225.185 212.665 225.799C212.358 226.414 212.201 227.092 212.206 227.779V240.307C212.171 241.543 212.984 242.074 213.974 241.579Z" fill="#D5ECFB"/>
<path d="M279.24 197.582L291.611 190.514C292.145 190.132 292.583 189.632 292.889 189.053C293.196 188.473 293.364 187.83 293.379 187.174C293.379 185.884 292.583 185.301 291.611 185.849L279.24 192.917C278.702 193.294 278.262 193.793 277.954 194.374C277.647 194.954 277.482 195.6 277.473 196.256C277.473 197.546 278.233 198.147 279.24 197.582Z" fill="#D5ECFB"/>
<path d="M268.725 201.31C268.725 202.6 269.626 203.077 270.739 202.476C271.331 202.088 271.822 201.566 272.172 200.951C272.522 200.337 272.722 199.648 272.754 198.942C272.754 197.67 271.853 197.175 270.739 197.776C270.148 198.164 269.657 198.686 269.307 199.301C268.956 199.915 268.757 200.603 268.725 201.31Z" fill="#1A3E78"/>
<path d="M261.566 205.409C261.566 206.699 262.468 207.176 263.581 206.575C264.174 206.189 264.665 205.666 265.016 205.052C265.366 204.437 265.565 203.748 265.596 203.041C265.596 201.752 264.695 201.274 263.581 201.875C262.989 202.262 262.497 202.784 262.147 203.399C261.796 204.013 261.597 204.702 261.566 205.409Z" fill="white"/>
<path d="M254.496 209.526C254.496 210.798 255.397 211.293 256.511 210.675C257.105 210.29 257.599 209.768 257.949 209.153C258.3 208.538 258.498 207.848 258.526 207.141C258.526 205.851 257.624 205.374 256.511 205.975C255.916 206.363 255.423 206.888 255.072 207.506C254.722 208.124 254.524 208.816 254.496 209.526Z" fill="#D5ECFB"/>
<path d="M247.428 213.625C247.428 214.915 248.329 215.392 249.443 214.792C250.034 214.404 250.525 213.881 250.875 213.267C251.225 212.653 251.425 211.964 251.457 211.258C251.457 209.968 250.556 209.491 249.443 210.092C248.851 210.479 248.36 211.002 248.01 211.616C247.66 212.23 247.46 212.919 247.428 213.625Z" fill="white"/>
<path d="M217.383 234.599L221.536 232.214C221.876 231.965 222.153 231.641 222.347 231.267C222.54 230.893 222.643 230.479 222.65 230.058V225.676C222.65 224.863 222.155 224.475 221.536 224.846L217.383 227.231C217.042 227.474 216.763 227.795 216.569 228.166C216.376 228.538 216.273 228.95 216.27 229.369V233.751C216.323 234.582 216.817 235.006 217.383 234.599Z" fill="#D5ECFB"/>
<path d="M211.462 276.812L298.893 226.348C299.967 225.571 300.846 224.556 301.459 223.381C302.073 222.206 302.404 220.905 302.427 219.58V202.918C302.427 200.303 300.837 199.101 298.893 200.232L211.462 250.696C210.383 251.468 209.501 252.482 208.887 253.658C208.273 254.834 207.944 256.138 207.928 257.464V274.126C207.928 276.741 209.501 277.943 211.462 276.812Z" fill="#5793CE"/>
<path opacity="0.4" d="M213.974 270.963L296.385 223.397C296.927 223.004 297.37 222.489 297.677 221.893C297.984 221.298 298.147 220.639 298.152 219.969V207.441C298.152 206.116 297.357 205.498 296.385 206.081L213.974 253.647C213.432 254.041 212.99 254.556 212.683 255.152C212.376 255.747 212.213 256.405 212.206 257.075V269.603C212.171 270.928 212.984 271.546 213.974 270.963Z" fill="#D5ECFB"/>
<path d="M279.24 226.984L291.611 219.916C292.145 219.535 292.583 219.034 292.889 218.455C293.196 217.875 293.364 217.232 293.379 216.576C293.379 215.287 292.583 214.703 291.611 215.269L279.24 222.337C278.703 222.715 278.263 223.215 277.956 223.795C277.649 224.375 277.483 225.02 277.473 225.676C277.473 226.948 278.233 227.532 279.24 226.984Z" fill="#D5ECFB"/>
<path d="M268.725 230.694C268.725 231.984 269.626 232.461 270.739 231.86C271.332 231.474 271.824 230.952 272.174 230.337C272.524 229.722 272.723 229.033 272.754 228.327C272.754 227.037 271.853 226.56 270.739 227.16C270.147 227.547 269.655 228.069 269.305 228.684C268.954 229.298 268.756 229.988 268.725 230.694Z" fill="#1A3E78"/>
<path d="M261.566 234.811C261.566 236.084 262.468 236.578 263.581 235.96C264.176 235.575 264.669 235.054 265.02 234.439C265.37 233.824 265.568 233.133 265.596 232.426C265.596 231.136 264.695 230.659 263.581 231.26C262.986 231.648 262.493 232.173 262.143 232.791C261.792 233.409 261.595 234.102 261.566 234.811Z" fill="#1A3E78"/>
<path d="M254.496 238.911C254.496 240.201 255.397 240.678 256.511 240.077C257.102 239.689 257.593 239.167 257.944 238.552C258.294 237.938 258.493 237.249 258.526 236.543C258.526 235.253 257.624 234.776 256.511 235.377C255.919 235.765 255.428 236.287 255.078 236.901C254.728 237.516 254.528 238.204 254.496 238.911Z" fill="#D5ECFB"/>
<path d="M247.428 243.01C247.428 244.3 248.329 244.777 249.443 244.176C250.035 243.79 250.527 243.267 250.877 242.653C251.227 242.038 251.426 241.349 251.457 240.642C251.457 239.37 250.556 238.875 249.443 239.494C248.85 239.877 248.359 240.396 248.008 241.007C247.658 241.619 247.459 242.306 247.428 243.01Z" fill="#1A3E78"/>
<path d="M217.383 263.984L221.536 261.598C221.876 261.353 222.153 261.033 222.346 260.661C222.54 260.29 222.643 259.879 222.65 259.46V255.078C222.65 254.248 222.155 253.877 221.536 254.23L217.383 256.616C217.044 256.861 216.766 257.182 216.573 257.553C216.38 257.924 216.276 258.335 216.27 258.754V263.136C216.323 263.966 216.817 264.337 217.383 263.984Z" fill="#1A3E78"/>
<path d="M211.462 306.197L298.893 255.732C299.969 254.958 300.849 253.943 301.463 252.768C302.077 251.592 302.407 250.29 302.427 248.965V232.302C302.427 229.687 300.837 228.486 298.893 229.617L211.462 280.081C210.385 280.854 209.504 281.869 208.89 283.044C208.277 284.22 207.947 285.523 207.928 286.848V303.528C207.928 306.126 209.501 307.327 211.462 306.197Z" fill="#5793CE"/>
<path opacity="0.4" d="M213.974 300.383L296.385 252.817C296.927 252.424 297.37 251.909 297.677 251.313C297.984 250.718 298.147 250.059 298.152 249.389V236.773C298.152 235.448 297.357 234.847 296.385 235.412L213.974 282.979C213.432 283.373 212.99 283.888 212.683 284.483C212.376 285.078 212.213 285.737 212.206 286.407V298.934C212.171 300.383 212.984 300.931 213.974 300.383Z" fill="#D5ECFB"/>
<path d="M279.24 256.368L291.611 249.3C292.146 248.92 292.584 248.42 292.891 247.84C293.198 247.26 293.365 246.617 293.379 245.961C293.379 244.689 292.583 244.088 291.611 244.653L279.24 251.721C278.704 252.096 278.264 252.592 277.956 253.169C277.649 253.747 277.483 254.389 277.473 255.043C277.473 256.333 278.233 256.916 279.24 256.368Z" fill="#D5ECFB"/>
<path d="M266.479 261.687C266.479 264.108 268.246 265.097 270.278 263.878C271.386 263.155 272.309 262.182 272.972 261.037C273.635 259.892 274.02 258.608 274.096 257.287C274.096 254.866 272.328 253.877 270.278 255.096C269.169 255.816 268.245 256.788 267.585 257.934C266.924 259.08 266.545 260.366 266.479 261.687Z" fill="white"/>
<path d="M251.758 270.345C251.758 271.635 252.659 272.112 253.773 271.511C254.365 271.124 254.857 270.602 255.207 269.988C255.558 269.373 255.756 268.684 255.787 267.977C255.787 266.687 254.886 266.21 253.773 266.811C253.18 267.198 252.688 267.72 252.338 268.335C251.988 268.949 251.789 269.638 251.758 270.345Z" fill="#1A3E78"/>
<path d="M244.635 274.409C244.635 275.681 245.536 276.176 246.65 275.557C247.244 275.173 247.737 274.651 248.088 274.036C248.439 273.421 248.636 272.731 248.664 272.023C248.664 270.734 247.763 270.257 246.65 270.857C246.055 271.246 245.561 271.771 245.211 272.389C244.86 273.006 244.663 273.699 244.635 274.409Z" fill="#D5ECFB"/>
<path d="M237.531 278.508C237.531 279.798 238.433 280.275 239.546 279.675C240.137 279.287 240.628 278.764 240.979 278.15C241.329 277.536 241.528 276.847 241.561 276.141C241.561 274.851 240.659 274.374 239.546 274.974C238.955 275.362 238.464 275.885 238.113 276.499C237.763 277.113 237.564 277.802 237.531 278.508Z" fill="#1A3E78"/>
<path d="M217.383 293.315L221.536 290.93C221.878 290.687 222.157 290.367 222.35 289.995C222.544 289.623 222.646 289.211 222.65 288.792V284.481C222.65 283.65 222.155 283.279 221.536 283.632L217.383 286C217.043 286.249 216.766 286.573 216.573 286.947C216.379 287.321 216.276 287.735 216.27 288.156V292.538C216.323 293.315 216.817 293.739 217.383 293.315Z" fill="#D5ECFB"/>
<path d="M566.733 351.89L395 252.728L588.595 261.846L600.612 273.331L603.228 290.594L601.302 302.309L595.558 316.551L589.814 327.701L583.363 336.058L566.733 351.89Z" fill="#1A3E78"/>
<path d="M422.395 162.313C422.112 162.119 421.811 161.96 421.511 161.783C414.654 158.108 405.34 158.779 395.001 164.698L160.439 300.083C161.434 300.853 162.341 301.73 163.143 302.698L171.98 297.574L219.433 400.694L244.017 434.266L260.047 439.849L276.112 433.577L354.14 389.244L508.8 300.896L565.549 266.811L580.36 262.111L593.685 261.316L422.395 162.313Z" fill="#D5ECFB"/>
<path d="M237.018 414.317C237.018 390.056 254.126 360.425 275.158 348.286V352.473C256.123 363.464 240.641 390.269 240.641 412.232C240.641 434.195 256.123 443.136 275.158 432.146L566.769 263.843C577.284 257.782 586.81 257.216 593.703 261.192L422.395 162.295L421.511 161.783C414.654 158.108 405.34 158.779 395.001 164.698L160.439 300.083C161.434 300.853 162.341 301.73 163.143 302.698L171.98 297.574L219.433 400.694L239.068 427.498C237.63 423.255 236.937 418.796 237.018 414.317Z" fill="#D5ECFB"/>
<path d="M237.018 412.002C237.018 412.426 237.018 412.815 237.018 413.239C237.265 401.118 241.666 387.777 248.629 375.991L247.657 375.373C241.1 387.088 237.018 400.181 237.018 412.002Z" fill="white"/>
<path d="M566.733 261.51L275.121 429.813C256.547 440.539 241.348 432.269 240.641 411.419C240.641 411.684 240.641 411.949 240.641 412.214C240.641 434.177 256.123 443.118 275.157 432.128L566.768 263.825C577.284 257.764 586.81 257.199 593.702 261.174L585.431 256.386C578.827 256.196 572.317 257.981 566.733 261.51Z" fill="white"/>
<path d="M219.486 398.379L172.033 295.241L163.196 300.383C162.825 299.959 162.454 299.553 162.065 299.164L160.492 300.083C161.487 300.853 162.393 301.73 163.196 302.698L172.033 297.574L219.486 400.694L239.121 427.498C238.686 426.255 238.326 424.986 238.043 423.699L219.486 398.379Z" fill="white"/>
<path d="M103.443 249.141C82.4121 261.263 65.3926 290.877 65.3926 315.155C65.3926 326.87 69.3868 335.228 75.8729 339.362H75.979C76.3501 339.61 76.7566 339.839 77.1454 340.051L248.259 438.895L237.779 419.971L238.998 401.065L242.303 390.463L247.358 379.137C247.358 379.137 251.547 371.38 251.812 371.203C252.077 371.026 257.997 363.358 257.997 363.358L263.759 357.35L270.015 353.339L275.229 348.232L103.443 249.141Z" fill="#5793CE"/>
<path d="M566.733 351.89V347.72C585.767 336.729 601.249 309.925 601.249 287.944C601.249 265.963 585.767 257.04 566.733 268.03L275.122 436.333C254.09 448.472 236.982 438.595 236.982 414.317C236.982 390.039 254.09 360.424 275.122 348.285V352.473C256.087 363.464 240.605 390.268 240.605 412.232C240.605 434.195 256.087 443.136 275.122 432.145L566.733 263.842C587.764 251.721 604.872 261.581 604.872 285.859C604.872 310.137 587.764 339.751 566.733 351.89Z" fill="#1A3E78"/>
<path d="M430.171 292.679L348.52 246.597C346.51 245.708 344.319 245.303 342.124 245.417C339.929 245.53 337.791 246.159 335.883 247.251L289.226 274.833C285.514 277.024 285.143 280.311 288.395 282.131L370.064 328.23C372.072 329.116 374.259 329.518 376.451 329.404C378.643 329.29 380.777 328.665 382.683 327.577L429.34 299.977C432.999 297.786 433.441 294.517 430.171 292.679Z" fill="#5793CE"/>
<path d="M368.031 318.23L284.082 270.946C283.391 270.63 282.797 270.136 282.359 269.515C281.921 268.894 281.656 268.169 281.59 267.412L281.484 258.065L286.168 261.917L338.481 230.977C342.74 228.468 349.209 228.132 352.938 230.235L433.175 275.434L439.308 271.9L439.414 281.335C439.281 282.355 438.885 283.323 438.265 284.144C437.646 284.964 436.824 285.61 435.879 286.018L382.47 317.593C378.211 319.997 371.76 320.332 368.031 318.23Z" fill="#CA2586"/>
<path d="M436.745 268.03L352.797 220.746C349.067 218.644 342.599 218.979 338.34 221.489L284.931 253.064C280.671 255.591 280.247 259.319 283.976 261.422L367.925 308.723C371.654 310.826 378.123 310.49 382.382 307.964L435.791 276.388C440.068 273.879 440.474 270.133 436.745 268.03Z" fill="#E93E8F"/>
<path d="M367.924 308.723L283.976 261.51C283.087 261.154 282.358 260.485 281.929 259.629C281.499 258.773 281.397 257.789 281.643 256.863C282.116 257.796 282.87 258.556 283.799 259.036L367.73 306.32C371.459 308.423 377.945 308.087 382.187 305.578L435.596 273.879C437.123 273.099 438.302 271.775 438.901 270.168C439.873 272.165 438.813 274.568 435.79 276.353L382.381 307.928C378.21 310.49 371.654 310.826 367.924 308.723Z" fill="white"/>
<path d="M348.68 255.767C351.772 254.001 351.737 251.032 348.68 249.265C346.924 248.405 344.991 247.968 343.036 247.99C341.081 248.011 339.158 248.49 337.422 249.389C334.329 251.156 334.364 254.124 337.422 255.891C339.174 256.762 341.108 257.205 343.065 257.184C345.023 257.162 346.947 256.677 348.68 255.767Z" fill="white"/>
<path d="M360.219 266.842C364.621 266.796 368.168 264.702 368.141 262.165C368.114 259.628 364.524 257.608 360.123 257.655C355.721 257.701 352.174 259.795 352.2 262.332C352.227 264.869 355.817 266.888 360.219 266.842Z" fill="white"/>
<path d="M377.375 276.504C381.777 276.458 385.324 274.364 385.297 271.827C385.271 269.29 381.681 267.27 377.279 267.316C372.877 267.362 369.33 269.457 369.357 271.994C369.383 274.531 372.973 276.55 377.375 276.504Z" fill="white"/>
<path d="M319.835 351.342L251.404 311.444L247.109 313.901L315.541 353.798L319.835 351.342Z" fill="#5793CE"/>
<path d="M317.927 328.584L270.174 300.737L265.879 303.193L313.65 331.04L317.927 328.584Z" fill="#5793CE"/>
<path d="M302.109 330.192L260.789 306.091L256.494 308.547L297.815 332.63L302.109 330.192Z" fill="#5793CE"/>
<path d="M329.22 345.988L308.56 333.938L304.266 336.394L324.926 348.444L329.22 345.988Z" fill="#5793CE"/>
<path d="M479.568 257.375L411.136 217.495L406.842 219.934L475.273 259.831L479.568 257.375Z" fill="#5793CE"/>
<path d="M477.66 234.617L429.888 206.77L425.594 209.226L473.365 237.073L477.66 234.617Z" fill="#5793CE"/>
<path d="M461.842 236.225L420.521 212.124L416.227 214.58L457.547 238.681L461.842 236.225Z" fill="#5793CE"/>
<path d="M488.933 252.022L468.273 239.971L463.979 242.427L484.656 254.478L488.933 252.022Z" fill="#5793CE"/>
<path d="M422.394 162.295L421.511 161.783C414.654 158.108 405.34 158.779 395.001 164.698L375.312 176.06L402.989 191.963C403.485 192.323 404.078 192.529 404.691 192.555C405.304 192.58 405.911 192.423 406.435 192.104L440.192 172.526L422.394 162.295Z" fill="#ACD6F3"/>
<path d="M465.271 132.663L456.434 127.539L489.183 108.633C489.497 108.495 489.763 108.268 489.951 107.981C490.138 107.694 490.237 107.359 490.237 107.016C490.237 106.673 490.138 106.338 489.951 106.051C489.763 105.764 489.497 105.538 489.183 105.399L455.674 86.0864C454.805 85.651 453.846 85.4244 452.873 85.4244C451.901 85.4244 450.941 85.651 450.072 86.0864L417.323 104.993L408.486 99.8687L441.235 80.9622C444.861 79.1326 448.865 78.1794 452.926 78.1794C456.987 78.1794 460.992 79.1326 464.617 80.9622L498.073 100.275C504.506 104.003 504.506 110.046 498.073 113.775L465.271 132.663Z" fill="#E93E8F"/>
<path d="M479.603 134.925C479.603 130.19 476.705 124.659 473.152 122.556L413.823 88.3481C413.219 87.922 412.513 87.6646 411.776 87.6025C411.04 87.5404 410.3 87.6757 409.634 87.9947L338.781 129.165L407.301 180.778L477.182 140.279C477.401 140.179 477.609 140.055 477.8 139.908C478.459 139.268 478.963 138.487 479.275 137.624C479.587 136.761 479.699 135.838 479.603 134.925Z" fill="#D5ECFB"/>
<path d="M407.302 180.778L477.183 140.279C477.402 140.179 477.61 140.055 477.801 139.908C478.475 139.276 478.996 138.499 479.324 137.636C479.652 136.772 479.778 135.845 479.692 134.925C479.63 132.536 479.026 130.191 477.925 128.069L398.395 174.01L407.302 180.778Z" fill="#1A3E78"/>
<path d="M402.831 180.583L343.502 146.34C339.967 144.29 337.051 138.777 337.051 133.971C337.051 129.218 339.949 127.045 343.502 129.094L402.831 163.356C406.366 165.405 409.282 170.918 409.282 175.724C409.282 180.46 406.49 182.651 402.831 180.583Z" fill="#5793CE"/>
<path d="M403.554 163.073L344.207 128.829C343.595 128.387 342.872 128.125 342.12 128.072C341.367 128.019 340.615 128.177 339.947 128.529C340.547 128.38 341.171 128.358 341.78 128.465C342.389 128.571 342.968 128.804 343.482 129.147L402.812 163.391C406.346 165.458 409.262 170.971 409.262 175.76C409.37 176.736 409.227 177.724 408.847 178.63C408.466 179.536 407.861 180.33 407.089 180.937C408.856 180.389 409.987 178.428 409.987 175.424C410.022 170.653 407.106 165.14 403.554 163.073Z" fill="white"/>
<path d="M393.94 169.045L386.87 164.928C386.478 164.648 386.156 164.28 385.932 163.854C385.708 163.427 385.588 162.954 385.58 162.472C385.58 161.518 386.163 161.094 386.87 161.5L393.94 165.617C394.335 165.894 394.659 166.261 394.883 166.688C395.108 167.116 395.227 167.591 395.23 168.073C395.23 169.01 394.664 169.452 393.94 169.045Z" fill="white"/>
<path d="M402 120.348C402.474 120.189 402.886 119.885 403.178 119.479C403.47 119.073 403.628 118.586 403.628 118.086C403.628 117.586 403.47 117.099 403.178 116.693C402.886 116.287 402.474 115.983 402 115.824C400.785 115.205 399.44 114.883 398.076 114.883C396.713 114.883 395.368 115.205 394.153 115.824C393.679 115.983 393.267 116.287 392.975 116.693C392.683 117.099 392.525 117.586 392.525 118.086C392.525 118.586 392.683 119.073 392.975 119.479C393.267 119.885 393.679 120.189 394.153 120.348C395.368 120.967 396.713 121.289 398.076 121.289C399.44 121.289 400.785 120.967 402 120.348Z" fill="#5793CE"/>
<path d="M413.947 127.08C414.421 126.921 414.834 126.617 415.126 126.211C415.418 125.805 415.575 125.318 415.575 124.818C415.575 124.318 415.418 123.831 415.126 123.425C414.834 123.019 414.421 122.715 413.947 122.556C412.732 121.937 411.388 121.615 410.024 121.615C408.66 121.615 407.315 121.937 406.1 122.556C405.626 122.715 405.214 123.019 404.922 123.425C404.63 123.831 404.473 124.318 404.473 124.818C404.473 125.318 404.63 125.805 404.922 126.211C405.214 126.617 405.626 126.921 406.1 127.08C407.315 127.699 408.66 128.022 410.024 128.022C411.388 128.022 412.732 127.699 413.947 127.08Z" fill="white"/>
<path d="M425.93 133.812C426.404 133.653 426.816 133.349 427.108 132.943C427.4 132.537 427.557 132.05 427.557 131.55C427.557 131.05 427.4 130.563 427.108 130.157C426.816 129.751 426.404 129.447 425.93 129.288C424.718 128.67 423.376 128.347 422.015 128.347C420.654 128.347 419.312 128.67 418.1 129.288C417.626 129.447 417.214 129.751 416.922 130.157C416.63 130.563 416.473 131.05 416.473 131.55C416.473 132.05 416.63 132.537 416.922 132.943C417.214 133.349 417.626 133.653 418.1 133.812C419.313 134.428 420.654 134.749 422.015 134.749C423.375 134.749 424.717 134.428 425.93 133.812Z" fill="white"/>
<path d="M325.616 488.494L511.699 381.01C516.206 378.395 515.64 373.942 510.427 370.85C505.231 367.846 497.348 367.51 492.842 370.107L306.741 477.609C302.234 480.207 302.799 484.765 308.013 487.769C313.227 490.773 321.109 491.091 325.616 488.494Z" fill="#EFEFEF"/>
<path d="M526.897 344.257C526.825 344.126 526.711 344.022 526.574 343.962C526.437 343.901 526.283 343.887 526.137 343.921L516.223 345.953L520.058 352.615L526.809 345.087C526.913 344.978 526.977 344.837 526.993 344.687C527.009 344.537 526.976 344.386 526.897 344.257Z" fill="#D5ECFB"/>
<path d="M522.955 349.098C522.915 348.324 522.692 347.57 522.305 346.897C521.918 346.225 521.378 345.653 520.729 345.229C520.515 345.078 520.269 344.982 520.01 344.948C519.752 344.914 519.489 344.944 519.244 345.034C507.824 344.818 496.56 347.707 486.654 353.392L485.93 353.798L498.001 374.808L501.659 372.44C509.386 367.44 515.92 360.805 520.799 353.003L522.372 350.494C522.574 350.325 522.733 350.11 522.834 349.867C522.936 349.625 522.977 349.361 522.955 349.098Z" fill="#5793CE"/>
<path d="M500.528 369.295C500.373 366.321 499.52 363.426 498.037 360.844C496.553 358.262 494.482 356.066 491.992 354.435C487.273 351.696 483.42 353.904 483.42 359.364C483.573 362.338 484.426 365.234 485.909 367.816C487.393 370.398 489.464 372.594 491.956 374.225C496.622 376.963 500.51 374.755 500.528 369.295Z" fill="#D5ECFB"/>
<path d="M424.675 419.494L498.001 374.825L485.931 353.816L410.412 394.686L424.675 419.494Z" fill="#D5ECFB"/>
<path d="M427.697 412.956C427.514 409.444 426.505 406.025 424.751 402.976C422.998 399.927 420.55 397.335 417.605 395.41C412.021 392.159 407.479 394.774 407.479 401.224C407.658 404.735 408.664 408.153 410.414 411.202C412.165 414.251 414.611 416.844 417.552 418.77C423.102 422.021 427.697 419.406 427.697 412.956Z" fill="#D5ECFB"/>
<path d="M423.472 415.359C423.293 411.848 422.287 408.429 420.536 405.381C418.786 402.332 416.34 399.739 413.398 397.813C407.814 394.562 403.272 397.177 403.254 403.627C403.437 407.139 404.446 410.558 406.199 413.607C407.953 416.656 410.401 419.248 413.345 421.173C418.86 424.424 423.472 421.809 423.472 415.359Z" fill="#D5ECFB"/>
<path d="M406.225 397.093L309.254 452.797L323.517 477.617L420.488 421.913L406.225 397.093Z" fill="#D5ECFB"/>
<path d="M326.5 471.072C326.317 467.557 325.308 464.135 323.554 461.084C321.801 458.032 319.353 455.437 316.408 453.508C310.823 450.275 306.299 452.89 306.281 459.339C306.464 462.851 307.473 466.271 309.227 469.319C310.98 472.368 313.429 474.96 316.373 476.885C321.958 480.118 326.482 477.521 326.5 471.072Z" fill="#D5ECFB"/>
<path d="M322.874 468.969C322.591 466.808 321.832 464.736 320.653 462.903C319.473 461.07 317.902 459.521 316.052 458.367C312.518 456.282 309.708 457.696 309.902 461.512C310.183 463.674 310.941 465.747 312.12 467.58C313.3 469.414 314.873 470.962 316.724 472.114C320.312 474.181 323.069 472.785 322.874 468.969Z" fill="#3A6DAC"/>
<path d="M428.403 412.532C428.216 409.021 427.205 405.603 425.452 402.555C423.699 399.507 421.253 396.914 418.312 394.986C417.439 394.4 416.458 393.993 415.426 393.79C414.395 393.587 413.333 393.591 412.303 393.802C414.07 391.912 417.145 391.717 420.521 393.679C423.465 395.603 425.913 398.196 427.667 401.244C429.42 404.293 430.43 407.713 430.612 411.225C430.612 415.077 428.969 417.55 426.477 418.293C427.846 416.697 428.537 414.63 428.403 412.532Z" fill="white"/>
<path d="M428.402 412.532C428.215 409.021 427.204 405.603 425.451 402.555C423.698 399.507 421.252 396.914 418.31 394.986C415.518 393.361 413.008 393.219 411.153 394.262L405.656 397.407L408.219 401.86C408.559 404.998 409.547 408.032 411.12 410.769C412.693 413.506 414.816 415.887 417.356 417.762L419.919 422.304L425.415 419.158C427.253 418.027 428.384 415.766 428.402 412.532Z" fill="#5793CE"/>
<path d="M422.906 415.695C422.719 412.181 421.708 408.761 419.955 405.71C418.202 402.659 415.756 400.063 412.814 398.131C407.23 394.898 402.688 397.513 402.67 403.962C402.857 407.474 403.868 410.891 405.621 413.94C407.374 416.988 409.82 419.581 412.761 421.508C418.346 424.742 422.888 422.144 422.906 415.695Z" fill="#D5ECFB"/>
<path d="M318.315 471.778L312.165 461.071L291.61 472.892C290.907 473.295 290.289 473.833 289.793 474.474C289.298 475.116 288.933 475.85 288.722 476.633C288.51 477.416 288.455 478.233 288.559 479.037C288.664 479.841 288.926 480.617 289.331 481.32C290.148 482.738 291.495 483.774 293.075 484.201C294.655 484.628 296.34 484.412 297.761 483.599L318.315 471.778Z" fill="#E93E8F"/>
<path d="M319.606 468.969C319.527 467.451 319.09 465.973 318.332 464.656C317.573 463.338 316.514 462.219 315.24 461.389C312.837 459.993 310.875 461.124 310.875 463.898C310.955 465.414 311.39 466.889 312.145 468.206C312.9 469.523 313.954 470.644 315.223 471.478C317.644 472.874 319.588 471.778 319.606 468.969Z" fill="#E93E8F"/>
<path d="M342.687 431.598L339.647 429.831C338.593 429.346 337.429 429.149 336.274 429.261C335.119 429.372 334.014 429.789 333.073 430.467L322.469 436.545C321.415 437.225 320.537 438.144 319.907 439.228C319.278 440.313 318.914 441.531 318.846 442.782V448.083C318.795 449.058 318.415 449.986 317.768 450.716L318.121 453.155L315.523 451.635C315.307 451.502 315.134 451.309 315.025 451.081C314.915 450.852 314.873 450.597 314.905 450.345V445.044C315.05 442.431 315.808 439.888 317.12 437.623C318.431 435.357 320.257 433.432 322.451 432.004L333.055 425.943C336.59 423.911 339.895 423.593 342.387 425.042L345.427 426.809C346.481 427.294 347.645 427.491 348.8 427.379C349.955 427.267 351.059 426.851 352.001 426.173L394.576 401.718C394.776 401.573 395.011 401.485 395.257 401.463C395.503 401.441 395.75 401.487 395.972 401.595L398.57 403.114L396.326 403.945C396.018 404.891 395.394 405.702 394.559 406.242L351.983 430.696C348.484 432.728 345.179 433.047 342.687 431.598Z" fill="#5793CE"/>
<path d="M342.281 431.386C341.228 430.895 340.063 430.695 338.907 430.807C337.751 430.919 336.646 431.338 335.707 432.022L325.103 438.082C324.067 438.774 323.208 439.698 322.594 440.781C321.98 441.864 321.629 443.076 321.568 444.32V449.621C321.53 450.3 321.332 450.961 320.991 451.551C320.651 452.14 320.176 452.641 319.606 453.013C318.528 453.632 317.645 453.119 317.645 451.865V446.564C317.791 443.953 318.55 441.414 319.862 439.151C321.173 436.889 322.999 434.967 325.191 433.541L335.795 427.463C339.33 425.449 342.635 425.131 345.127 426.562L348.184 428.329C349.234 428.82 350.396 429.02 351.55 428.908C352.703 428.796 353.805 428.376 354.741 427.693L397.316 403.238C398.394 402.62 399.278 403.132 399.278 404.369C399.242 405.051 399.043 405.715 398.699 406.305C398.355 406.895 397.875 407.394 397.299 407.761L354.723 432.216C351.189 434.248 347.884 434.566 345.392 433.135L342.281 431.386Z" fill="#5793CE"/>
<path d="M321.391 445.274V450.575C321.391 450.575 321.391 450.575 321.391 450.681C321.494 450.367 321.547 450.039 321.55 449.709V444.408C321.541 444.261 321.541 444.114 321.55 443.966C321.446 444.395 321.393 444.833 321.391 445.274Z" fill="white"/>
<path d="M301.456 497.099L320.896 485.861C323.247 484.501 322.964 482.133 320.242 480.56C318.852 479.787 317.299 479.351 315.709 479.287C314.119 479.222 312.536 479.531 311.088 480.189L291.647 491.427C289.314 492.788 289.597 495.138 292.318 496.728C293.707 497.498 295.256 497.932 296.843 497.997C298.43 498.061 300.009 497.754 301.456 497.099Z" fill="#EFEFEF"/>
<path d="M95.4534 468.191L71.1348 454.162L95.4534 440.114L119.772 454.162L95.4534 468.191Z" fill="#EFEFEF"/>
<path d="M119.772 438.224L95.4531 452.271V424.194L119.772 410.147V438.224Z" fill="#CA2586"/>
<path d="M95.4534 424.194L71.1348 410.147L95.4534 396.117L119.772 410.147L95.4534 424.194Z" fill="#E93E8F"/>
<path d="M95.4534 452.271L71.1348 438.224V410.147L95.4534 424.194V452.271Z" fill="#E93E8F"/>
<path d="M27.0933 298.104L0 282.466L27.0933 266.829L54.1867 282.466L27.0933 298.104Z" fill="#EFEFEF"/>
<path d="M54.1871 264.726L27.0938 280.364V249.088L54.1871 233.451V264.726Z" fill="#1A3E78"/>
<path d="M27.0933 249.088L0 233.451L27.0933 217.813L54.1867 233.451L27.0933 249.088Z" fill="#D5ECFB"/>
<path d="M27.0933 280.364L0 264.726V233.451L27.0933 249.088V280.364Z" fill="#5793CE"/>
<path d="M582.427 245.183L528.17 213.802C524.847 211.894 525.254 208.501 529.106 206.31L581.455 176.113C583.432 175.017 585.637 174.398 587.896 174.305C590.155 174.213 592.403 174.651 594.463 175.583L648.72 206.893C652.043 208.819 651.636 212.194 647.783 214.403L595.417 244.636C593.446 245.739 591.244 246.363 588.987 246.458C586.731 246.553 584.484 246.117 582.427 245.183Z" fill="#EFEFEF"/>
<path d="M650.983 191.75V173.038H609.009L594.499 164.663C592.44 163.731 590.191 163.294 587.932 163.386C585.674 163.478 583.468 164.097 581.491 165.193L567.954 173.021H525.944V192.281C525.931 193.022 526.135 193.751 526.531 194.379C526.926 195.007 527.496 195.506 528.171 195.814L582.428 227.125C584.484 228.057 586.73 228.494 588.986 228.402C591.242 228.31 593.445 227.691 595.418 226.595L647.82 196.345C648.733 195.964 649.518 195.329 650.079 194.514C650.64 193.699 650.954 192.739 650.983 191.75Z" fill="#3A6DAC"/>
<path d="M588.526 163.355C586.06 163.355 583.632 163.962 581.456 165.122L567.918 172.95H525.909V192.21C525.896 192.952 526.1 193.681 526.496 194.308C526.891 194.936 527.461 195.435 528.136 195.744L582.393 227.054C584.259 228.01 586.344 228.455 588.437 228.344L588.526 163.355Z" fill="#3A6DAC"/>
<path d="M530.698 172.968H525.944V192.228C525.931 192.969 526.135 193.699 526.531 194.326C526.926 194.954 527.496 195.453 528.171 195.762L530.698 197.21V172.968Z" fill="#5793CE"/>
<path d="M583.223 227.425C586.58 228.645 590.265 228.607 593.597 227.319V205.462H583.223V227.425Z" fill="#5793CE"/>
<path d="M582.427 207.848L528.17 176.519C524.847 174.593 525.254 171.218 529.106 169.027L581.455 138.777C583.432 137.681 585.637 137.062 587.896 136.97C590.155 136.877 592.403 137.315 594.463 138.247L648.755 169.628C652.078 171.554 651.672 174.929 647.819 177.138L595.417 207.3C593.445 208.399 591.243 209.021 588.987 209.116C586.731 209.211 584.485 208.777 582.427 207.848Z" fill="#D5ECFB"/>
<path d="M647.819 173.374L595.417 203.624C593.444 204.721 591.241 205.34 588.985 205.432C586.729 205.524 584.483 205.086 582.427 204.155L528.17 172.844C527.514 172.478 526.946 171.971 526.509 171.36C525.36 173.127 525.89 175.194 528.17 176.519L582.427 207.848C584.485 208.777 586.732 209.211 588.987 209.116C591.243 209.021 593.445 208.399 595.417 207.3L647.819 177.067C650.806 175.3 651.707 172.932 650.417 171.042C649.75 172.016 648.859 172.815 647.819 173.374Z" fill="white"/>
<path d="M631.029 196.698C630.985 197.458 630.764 198.197 630.383 198.857C630.003 199.516 629.474 200.078 628.838 200.497C627.618 201.186 626.646 200.621 626.646 199.225C626.687 198.464 626.907 197.723 627.287 197.063C627.668 196.403 628.199 195.842 628.838 195.426C630.04 194.737 631.029 195.302 631.029 196.698Z" fill="#D5ECFB"/>
<path d="M638.01 192.599C637.968 193.357 637.748 194.095 637.367 194.752C636.986 195.409 636.456 195.967 635.818 196.38C634.599 197.087 633.627 196.521 633.627 195.125C633.667 194.364 633.887 193.624 634.268 192.964C634.649 192.303 635.18 191.743 635.818 191.326C637.091 190.673 638.01 191.238 638.01 192.599Z" fill="#D5ECFB"/>
<path d="M645.078 188.552C645.037 189.313 644.816 190.053 644.436 190.713C644.055 191.373 643.524 191.934 642.887 192.351C641.667 193.058 640.695 192.493 640.695 191.097C640.732 190.335 640.949 189.592 641.331 188.932C641.712 188.271 642.245 187.711 642.887 187.298C644.142 186.591 645.078 187.156 645.078 188.552Z" fill="#D5ECFB"/>
<path d="M585.644 188.429L560.247 173.763C558.692 172.862 558.886 171.289 560.689 170.229L585.202 156.093C586.125 155.58 587.155 155.289 588.21 155.243C589.265 155.197 590.317 155.398 591.281 155.828L616.678 170.494C618.233 171.395 618.039 172.968 616.236 174.028L591.723 188.164C590.801 188.681 589.771 188.974 588.715 189.02C587.659 189.066 586.607 188.863 585.644 188.429Z" fill="#5793CE"/>
<path d="M588.065 176.148L584.53 174.116C584.301 173.993 584.336 173.781 584.53 173.639L587.924 171.678C588.056 171.613 588.201 171.578 588.348 171.578C588.495 171.578 588.64 171.613 588.772 171.678L592.307 173.71C592.536 173.834 592.501 174.046 592.307 174.187L588.913 176.148C588.782 176.214 588.636 176.248 588.489 176.248C588.342 176.248 588.197 176.214 588.065 176.148Z" fill="#D5ECFB"/>
<path d="M560.247 173.763L560.618 173.498L585.131 159.362C586.055 158.851 587.086 158.562 588.141 158.519C589.197 158.476 590.248 158.68 591.21 159.115L616.536 173.728C617.968 172.703 618.039 171.307 616.536 170.476L591.14 155.811C590.175 155.38 589.124 155.18 588.069 155.226C587.013 155.272 585.983 155.563 585.06 156.076L560.547 170.211C558.886 171.289 558.691 172.862 560.247 173.763Z" fill="#3A6DAC"/>
</g>
<defs>
<clipPath id="clip0_422:7572">
<rect width="651" height="498" fill="white"/>
</clipPath>
</defs>
</svg>
