<svg width="152" height="53" viewBox="0 0 152 53" fill="none" xmlns="http://www.w3.org/2000/svg">
<path d="M79.9771 31.1035H73.7222L72.3174 35H70.2871L75.9883 20.0703H77.7109L83.4224 35H81.4023L79.9771 31.1035ZM74.3169 29.4834H79.3926L76.8496 22.5005L74.3169 29.4834ZM90.4976 25.6074C90.2104 25.5596 89.8994 25.5356 89.5645 25.5356C88.3203 25.5356 87.4761 26.0654 87.0317 27.125V35H85.1348V23.9053H86.9805L87.0112 25.187C87.6333 24.1958 88.5151 23.7002 89.6567 23.7002C90.0259 23.7002 90.3062 23.748 90.4976 23.8438V25.6074ZM101.644 29.5757C101.644 31.271 101.254 32.6348 100.475 33.667C99.6953 34.6924 98.6494 35.2051 97.3369 35.2051C95.9355 35.2051 94.8521 34.7095 94.0864 33.7183L93.9941 35H92.251V19.25H94.1479V25.1255C94.9136 24.1753 95.9697 23.7002 97.3164 23.7002C98.6631 23.7002 99.7192 24.2095 100.485 25.228C101.257 26.2466 101.644 27.6411 101.644 29.4116V29.5757ZM99.7466 29.3604C99.7466 28.0684 99.4971 27.0703 98.998 26.3662C98.499 25.6621 97.7812 25.3101 96.8447 25.3101C95.5938 25.3101 94.6948 25.8911 94.1479 27.0532V31.8521C94.729 33.0142 95.6348 33.5952 96.8652 33.5952C97.7744 33.5952 98.4819 33.2432 98.9878 32.5391C99.4937 31.835 99.7466 30.7754 99.7466 29.3604ZM108.739 28.3452C107.051 27.8599 105.82 27.2651 105.048 26.561C104.282 25.8501 103.899 24.9751 103.899 23.936C103.899 22.7603 104.368 21.7896 105.304 21.0239C106.248 20.2515 107.471 19.8652 108.975 19.8652C110 19.8652 110.913 20.0635 111.713 20.46C112.52 20.8564 113.142 21.4033 113.579 22.1006C114.023 22.7979 114.246 23.5601 114.246 24.3872H112.267C112.267 23.4849 111.979 22.7773 111.405 22.2646C110.831 21.7451 110.021 21.4854 108.975 21.4854C108.004 21.4854 107.246 21.7007 106.699 22.1313C106.159 22.5552 105.889 23.1465 105.889 23.9053C105.889 24.5137 106.145 25.0298 106.658 25.4536C107.177 25.8706 108.056 26.2534 109.293 26.6021C110.537 26.9507 111.508 27.3369 112.205 27.7607C112.909 28.1777 113.429 28.6665 113.764 29.2271C114.105 29.7876 114.276 30.4473 114.276 31.2061C114.276 32.416 113.805 33.3867 112.861 34.1182C111.918 34.8428 110.657 35.2051 109.078 35.2051C108.052 35.2051 107.095 35.0103 106.207 34.6206C105.318 34.2241 104.631 33.6841 104.146 33.0005C103.667 32.3169 103.428 31.541 103.428 30.6729H105.407C105.407 31.5752 105.738 32.2896 106.401 32.8159C107.071 33.3354 107.963 33.5952 109.078 33.5952C110.117 33.5952 110.913 33.3833 111.467 32.9595C112.021 32.5356 112.297 31.958 112.297 31.2266C112.297 30.4951 112.041 29.9312 111.528 29.5347C111.016 29.1313 110.086 28.7349 108.739 28.3452ZM119.085 21.2188V23.9053H121.157V25.3716H119.085V32.252C119.085 32.6963 119.178 33.0312 119.362 33.2568C119.547 33.4756 119.861 33.585 120.306 33.585C120.524 33.585 120.825 33.5439 121.208 33.4619V35C120.709 35.1367 120.224 35.2051 119.752 35.2051C118.904 35.2051 118.265 34.9487 117.834 34.436C117.404 33.9233 117.188 33.1953 117.188 32.252V25.3716H115.168V23.9053H117.188V21.2188H119.085ZM122.674 29.3501C122.674 28.2632 122.886 27.2856 123.31 26.4175C123.741 25.5493 124.335 24.8794 125.094 24.4077C125.86 23.936 126.731 23.7002 127.709 23.7002C129.22 23.7002 130.44 24.2231 131.37 25.269C132.306 26.3149 132.774 27.7061 132.774 29.4424V29.5757C132.774 30.6558 132.566 31.6265 132.149 32.4878C131.739 33.3423 131.147 34.0088 130.375 34.4873C129.609 34.9658 128.728 35.2051 127.729 35.2051C126.226 35.2051 125.005 34.6821 124.069 33.6362C123.139 32.5903 122.674 31.2061 122.674 29.4834V29.3501ZM124.582 29.5757C124.582 30.8062 124.865 31.7939 125.433 32.5391C126.007 33.2842 126.772 33.6567 127.729 33.6567C128.693 33.6567 129.459 33.2808 130.026 32.5288C130.594 31.77 130.877 30.7104 130.877 29.3501C130.877 28.1333 130.587 27.1489 130.006 26.397C129.432 25.6382 128.666 25.2588 127.709 25.2588C126.772 25.2588 126.017 25.6313 125.443 26.3765C124.869 27.1216 124.582 28.188 124.582 29.5757ZM140.516 25.6074C140.229 25.5596 139.918 25.5356 139.583 25.5356C138.339 25.5356 137.495 26.0654 137.05 27.125V35H135.153V23.9053H136.999L137.03 25.187C137.652 24.1958 138.534 23.7002 139.675 23.7002C140.044 23.7002 140.325 23.748 140.516 23.8438V25.6074ZM146.668 35.2051C145.165 35.2051 143.941 34.7129 142.998 33.7285C142.054 32.7373 141.583 31.4146 141.583 29.7603V29.4116C141.583 28.311 141.791 27.3301 142.208 26.4688C142.632 25.6006 143.22 24.9238 143.972 24.4385C144.73 23.9463 145.551 23.7002 146.433 23.7002C147.875 23.7002 148.996 24.1753 149.796 25.1255C150.596 26.0757 150.996 27.436 150.996 29.2065V29.9961H143.479C143.507 31.0898 143.825 31.9751 144.433 32.6519C145.048 33.3218 145.828 33.6567 146.771 33.6567C147.441 33.6567 148.008 33.52 148.473 33.2466C148.938 32.9731 149.345 32.6108 149.693 32.1597L150.852 33.062C149.922 34.4907 148.528 35.2051 146.668 35.2051ZM146.433 25.2588C145.667 25.2588 145.024 25.5391 144.505 26.0996C143.985 26.6533 143.664 27.4326 143.541 28.4375H149.099V28.2939C149.044 27.3301 148.784 26.585 148.319 26.0586C147.854 25.5254 147.226 25.2588 146.433 25.2588Z" fill="white"/>
<path d="M14.7041 42.9665L20.5491 26.4847M38.084 42.9665L32.239 26.4847M20.5491 26.4847L26.3941 10.0029L32.239 26.4847M20.5491 26.4847H32.239" stroke="white" stroke-width="4"/>
<path d="M49.2463 26.748C49.2463 39.3201 39.0771 49.4961 26.552 49.4961C14.0268 49.4961 3.85742 39.3201 3.85742 26.748C3.85742 14.1759 14.0268 4 26.552 4C39.0771 4 49.2463 14.1759 49.2463 26.748Z" stroke="white" stroke-width="7"/>
</svg>
