<svg width="624" height="483" viewBox="0 0 624 483" fill="none" xmlns="http://www.w3.org/2000/svg">
<rect x="119.535" y="171.802" width="411.968" height="251.074" fill="black"/>
<rect x="123.035" y="175.302" width="404.968" height="244.074" stroke="white" stroke-opacity="0.5" stroke-width="7"/>
<rect x="107.439" y="145.754" width="435.448" height="266.268" fill="black"/>
<rect x="110.939" y="149.254" width="428.448" height="259.268" stroke="white" stroke-opacity="0.75" stroke-width="7"/>
<rect x="95.5" y="117.418" width="459.755" height="278.081" fill="black" stroke="white" stroke-width="7"/>
<path d="M570.271 48.7975C570.271 60.6436 560.838 70.1748 549.291 70.1748C537.743 70.1748 528.311 60.6436 528.311 48.7975C528.311 36.9514 537.743 27.4202 549.291 27.4202C560.838 27.4202 570.271 36.9514 570.271 48.7975Z" stroke="white" stroke-width="5"/>
<path d="M586.189 12.9878C583.521 18.312 585.616 24.7865 590.798 27.4718C595.981 30.1571 602.363 28.0749 605.03 22.7507C607.698 17.4266 605.603 10.952 600.421 8.26673C595.238 5.58145 588.856 7.66365 586.189 12.9878Z" stroke="white" stroke-width="5"/>
<path d="M72.8859 441.075C75.3953 446.48 81.7135 448.756 86.9711 446.232C92.2287 443.708 94.5167 437.301 92.0073 431.895C89.4978 426.489 83.1797 424.214 77.922 426.738C72.6644 429.262 70.3764 435.669 72.8859 441.075Z" stroke="white" stroke-width="5"/>
<path d="M576.717 104.744C569.971 100.36 565.813 94.72 567.43 92.1474C569.047 89.5749 575.826 91.0437 582.572 95.4281C589.318 99.8126 593.476 105.452 591.86 108.025C590.243 110.598 583.463 109.129 576.717 104.744Z" fill="white"/>
<path d="M576.33 77.9869C574.713 80.5595 578.871 86.1993 585.617 90.5837C592.363 94.9682 599.142 96.437 600.759 93.8644M576.33 77.9869C577.946 75.4144 584.726 76.8832 591.472 81.2676C598.218 85.6521 602.376 91.2919 600.759 93.8644M576.33 77.9869L567.43 92.1474M600.759 93.8644L591.86 108.025M567.43 92.1474C565.813 94.72 569.971 100.36 576.717 104.744C583.463 109.129 590.243 110.598 591.86 108.025M567.43 92.1474C569.047 89.5749 575.826 91.0437 582.572 95.4281C589.318 99.8126 593.476 105.452 591.86 108.025" stroke="white" stroke-width="5"/>
<path d="M59.6005 75.9996C61.5133 76.9067 63.1455 79.8717 63.1331 85.5017C63.1212 90.8909 61.55 97.7932 58.3125 104.853C55.0751 111.914 50.8856 117.574 46.8336 121.048C42.6004 124.676 39.3178 125.311 37.405 124.404C35.4921 123.496 33.8599 120.532 33.8724 114.901C33.8843 109.512 35.4555 102.61 38.6929 95.5498C41.9304 88.4896 46.1199 82.829 50.1719 79.3556C54.405 75.7269 57.6877 75.0926 59.6005 75.9996Z" stroke="white" stroke-width="5"/>
<path d="M36.7649 125.799C29.906 122.547 24.4843 116.906 21.8356 109.806C19.1869 102.705 19.4478 94.9024 22.5608 88.1135C25.6739 81.3245 31.3841 76.1057 38.4354 73.605C45.4866 71.1043 53.3817 71.3514 60.2406 74.6038" stroke="white" stroke-width="5"/>
<path d="M60.2405 74.6038C53.3816 71.3513 45.4865 71.1043 38.4353 73.605C31.3841 76.1056 25.6738 81.3245 22.5607 88.1134C20.1489 93.3732 24.095 107.625 32.5545 111.636" stroke="white" stroke-width="5"/>
<path d="M566.533 466.985C566.691 467.7 566.29 469.254 563.708 471.268C561.297 473.147 557.597 474.882 553.172 475.889C548.747 476.896 544.672 476.929 541.704 476.273C538.524 475.57 537.511 474.338 537.353 473.622C537.196 472.907 537.596 471.353 540.178 469.339C542.589 467.459 546.289 465.724 550.715 464.718C555.14 463.711 559.214 463.678 562.183 464.334C565.363 465.036 566.376 466.269 566.533 466.985Z" stroke="white" stroke-width="5"/>
<path d="M535.479 474.048C534.476 469.486 535.135 464.742 537.513 460.814C539.891 456.886 543.68 454.121 548.047 453.128C552.413 452.134 557 452.994 560.797 455.518C564.594 458.041 567.404 461.996 568.407 466.558" stroke="white" stroke-width="5"/>
<path d="M568.407 466.558C567.404 461.996 564.594 458.041 560.797 455.518C557 452.994 552.413 452.134 548.047 453.128C544.664 453.897 539.383 461.111 540.621 466.738" stroke="white" stroke-width="5"/>
<path d="M573.495 433.911C573.377 433.7 573.241 433.227 573.533 432.26C573.828 431.285 574.499 430.039 575.624 428.609C577.867 425.76 581.587 422.588 586.286 419.881C590.985 417.174 595.573 415.56 599.129 415.069C600.914 414.822 602.309 414.877 603.284 415.122C604.25 415.365 604.578 415.726 604.695 415.937C604.813 416.148 604.949 416.62 604.657 417.587C604.362 418.563 603.691 419.808 602.566 421.238C600.324 424.088 596.603 427.26 591.904 429.967C587.205 432.674 582.617 434.288 579.061 434.779C577.276 435.025 575.881 434.97 574.907 434.725C573.941 434.483 573.612 434.121 573.495 433.911Z" fill="white" stroke="white" stroke-width="5"/>
<path d="M572.34 435.53L576.622 438.062C589.809 445.86 606.491 436.193 606.616 420.681L606.655 415.763" stroke="white" stroke-width="5"/>
<path d="M26.7876 417.881L33.8966 436.778L53.0281 442.333L45.9191 423.436L26.7876 417.881Z" fill="white" stroke="white" stroke-width="5"/>
<path d="M11.9679 434.328L19.0769 453.225L38.2084 458.779L31.0994 439.882L11.9679 434.328Z" stroke="white" stroke-width="5"/>
<line y1="-2.5" x2="22.1385" y2="-2.5" transform="matrix(0.66941 -0.742894 -0.731602 -0.681733 41.4331 461.784)" stroke="white" stroke-width="5"/>
<line y1="-2.5" x2="22.1385" y2="-2.5" transform="matrix(0.66941 -0.742894 -0.731602 -0.681733 7.88286 430.521)" stroke="white" stroke-width="5"/>
<path d="M37.7963 49.8096L49.3286 44.2021L60.4394 50.6299L48.907 56.2374L37.7963 49.8096Z" fill="white" stroke="white" stroke-width="5"/>
<path d="M38.379 33.1767L49.9113 27.5692L61.0221 33.997L49.4897 39.6045L38.379 33.1767Z" stroke="white" stroke-width="5"/>
<line y1="-2.5" x2="16.6431" y2="-2.5" transform="matrix(-0.0350117 0.999387 -0.999345 -0.036205 65.5131 34.1597)" stroke="white" stroke-width="5"/>
<line y1="-2.5" x2="16.6431" y2="-2.5" transform="matrix(-0.0350117 0.999387 -0.999345 -0.036205 33.0557 32.984)" stroke="white" stroke-width="5"/>
<path d="M90.5631 65.3461L96.8629 57.1789L106.722 54.4889L100.422 62.6562L90.5631 65.3461Z" fill="white" stroke="white" stroke-width="5"/>
<path d="M112.822 50.5319L82.0471 34.3763L84.6883 69.4358" stroke="white" stroke-width="5"/>
<line y1="-2.5" x2="25.5018" y2="-2.5" transform="matrix(0.544838 0.838541 -0.830032 0.557715 81.5608 34.7024)" stroke="white" stroke-width="5"/>
<path d="M140.988 335.862C140.988 336.528 140.852 337.152 140.578 337.736C140.314 338.319 139.954 338.829 139.498 339.267C139.051 339.704 138.527 340.051 137.926 340.306C137.333 340.552 136.704 340.675 136.039 340.675H134.631C133.965 340.675 133.332 340.552 132.73 340.306C132.138 340.051 131.614 339.704 131.158 339.267C130.712 338.829 130.352 338.319 130.078 337.736C129.814 337.152 129.682 336.528 129.682 335.862V335.083L131.445 334.796V335.862C131.445 336.3 131.532 336.71 131.705 337.093C131.887 337.467 132.129 337.799 132.43 338.091C132.73 338.374 133.077 338.597 133.469 338.761C133.87 338.925 134.289 339.007 134.727 339.007H135.957C136.395 339.007 136.809 338.925 137.201 338.761C137.593 338.597 137.939 338.374 138.24 338.091C138.541 337.799 138.778 337.467 138.951 337.093C139.133 336.71 139.225 336.3 139.225 335.862V335.275C139.225 334.6 139.092 334.04 138.828 333.593C138.564 333.146 138.213 332.768 137.775 332.458C137.338 332.139 136.841 331.87 136.285 331.652C135.738 331.433 135.173 331.214 134.59 330.995C134.007 330.777 133.437 330.535 132.881 330.271C132.334 330.006 131.842 329.678 131.404 329.286C130.967 328.885 130.616 328.398 130.352 327.823C130.087 327.249 129.955 326.543 129.955 325.704V325.335C129.955 324.67 130.078 324.045 130.324 323.462C130.579 322.879 130.926 322.368 131.363 321.931C131.801 321.493 132.311 321.152 132.895 320.905C133.487 320.65 134.116 320.523 134.781 320.523H136.039C136.704 320.523 137.329 320.65 137.912 320.905C138.495 321.152 139.006 321.493 139.443 321.931C139.881 322.368 140.223 322.879 140.469 323.462C140.724 324.045 140.852 324.67 140.852 325.335V325.841L139.088 326.128V325.335C139.088 324.898 139.006 324.492 138.842 324.118C138.678 323.736 138.454 323.403 138.172 323.12C137.889 322.838 137.557 322.614 137.174 322.45C136.8 322.286 136.395 322.204 135.957 322.204H134.863C134.426 322.204 134.016 322.286 133.633 322.45C133.259 322.614 132.926 322.838 132.635 323.12C132.352 323.403 132.129 323.736 131.965 324.118C131.801 324.492 131.719 324.898 131.719 325.335V325.704C131.719 326.333 131.851 326.862 132.115 327.29C132.38 327.719 132.73 328.088 133.168 328.398C133.605 328.698 134.098 328.963 134.645 329.191C135.201 329.409 135.77 329.637 136.354 329.874C136.937 330.102 137.502 330.357 138.049 330.64C138.605 330.913 139.102 331.255 139.539 331.665C139.977 332.066 140.327 332.558 140.592 333.142C140.856 333.725 140.988 334.436 140.988 335.275V335.862ZM153.58 336.56C153.58 337.125 153.471 337.658 153.252 338.159C153.042 338.661 152.751 339.098 152.377 339.472C152.003 339.846 151.566 340.142 151.064 340.361C150.563 340.57 150.03 340.675 149.465 340.675H148.344C147.779 340.675 147.245 340.57 146.744 340.361C146.243 340.142 145.805 339.846 145.432 339.472C145.058 339.098 144.762 338.661 144.543 338.159C144.333 337.658 144.229 337.125 144.229 336.56V330.243C144.229 329.678 144.333 329.145 144.543 328.644C144.762 328.142 145.058 327.705 145.432 327.331C145.805 326.958 146.243 326.666 146.744 326.456C147.245 326.237 147.779 326.128 148.344 326.128H149.465C150.03 326.128 150.563 326.237 151.064 326.456C151.566 326.666 152.003 326.958 152.377 327.331C152.751 327.705 153.042 328.142 153.252 328.644C153.471 329.145 153.58 329.678 153.58 330.243V333.538H145.91V336.655C145.91 336.993 145.974 337.312 146.102 337.612C146.229 337.904 146.402 338.159 146.621 338.378C146.84 338.597 147.095 338.77 147.387 338.898C147.688 339.025 148.007 339.089 148.344 339.089H149.465C149.802 339.089 150.117 339.025 150.408 338.898C150.709 338.77 150.969 338.597 151.188 338.378C151.406 338.159 151.579 337.904 151.707 337.612C151.835 337.312 151.898 336.993 151.898 336.655V335.726L153.58 335.999V336.56ZM151.898 330.148C151.898 329.81 151.835 329.496 151.707 329.204C151.579 328.904 151.406 328.644 151.188 328.425C150.969 328.206 150.709 328.033 150.408 327.905C150.117 327.778 149.802 327.714 149.465 327.714H148.344C148.007 327.714 147.688 327.778 147.387 327.905C147.095 328.033 146.84 328.206 146.621 328.425C146.402 328.644 146.229 328.904 146.102 329.204C145.974 329.496 145.91 329.81 145.91 330.148V332.226H151.898V330.148ZM161.059 328.001C160.721 328.001 160.402 328.065 160.102 328.193C159.81 328.32 159.555 328.493 159.336 328.712C159.117 328.931 158.944 329.191 158.816 329.491C158.689 329.783 158.625 330.098 158.625 330.435V340.402H156.943V326.402H157.504L158.42 327.823C158.803 327.304 159.281 326.894 159.855 326.593C160.439 326.283 161.072 326.128 161.756 326.128H162.74V328.001H161.059ZM169.371 340.402H168.537L163.574 326.402H165.256L168.906 337.011L168.961 337.736L169.016 337.011L172.652 326.402H174.334L169.371 340.402ZM176.727 323.038V320.796H178.682V323.038H176.727ZM176.863 340.402V326.402H178.545V340.402H176.863ZM191.834 336.56C191.834 337.125 191.725 337.658 191.506 338.159C191.296 338.661 191.005 339.098 190.631 339.472C190.257 339.846 189.82 340.142 189.318 340.361C188.817 340.57 188.284 340.675 187.719 340.675H186.598C186.033 340.675 185.499 340.57 184.998 340.361C184.497 340.142 184.059 339.846 183.686 339.472C183.312 339.098 183.016 338.661 182.797 338.159C182.587 337.658 182.482 337.125 182.482 336.56V330.243C182.482 329.678 182.587 329.145 182.797 328.644C183.016 328.142 183.312 327.705 183.686 327.331C184.059 326.958 184.497 326.666 184.998 326.456C185.499 326.237 186.033 326.128 186.598 326.128H187.719C188.284 326.128 188.817 326.237 189.318 326.456C189.82 326.666 190.257 326.958 190.631 327.331C191.005 327.705 191.296 328.142 191.506 328.644C191.725 329.145 191.834 329.678 191.834 330.243V330.804L190.152 331.077V330.148C190.152 329.81 190.089 329.496 189.961 329.204C189.833 328.904 189.66 328.644 189.441 328.425C189.223 328.206 188.963 328.033 188.662 327.905C188.37 327.778 188.056 327.714 187.719 327.714H186.598C186.26 327.714 185.941 327.778 185.641 327.905C185.349 328.033 185.094 328.206 184.875 328.425C184.656 328.644 184.483 328.904 184.355 329.204C184.228 329.496 184.164 329.81 184.164 330.148V336.655C184.164 336.993 184.228 337.312 184.355 337.612C184.483 337.904 184.656 338.159 184.875 338.378C185.094 338.597 185.349 338.77 185.641 338.898C185.941 339.025 186.26 339.089 186.598 339.089H187.719C188.056 339.089 188.37 339.025 188.662 338.898C188.963 338.77 189.223 338.597 189.441 338.378C189.66 338.159 189.833 337.904 189.961 337.612C190.089 337.312 190.152 336.993 190.152 336.655V335.726L191.834 335.999V336.56ZM204.549 336.56C204.549 337.125 204.439 337.658 204.221 338.159C204.011 338.661 203.719 339.098 203.346 339.472C202.972 339.846 202.535 340.142 202.033 340.361C201.532 340.57 200.999 340.675 200.434 340.675H199.312C198.747 340.675 198.214 340.57 197.713 340.361C197.212 340.142 196.774 339.846 196.4 339.472C196.027 339.098 195.73 338.661 195.512 338.159C195.302 337.658 195.197 337.125 195.197 336.56V330.243C195.197 329.678 195.302 329.145 195.512 328.644C195.73 328.142 196.027 327.705 196.4 327.331C196.774 326.958 197.212 326.666 197.713 326.456C198.214 326.237 198.747 326.128 199.312 326.128H200.434C200.999 326.128 201.532 326.237 202.033 326.456C202.535 326.666 202.972 326.958 203.346 327.331C203.719 327.705 204.011 328.142 204.221 328.644C204.439 329.145 204.549 329.678 204.549 330.243V333.538H196.879V336.655C196.879 336.993 196.943 337.312 197.07 337.612C197.198 337.904 197.371 338.159 197.59 338.378C197.809 338.597 198.064 338.77 198.355 338.898C198.656 339.025 198.975 339.089 199.312 339.089H200.434C200.771 339.089 201.085 339.025 201.377 338.898C201.678 338.77 201.938 338.597 202.156 338.378C202.375 338.159 202.548 337.904 202.676 337.612C202.803 337.312 202.867 336.993 202.867 336.655V335.726L204.549 335.999V336.56ZM202.867 330.148C202.867 329.81 202.803 329.496 202.676 329.204C202.548 328.904 202.375 328.644 202.156 328.425C201.938 328.206 201.678 328.033 201.377 327.905C201.085 327.778 200.771 327.714 200.434 327.714H199.312C198.975 327.714 198.656 327.778 198.355 327.905C198.064 328.033 197.809 328.206 197.59 328.425C197.371 328.644 197.198 328.904 197.07 329.204C196.943 329.496 196.879 329.81 196.879 330.148V332.226H202.867V330.148ZM214.639 340.402V320.796H216.402V338.72H223.908V340.402H214.639ZM234.941 340.402L234.012 339.007C233.629 339.508 233.15 339.914 232.576 340.224C232.002 340.525 231.373 340.675 230.689 340.675H230.266C229.701 340.675 229.167 340.57 228.666 340.361C228.165 340.142 227.727 339.846 227.354 339.472C226.98 339.098 226.684 338.661 226.465 338.159C226.255 337.658 226.15 337.125 226.15 336.56V336.423C226.15 335.858 226.255 335.325 226.465 334.823C226.684 334.322 226.98 333.885 227.354 333.511C227.727 333.137 228.165 332.846 228.666 332.636C229.167 332.417 229.701 332.308 230.266 332.308H233.82V330.148C233.82 329.81 233.757 329.496 233.629 329.204C233.501 328.904 233.328 328.644 233.109 328.425C232.891 328.206 232.631 328.033 232.33 327.905C232.038 327.778 231.724 327.714 231.387 327.714H230.402C230.065 327.714 229.746 327.778 229.445 327.905C229.154 328.033 228.898 328.206 228.68 328.425C228.461 328.644 228.288 328.904 228.16 329.204C228.033 329.496 227.969 329.81 227.969 330.148V330.654L226.287 330.38V330.243C226.287 329.678 226.392 329.145 226.602 328.644C226.82 328.142 227.117 327.705 227.49 327.331C227.864 326.958 228.301 326.666 228.803 326.456C229.304 326.237 229.837 326.128 230.402 326.128H231.387C231.952 326.128 232.485 326.237 232.986 326.456C233.488 326.666 233.925 326.958 234.299 327.331C234.673 327.705 234.964 328.142 235.174 328.644C235.393 329.145 235.502 329.678 235.502 330.243V340.402H234.941ZM233.82 333.62H230.266C229.928 333.62 229.609 333.684 229.309 333.812C229.017 333.939 228.762 334.117 228.543 334.345C228.324 334.564 228.151 334.823 228.023 335.124C227.896 335.416 227.832 335.73 227.832 336.068V336.655C227.832 336.993 227.896 337.312 228.023 337.612C228.151 337.904 228.324 338.159 228.543 338.378C228.762 338.597 229.017 338.77 229.309 338.898C229.609 339.025 229.928 339.089 230.266 339.089H231.387C231.724 339.089 232.038 339.025 232.33 338.898C232.631 338.77 232.891 338.597 233.109 338.378C233.328 338.159 233.501 337.904 233.629 337.612C233.757 337.312 233.82 336.993 233.82 336.655V333.62ZM247.656 340.402L246.727 338.98C246.344 339.499 245.865 339.914 245.291 340.224C244.717 340.525 244.088 340.675 243.404 340.675H242.98C242.415 340.675 241.882 340.57 241.381 340.361C240.88 340.142 240.442 339.846 240.068 339.472C239.695 339.098 239.398 338.661 239.18 338.159C238.97 337.658 238.865 337.125 238.865 336.56V326.402H240.547V336.655C240.547 336.993 240.611 337.312 240.738 337.612C240.866 337.904 241.039 338.159 241.258 338.378C241.477 338.597 241.732 338.77 242.023 338.898C242.324 339.025 242.643 339.089 242.98 339.089H244.102C244.439 339.089 244.753 339.025 245.045 338.898C245.346 338.77 245.605 338.597 245.824 338.378C246.043 338.159 246.216 337.904 246.344 337.612C246.471 337.312 246.535 336.993 246.535 336.655V326.402H248.217V340.402H247.656ZM259.25 340.402V330.148C259.25 329.81 259.186 329.496 259.059 329.204C258.931 328.904 258.758 328.644 258.539 328.425C258.32 328.206 258.061 328.033 257.76 327.905C257.468 327.778 257.154 327.714 256.816 327.714H255.695C255.358 327.714 255.039 327.778 254.738 327.905C254.447 328.033 254.191 328.206 253.973 328.425C253.754 328.644 253.581 328.904 253.453 329.204C253.326 329.496 253.262 329.81 253.262 330.148V340.402H251.58V326.402H252.141L253.057 327.823C253.439 327.304 253.918 326.894 254.492 326.593C255.076 326.283 255.709 326.128 256.393 326.128H256.816C257.382 326.128 257.915 326.237 258.416 326.456C258.917 326.666 259.355 326.958 259.729 327.331C260.102 327.705 260.394 328.142 260.604 328.644C260.822 329.145 260.932 329.678 260.932 330.243V340.402H259.25ZM273.646 336.56C273.646 337.125 273.537 337.658 273.318 338.159C273.109 338.661 272.817 339.098 272.443 339.472C272.07 339.846 271.632 340.142 271.131 340.361C270.63 340.57 270.096 340.675 269.531 340.675H268.41C267.845 340.675 267.312 340.57 266.811 340.361C266.309 340.142 265.872 339.846 265.498 339.472C265.124 339.098 264.828 338.661 264.609 338.159C264.4 337.658 264.295 337.125 264.295 336.56V330.243C264.295 329.678 264.4 329.145 264.609 328.644C264.828 328.142 265.124 327.705 265.498 327.331C265.872 326.958 266.309 326.666 266.811 326.456C267.312 326.237 267.845 326.128 268.41 326.128H269.531C270.096 326.128 270.63 326.237 271.131 326.456C271.632 326.666 272.07 326.958 272.443 327.331C272.817 327.705 273.109 328.142 273.318 328.644C273.537 329.145 273.646 329.678 273.646 330.243V330.804L271.965 331.077V330.148C271.965 329.81 271.901 329.496 271.773 329.204C271.646 328.904 271.473 328.644 271.254 328.425C271.035 328.206 270.775 328.033 270.475 327.905C270.183 327.778 269.868 327.714 269.531 327.714H268.41C268.073 327.714 267.754 327.778 267.453 327.905C267.161 328.033 266.906 328.206 266.688 328.425C266.469 328.644 266.296 328.904 266.168 329.204C266.04 329.496 265.977 329.81 265.977 330.148V336.655C265.977 336.993 266.04 337.312 266.168 337.612C266.296 337.904 266.469 338.159 266.688 338.378C266.906 338.597 267.161 338.77 267.453 338.898C267.754 339.025 268.073 339.089 268.41 339.089H269.531C269.868 339.089 270.183 339.025 270.475 338.898C270.775 338.77 271.035 338.597 271.254 338.378C271.473 338.159 271.646 337.904 271.773 337.612C271.901 337.312 271.965 336.993 271.965 336.655V335.726L273.646 335.999V336.56ZM284.68 340.402V330.148C284.68 329.81 284.616 329.496 284.488 329.204C284.361 328.904 284.188 328.644 283.969 328.425C283.75 328.206 283.49 328.033 283.189 327.905C282.898 327.778 282.583 327.714 282.246 327.714H281.125C280.788 327.714 280.469 327.778 280.168 327.905C279.876 328.033 279.621 328.206 279.402 328.425C279.184 328.644 279.01 328.904 278.883 329.204C278.755 329.496 278.691 329.81 278.691 330.148V340.402H277.01V320.796H278.691V327.577C279.074 327.122 279.535 326.766 280.072 326.511C280.61 326.256 281.193 326.128 281.822 326.128H282.246C282.811 326.128 283.344 326.237 283.846 326.456C284.347 326.666 284.785 326.958 285.158 327.331C285.532 327.705 285.824 328.142 286.033 328.644C286.252 329.145 286.361 329.678 286.361 330.243V340.402H284.68ZM305.529 336.56C305.529 337.125 305.42 337.658 305.201 338.159C304.992 338.661 304.7 339.098 304.326 339.472C303.952 339.846 303.515 340.142 303.014 340.361C302.512 340.57 301.979 340.675 301.414 340.675H300.293C299.728 340.675 299.195 340.57 298.693 340.361C298.192 340.142 297.755 339.846 297.381 339.472C297.007 339.098 296.711 338.661 296.492 338.159C296.283 337.658 296.178 337.125 296.178 336.56V330.243C296.178 329.678 296.283 329.145 296.492 328.644C296.711 328.142 297.007 327.705 297.381 327.331C297.755 326.958 298.192 326.666 298.693 326.456C299.195 326.237 299.728 326.128 300.293 326.128H301.414C301.979 326.128 302.512 326.237 303.014 326.456C303.515 326.666 303.952 326.958 304.326 327.331C304.7 327.705 304.992 328.142 305.201 328.644C305.42 329.145 305.529 329.678 305.529 330.243V336.56ZM303.848 330.148C303.848 329.81 303.784 329.496 303.656 329.204C303.529 328.904 303.355 328.644 303.137 328.425C302.918 328.206 302.658 328.033 302.357 327.905C302.066 327.778 301.751 327.714 301.414 327.714H300.293C299.956 327.714 299.637 327.778 299.336 327.905C299.044 328.033 298.789 328.206 298.57 328.425C298.352 328.644 298.178 328.904 298.051 329.204C297.923 329.496 297.859 329.81 297.859 330.148V336.655C297.859 336.993 297.923 337.312 298.051 337.612C298.178 337.904 298.352 338.159 298.57 338.378C298.789 338.597 299.044 338.77 299.336 338.898C299.637 339.025 299.956 339.089 300.293 339.089H301.414C301.751 339.089 302.066 339.025 302.357 338.898C302.658 338.77 302.918 338.597 303.137 338.378C303.355 338.159 303.529 337.904 303.656 337.612C303.784 337.312 303.848 336.993 303.848 336.655V330.148ZM316.562 340.402V330.148C316.562 329.81 316.499 329.496 316.371 329.204C316.243 328.904 316.07 328.644 315.852 328.425C315.633 328.206 315.373 328.033 315.072 327.905C314.781 327.778 314.466 327.714 314.129 327.714H313.008C312.671 327.714 312.352 327.778 312.051 327.905C311.759 328.033 311.504 328.206 311.285 328.425C311.066 328.644 310.893 328.904 310.766 329.204C310.638 329.496 310.574 329.81 310.574 330.148V340.402H308.893V326.402H309.453L310.369 327.823C310.752 327.304 311.23 326.894 311.805 326.593C312.388 326.283 313.021 326.128 313.705 326.128H314.129C314.694 326.128 315.227 326.237 315.729 326.456C316.23 326.666 316.667 326.958 317.041 327.331C317.415 327.705 317.706 328.142 317.916 328.644C318.135 329.145 318.244 329.678 318.244 330.243V340.402H316.562ZM338.725 340.402L330.549 326.128L330.385 325.28V340.402H328.621V320.796H329.537L337.713 335.083L337.891 335.917V320.796H339.654V340.402H338.725ZM352.67 336.56C352.67 337.125 352.561 337.658 352.342 338.159C352.132 338.661 351.84 339.098 351.467 339.472C351.093 339.846 350.656 340.142 350.154 340.361C349.653 340.57 349.12 340.675 348.555 340.675H347.434C346.868 340.675 346.335 340.57 345.834 340.361C345.333 340.142 344.895 339.846 344.521 339.472C344.148 339.098 343.852 338.661 343.633 338.159C343.423 337.658 343.318 337.125 343.318 336.56V330.243C343.318 329.678 343.423 329.145 343.633 328.644C343.852 328.142 344.148 327.705 344.521 327.331C344.895 326.958 345.333 326.666 345.834 326.456C346.335 326.237 346.868 326.128 347.434 326.128H348.555C349.12 326.128 349.653 326.237 350.154 326.456C350.656 326.666 351.093 326.958 351.467 327.331C351.84 327.705 352.132 328.142 352.342 328.644C352.561 329.145 352.67 329.678 352.67 330.243V336.56ZM350.988 330.148C350.988 329.81 350.924 329.496 350.797 329.204C350.669 328.904 350.496 328.644 350.277 328.425C350.059 328.206 349.799 328.033 349.498 327.905C349.206 327.778 348.892 327.714 348.555 327.714H347.434C347.096 327.714 346.777 327.778 346.477 327.905C346.185 328.033 345.93 328.206 345.711 328.425C345.492 328.644 345.319 328.904 345.191 329.204C345.064 329.496 345 329.81 345 330.148V336.655C345 336.993 345.064 337.312 345.191 337.612C345.319 337.904 345.492 338.159 345.711 338.378C345.93 338.597 346.185 338.77 346.477 338.898C346.777 339.025 347.096 339.089 347.434 339.089H348.555C348.892 339.089 349.206 339.025 349.498 338.898C349.799 338.77 350.059 338.597 350.277 338.378C350.496 338.159 350.669 337.904 350.797 337.612C350.924 337.312 350.988 336.993 350.988 336.655V330.148ZM360.422 340.402H359.588L354.625 326.402H356.307L359.957 337.011L360.012 337.736L360.066 337.011L363.703 326.402H365.385L360.422 340.402ZM376.705 336.56C376.705 337.125 376.596 337.658 376.377 338.159C376.167 338.661 375.876 339.098 375.502 339.472C375.128 339.846 374.691 340.142 374.189 340.361C373.688 340.57 373.155 340.675 372.59 340.675H371.469C370.904 340.675 370.37 340.57 369.869 340.361C369.368 340.142 368.93 339.846 368.557 339.472C368.183 339.098 367.887 338.661 367.668 338.159C367.458 337.658 367.354 337.125 367.354 336.56V330.243C367.354 329.678 367.458 329.145 367.668 328.644C367.887 328.142 368.183 327.705 368.557 327.331C368.93 326.958 369.368 326.666 369.869 326.456C370.37 326.237 370.904 326.128 371.469 326.128H372.59C373.155 326.128 373.688 326.237 374.189 326.456C374.691 326.666 375.128 326.958 375.502 327.331C375.876 327.705 376.167 328.142 376.377 328.644C376.596 329.145 376.705 329.678 376.705 330.243V333.538H369.035V336.655C369.035 336.993 369.099 337.312 369.227 337.612C369.354 337.904 369.527 338.159 369.746 338.378C369.965 338.597 370.22 338.77 370.512 338.898C370.812 339.025 371.132 339.089 371.469 339.089H372.59C372.927 339.089 373.242 339.025 373.533 338.898C373.834 338.77 374.094 338.597 374.312 338.378C374.531 338.159 374.704 337.904 374.832 337.612C374.96 337.312 375.023 336.993 375.023 336.655V335.726L376.705 335.999V336.56ZM375.023 330.148C375.023 329.81 374.96 329.496 374.832 329.204C374.704 328.904 374.531 328.644 374.312 328.425C374.094 328.206 373.834 328.033 373.533 327.905C373.242 327.778 372.927 327.714 372.59 327.714H371.469C371.132 327.714 370.812 327.778 370.512 327.905C370.22 328.033 369.965 328.206 369.746 328.425C369.527 328.644 369.354 328.904 369.227 329.204C369.099 329.496 369.035 329.81 369.035 330.148V332.226H375.023V330.148ZM394.848 340.402V330.148C394.848 329.81 394.784 329.496 394.656 329.204C394.529 328.904 394.355 328.644 394.137 328.425C393.918 328.206 393.658 328.033 393.357 327.905C393.066 327.778 392.751 327.714 392.414 327.714H391.58C391.243 327.714 390.924 327.778 390.623 327.905C390.331 328.033 390.072 328.206 389.844 328.425C389.625 328.644 389.452 328.904 389.324 329.204C389.197 329.496 389.133 329.81 389.133 330.148V340.402H387.465V330.148C387.465 329.81 387.401 329.496 387.273 329.204C387.146 328.904 386.968 328.644 386.74 328.425C386.521 328.206 386.262 328.033 385.961 327.905C385.669 327.778 385.355 327.714 385.018 327.714H384.184C383.846 327.714 383.527 327.778 383.227 327.905C382.935 328.033 382.68 328.206 382.461 328.425C382.242 328.644 382.069 328.904 381.941 329.204C381.814 329.496 381.75 329.81 381.75 330.148V340.402H380.068V326.402H380.629L381.545 327.823C381.928 327.304 382.406 326.894 382.98 326.593C383.564 326.283 384.197 326.128 384.881 326.128H385.018C385.811 326.128 386.526 326.324 387.164 326.716C387.802 327.108 388.294 327.627 388.641 328.275C388.814 327.956 389.028 327.664 389.283 327.4C389.538 327.135 389.821 326.912 390.131 326.73C390.441 326.538 390.778 326.392 391.143 326.292C391.507 326.183 391.885 326.128 392.277 326.128H392.414C392.979 326.128 393.512 326.237 394.014 326.456C394.515 326.666 394.952 326.958 395.326 327.331C395.7 327.705 395.992 328.142 396.201 328.644C396.42 329.145 396.529 329.678 396.529 330.243V340.402H394.848ZM409.244 336.56C409.244 337.125 409.135 337.658 408.916 338.159C408.706 338.661 408.415 339.098 408.041 339.472C407.667 339.846 407.23 340.142 406.729 340.361C406.227 340.57 405.694 340.675 405.129 340.675H404.008C403.443 340.675 402.91 340.57 402.408 340.361C401.907 340.142 401.469 339.846 401.096 339.472C400.722 339.098 400.426 338.661 400.207 338.159C399.997 337.658 399.893 337.125 399.893 336.56V320.796H401.574V327.577C401.957 327.122 402.417 326.766 402.955 326.511C403.493 326.256 404.076 326.128 404.705 326.128H405.129C405.694 326.128 406.227 326.237 406.729 326.456C407.23 326.666 407.667 326.958 408.041 327.331C408.415 327.705 408.706 328.142 408.916 328.644C409.135 329.145 409.244 329.678 409.244 330.243V336.56ZM407.562 330.148C407.562 329.81 407.499 329.496 407.371 329.204C407.243 328.904 407.07 328.644 406.852 328.425C406.633 328.206 406.373 328.033 406.072 327.905C405.781 327.778 405.466 327.714 405.129 327.714H404.008C403.671 327.714 403.352 327.778 403.051 327.905C402.759 328.033 402.504 328.206 402.285 328.425C402.066 328.644 401.893 328.904 401.766 329.204C401.638 329.496 401.574 329.81 401.574 330.148V336.655C401.574 336.993 401.638 337.312 401.766 337.612C401.893 337.904 402.066 338.159 402.285 338.378C402.504 338.597 402.759 338.77 403.051 338.898C403.352 339.025 403.671 339.089 404.008 339.089H405.129C405.466 339.089 405.781 339.025 406.072 338.898C406.373 338.77 406.633 338.597 406.852 338.378C407.07 338.159 407.243 337.904 407.371 337.612C407.499 337.312 407.562 336.993 407.562 336.655V330.148ZM421.959 336.56C421.959 337.125 421.85 337.658 421.631 338.159C421.421 338.661 421.13 339.098 420.756 339.472C420.382 339.846 419.945 340.142 419.443 340.361C418.942 340.57 418.409 340.675 417.844 340.675H416.723C416.158 340.675 415.624 340.57 415.123 340.361C414.622 340.142 414.184 339.846 413.811 339.472C413.437 339.098 413.141 338.661 412.922 338.159C412.712 337.658 412.607 337.125 412.607 336.56V330.243C412.607 329.678 412.712 329.145 412.922 328.644C413.141 328.142 413.437 327.705 413.811 327.331C414.184 326.958 414.622 326.666 415.123 326.456C415.624 326.237 416.158 326.128 416.723 326.128H417.844C418.409 326.128 418.942 326.237 419.443 326.456C419.945 326.666 420.382 326.958 420.756 327.331C421.13 327.705 421.421 328.142 421.631 328.644C421.85 329.145 421.959 329.678 421.959 330.243V333.538H414.289V336.655C414.289 336.993 414.353 337.312 414.48 337.612C414.608 337.904 414.781 338.159 415 338.378C415.219 338.597 415.474 338.77 415.766 338.898C416.066 339.025 416.385 339.089 416.723 339.089H417.844C418.181 339.089 418.495 339.025 418.787 338.898C419.088 338.77 419.348 338.597 419.566 338.378C419.785 338.159 419.958 337.904 420.086 337.612C420.214 337.312 420.277 336.993 420.277 336.655V335.726L421.959 335.999V336.56ZM420.277 330.148C420.277 329.81 420.214 329.496 420.086 329.204C419.958 328.904 419.785 328.644 419.566 328.425C419.348 328.206 419.088 328.033 418.787 327.905C418.495 327.778 418.181 327.714 417.844 327.714H416.723C416.385 327.714 416.066 327.778 415.766 327.905C415.474 328.033 415.219 328.206 415 328.425C414.781 328.644 414.608 328.904 414.48 329.204C414.353 329.496 414.289 329.81 414.289 330.148V332.226H420.277V330.148ZM429.438 328.001C429.1 328.001 428.781 328.065 428.48 328.193C428.189 328.32 427.934 328.493 427.715 328.712C427.496 328.931 427.323 329.191 427.195 329.491C427.068 329.783 427.004 330.098 427.004 330.435V340.402H425.322V326.402H425.883L426.799 327.823C427.182 327.304 427.66 326.894 428.234 326.593C428.818 326.283 429.451 326.128 430.135 326.128H431.119V328.001H429.438ZM440.375 340.402V338.72H445.051V322.478L440.375 324.446V322.765L445.051 320.796H446.814V338.72H451.49V340.402H440.375ZM455.291 344.325H454.58V338.296H456.686L455.291 344.325ZM471.533 322.204C471.096 322.204 470.686 322.286 470.303 322.45C469.929 322.614 469.601 322.838 469.318 323.12C469.036 323.403 468.812 323.736 468.648 324.118C468.484 324.492 468.402 324.898 468.402 325.335V326.128L466.639 325.841V325.335C466.639 324.67 466.762 324.045 467.008 323.462C467.263 322.879 467.609 322.368 468.047 321.931C468.484 321.493 468.995 321.152 469.578 320.905C470.161 320.65 470.786 320.523 471.451 320.523H472.285C472.951 320.523 473.575 320.641 474.158 320.878C474.751 321.115 475.266 321.457 475.703 321.904C476.141 322.35 476.482 322.888 476.729 323.517C476.984 324.137 477.111 324.838 477.111 325.622C477.111 326.397 476.993 327.176 476.756 327.96C476.528 328.744 476.223 329.514 475.84 330.271C475.466 331.027 475.033 331.761 474.541 332.472C474.058 333.183 473.561 333.853 473.051 334.482C471.857 335.949 470.503 337.362 468.99 338.72H477.248V340.402H466.215V339.007C467.919 337.603 469.441 336.15 470.781 334.646C471.355 333.999 471.916 333.31 472.463 332.581C473.01 331.852 473.497 331.105 473.926 330.339C474.354 329.564 474.696 328.78 474.951 327.987C475.215 327.185 475.348 326.397 475.348 325.622C475.348 325.048 475.261 324.547 475.088 324.118C474.915 323.69 474.682 323.334 474.391 323.052C474.099 322.769 473.762 322.56 473.379 322.423C473.005 322.277 472.613 322.204 472.203 322.204H471.533ZM491.357 335.862C491.357 336.528 491.23 337.152 490.975 337.736C490.729 338.319 490.387 338.829 489.949 339.267C489.512 339.704 489.001 340.051 488.418 340.306C487.835 340.552 487.21 340.675 486.545 340.675H485.711C485.046 340.675 484.417 340.552 483.824 340.306C483.241 340.051 482.73 339.704 482.293 339.267C481.855 338.829 481.509 338.319 481.254 337.736C481.008 337.152 480.885 336.528 480.885 335.862V325.335C480.885 324.67 481.008 324.045 481.254 323.462C481.509 322.879 481.855 322.368 482.293 321.931C482.73 321.493 483.241 321.152 483.824 320.905C484.417 320.65 485.046 320.523 485.711 320.523H486.545C487.21 320.523 487.835 320.65 488.418 320.905C489.001 321.152 489.512 321.493 489.949 321.931C490.387 322.368 490.729 322.879 490.975 323.462C491.23 324.045 491.357 324.67 491.357 325.335V335.862ZM489.594 325.335C489.594 324.898 489.512 324.492 489.348 324.118C489.184 323.736 488.96 323.403 488.678 323.12C488.395 322.838 488.062 322.614 487.68 322.45C487.306 322.286 486.9 322.204 486.463 322.204H485.793C485.355 322.204 484.945 322.286 484.562 322.45C484.189 322.614 483.856 322.838 483.564 323.12C483.282 323.403 483.059 323.736 482.895 324.118C482.73 324.492 482.648 324.898 482.648 325.335V335.862C482.648 336.3 482.73 336.71 482.895 337.093C483.059 337.467 483.282 337.799 483.564 338.091C483.856 338.374 484.189 338.597 484.562 338.761C484.945 338.925 485.355 339.007 485.793 339.007H486.463C486.9 339.007 487.306 338.925 487.68 338.761C488.062 338.597 488.395 338.374 488.678 338.091C488.96 337.799 489.184 337.467 489.348 337.093C489.512 336.71 489.594 336.3 489.594 335.862V325.335ZM499.779 322.204C499.342 322.204 498.932 322.286 498.549 322.45C498.175 322.614 497.847 322.838 497.564 323.12C497.282 323.403 497.059 323.736 496.895 324.118C496.73 324.492 496.648 324.898 496.648 325.335V326.128L494.885 325.841V325.335C494.885 324.67 495.008 324.045 495.254 323.462C495.509 322.879 495.855 322.368 496.293 321.931C496.73 321.493 497.241 321.152 497.824 320.905C498.408 320.65 499.032 320.523 499.697 320.523H500.531C501.197 320.523 501.821 320.641 502.404 320.878C502.997 321.115 503.512 321.457 503.949 321.904C504.387 322.35 504.729 322.888 504.975 323.517C505.23 324.137 505.357 324.838 505.357 325.622C505.357 326.397 505.239 327.176 505.002 327.96C504.774 328.744 504.469 329.514 504.086 330.271C503.712 331.027 503.279 331.761 502.787 332.472C502.304 333.183 501.807 333.853 501.297 334.482C500.103 335.949 498.749 337.362 497.236 338.72H505.494V340.402H494.461V339.007C496.165 337.603 497.688 336.15 499.027 334.646C499.602 333.999 500.162 333.31 500.709 332.581C501.256 331.852 501.743 331.105 502.172 330.339C502.6 329.564 502.942 328.78 503.197 327.987C503.462 327.185 503.594 326.397 503.594 325.622C503.594 325.048 503.507 324.547 503.334 324.118C503.161 323.69 502.928 323.334 502.637 323.052C502.345 322.769 502.008 322.56 501.625 322.423C501.251 322.277 500.859 322.204 500.449 322.204H499.779ZM509.418 340.402V338.72H514.094V322.478L509.418 324.446V322.765L514.094 320.796H515.857V338.72H520.533V340.402H509.418Z" fill="white"/>
<path d="M305.568 217.79L315.352 189.572M344.702 217.79L334.918 189.572M315.352 189.572L325.135 161.353L334.918 189.572M315.352 189.572H334.918" stroke="white" stroke-width="7"/>
<path d="M361.067 188.21C361.067 208.251 345.125 224.473 325.491 224.473C305.857 224.473 289.915 208.251 289.915 188.21C289.915 168.168 305.857 151.947 325.491 151.947C345.125 151.947 361.067 168.168 361.067 188.21Z" stroke="white" stroke-width="7"/>
<path d="M280.253 267.376H271.317L269.311 272.942H266.41L274.555 251.614H277.016L285.175 272.942H282.289L280.253 267.376ZM272.167 265.061H279.418L275.785 255.086L272.167 265.061ZM295.282 259.524C294.872 259.456 294.428 259.422 293.949 259.422C292.172 259.422 290.966 260.178 290.331 261.692V272.942H287.621V257.092H290.258L290.302 258.924C291.19 257.508 292.45 256.8 294.081 256.8C294.608 256.8 295.009 256.868 295.282 257.005V259.524ZM311.205 265.193C311.205 267.615 310.648 269.563 309.535 271.038C308.422 272.503 306.928 273.235 305.053 273.235C303.051 273.235 301.503 272.527 300.409 271.111L300.277 272.942H297.787V250.442H300.497V258.836C301.591 257.478 303.1 256.8 305.023 256.8C306.947 256.8 308.456 257.527 309.55 258.982C310.653 260.437 311.205 262.429 311.205 264.959V265.193ZM308.495 264.885C308.495 263.04 308.139 261.614 307.426 260.608C306.713 259.602 305.688 259.099 304.35 259.099C302.562 259.099 301.278 259.929 300.497 261.59V268.445C301.327 270.105 302.621 270.935 304.379 270.935C305.678 270.935 306.688 270.432 307.411 269.426C308.134 268.421 308.495 266.907 308.495 264.885ZM321.342 263.435C318.93 262.742 317.172 261.892 316.068 260.886C314.975 259.871 314.428 258.621 314.428 257.136C314.428 255.457 315.097 254.07 316.435 252.976C317.782 251.873 319.53 251.321 321.679 251.321C323.144 251.321 324.447 251.604 325.59 252.171C326.742 252.737 327.631 253.518 328.256 254.514C328.891 255.51 329.208 256.599 329.208 257.781H326.381C326.381 256.492 325.971 255.481 325.15 254.749C324.33 254.007 323.173 253.635 321.679 253.635C320.292 253.635 319.208 253.943 318.427 254.558C317.655 255.164 317.27 256.008 317.27 257.092C317.27 257.962 317.636 258.699 318.368 259.304C319.11 259.9 320.365 260.447 322.133 260.945C323.91 261.443 325.297 261.995 326.293 262.6C327.299 263.196 328.041 263.894 328.52 264.695C329.008 265.496 329.252 266.438 329.252 267.522C329.252 269.251 328.578 270.637 327.23 271.682C325.883 272.717 324.081 273.235 321.825 273.235C320.36 273.235 318.993 272.957 317.724 272.4C316.454 271.834 315.473 271.062 314.779 270.086C314.096 269.109 313.754 268.001 313.754 266.76H316.581C316.581 268.05 317.055 269.07 318.002 269.822C318.959 270.564 320.233 270.935 321.825 270.935C323.31 270.935 324.447 270.633 325.238 270.027C326.029 269.422 326.425 268.596 326.425 267.551C326.425 266.507 326.059 265.701 325.326 265.134C324.594 264.558 323.266 263.992 321.342 263.435ZM336.122 253.255V257.092H339.081V259.187H336.122V269.016C336.122 269.651 336.254 270.13 336.518 270.452C336.781 270.764 337.23 270.921 337.865 270.921C338.178 270.921 338.607 270.862 339.154 270.745V272.942C338.441 273.137 337.748 273.235 337.074 273.235C335.863 273.235 334.95 272.869 334.335 272.136C333.72 271.404 333.412 270.364 333.412 269.016V259.187H330.526V257.092H333.412V253.255H336.122ZM341.249 264.871C341.249 263.318 341.552 261.922 342.157 260.681C342.772 259.441 343.622 258.484 344.706 257.81C345.8 257.136 347.045 256.8 348.441 256.8C350.6 256.8 352.343 257.547 353.671 259.041C355.009 260.535 355.678 262.522 355.678 265.003V265.193C355.678 266.736 355.38 268.123 354.784 269.353C354.198 270.574 353.354 271.526 352.25 272.21C351.156 272.893 349.896 273.235 348.471 273.235C346.322 273.235 344.579 272.488 343.241 270.994C341.913 269.5 341.249 267.522 341.249 265.061V264.871ZM343.974 265.193C343.974 266.951 344.379 268.362 345.189 269.426C346.01 270.491 347.104 271.023 348.471 271.023C349.848 271.023 350.941 270.486 351.752 269.412C352.562 268.328 352.968 266.814 352.968 264.871C352.968 263.133 352.553 261.726 351.723 260.652C350.902 259.568 349.809 259.026 348.441 259.026C347.104 259.026 346.024 259.558 345.204 260.623C344.384 261.687 343.974 263.211 343.974 265.193ZM366.737 259.524C366.327 259.456 365.883 259.422 365.404 259.422C363.627 259.422 362.421 260.178 361.786 261.692V272.942H359.076V257.092H361.713L361.757 258.924C362.646 257.508 363.905 256.8 365.536 256.8C366.063 256.8 366.464 256.868 366.737 257.005V259.524ZM375.526 273.235C373.378 273.235 371.63 272.532 370.282 271.126C368.935 269.71 368.261 267.82 368.261 265.457V264.959C368.261 263.386 368.559 261.985 369.154 260.755C369.76 259.514 370.6 258.548 371.674 257.854C372.758 257.151 373.93 256.8 375.189 256.8C377.25 256.8 378.852 257.478 379.994 258.836C381.137 260.193 381.708 262.136 381.708 264.666V265.794H370.971C371.01 267.356 371.464 268.621 372.333 269.588C373.212 270.545 374.325 271.023 375.673 271.023C376.63 271.023 377.44 270.828 378.104 270.437C378.769 270.047 379.35 269.529 379.848 268.884L381.503 270.174C380.175 272.215 378.183 273.235 375.526 273.235ZM375.189 259.026C374.096 259.026 373.178 259.426 372.436 260.227C371.693 261.018 371.234 262.132 371.059 263.567H378.998V263.362C378.92 261.985 378.549 260.921 377.885 260.169C377.221 259.407 376.322 259.026 375.189 259.026Z" fill="white"/>
</svg>
