<svg width="196" height="196" viewBox="0 0 196 196" fill="none" xmlns="http://www.w3.org/2000/svg">
<path fill-rule="evenodd" clip-rule="evenodd" d="M98 194C151.019 194 194 151.019 194 98C194 44.9808 151.019 2 98 2C44.9808 2 2 44.9808 2 98C2 151.019 44.9808 194 98 194Z" stroke="white" stroke-width="3" stroke-linecap="square" stroke-dasharray="2 6"/>
<path fill-rule="evenodd" clip-rule="evenodd" d="M98.058 99.8166C101.189 100.259 102.613 101.095 103.293 101.728C105.245 103.542 104.187 108.884 98.2051 108.884C95.7517 108.884 93.6515 107.601 92.7276 105.779H83.1132C84.0169 110.803 88.1957 114.879 93.7121 116.338L93.7207 120.608H102.681L102.685 116.341C105.523 115.586 108.018 114.146 109.885 112.241C113.102 109.167 116.201 101.506 110.142 95.6779C107.734 93.3641 104.079 91.9038 99.5384 91.284C95.3279 90.6785 93.8173 89.5253 93.0389 88.816C91.3481 87.2793 92.2317 81.5592 98.2137 81.5592C101.507 81.5592 104.186 83.8758 104.186 86.7171L113.502 86.72C113.5 80.7736 108.947 75.7541 102.681 74.1064V69.3896H93.7207L93.7164 74.1093C85.3474 76.3062 82.8652 83.3237 82.8652 86.8296C82.8652 88.6632 83.3784 91.8995 85.8216 94.49C88.2519 97.0805 92.3283 99.0439 98.058 99.8166Z" fill="white"/>
<path fill-rule="evenodd" clip-rule="evenodd" d="M107.238 144.385C107.017 147.021 106.117 149.554 104.625 151.737C104.728 151.733 104.822 151.697 104.925 151.694C116.519 150.656 126.907 146.04 134.762 138.897L135.852 151.443H177.931L174.017 104.94C173.01 93.1393 162.817 84.3213 151.287 85.3246C141.998 86.6133 134.104 91.9875 132.104 106.582C129.883 122.818 118.875 132.54 104.486 134.237C106.572 137.189 107.546 140.784 107.238 144.385Z" fill="white"/>
<path fill-rule="evenodd" clip-rule="evenodd" d="M144.07 81.1571C154.615 80.2114 162.419 70.6971 161.497 59.9027C160.573 49.1112 151.278 41.1322 140.723 42.0764C130.186 43.0206 122.376 52.5277 123.299 63.325C124.221 74.1151 133.523 82.1042 144.07 81.1571Z" fill="white"/>
<path fill-rule="evenodd" clip-rule="evenodd" d="M60.8512 146.575C53.4018 140.96 47.6663 133.587 44.3005 124.647L50.0274 122.436C56.6883 139.083 72.4677 150.077 91.4314 151.772C96.5398 152.103 100.295 148.393 100.685 143.843C101.092 139.037 97.618 134.812 92.916 134.392C77.9077 133.049 66.2494 123.105 64.191 106.232C62.8822 95.5063 55.8306 86.3005 45.0659 85.3347C32.9377 84.2449 23.3146 93.4737 22.3632 104.633L18 151.453H60.4202L60.8512 146.575Z" fill="white"/>
<path fill-rule="evenodd" clip-rule="evenodd" d="M54.7002 81.1571C65.2472 80.2114 73.0497 70.6971 72.1272 59.9027C71.2032 49.1112 61.9045 41.1322 51.3546 42.0764C40.8119 43.0206 33.005 52.5277 33.9275 63.325C34.8501 74.1151 44.1546 82.1042 54.6987 81.1571" fill="white"/>
<path d="M98.7213 121.286C113.051 121.286 124.667 109.668 124.667 95.3376C124.667 81.0069 113.051 69.3896 98.7213 69.3896C84.3918 69.3896 72.7754 81.0069 72.7754 95.3376C72.7754 109.668 84.3918 121.286 98.7213 121.286Z" fill="white"/>
<path fill-rule="evenodd" clip-rule="evenodd" d="M102.837 100.08C102.837 99.2817 102.583 98.6215 102.078 98.1011C101.57 97.5807 100.725 97.1107 99.5435 96.6927C98.3615 96.2746 97.4418 95.8883 96.7845 95.5322C94.5979 94.3588 93.5053 92.6232 93.5053 90.3224C93.5053 88.7655 93.9781 87.484 94.9265 86.4792C95.8736 85.4759 97.1608 84.8791 98.7838 84.6917V81.6226H101.035V84.7205C102.669 84.9555 103.931 85.6475 104.822 86.7964C105.714 87.9467 106.16 89.4402 106.16 91.2796H102.754C102.754 90.0975 102.488 89.1663 101.958 88.4859C101.427 87.8055 100.707 87.4653 99.7957 87.4653C98.8963 87.4653 98.1928 87.7103 97.6854 88.1976C97.1781 88.6848 96.9258 89.384 96.9258 90.295C96.9258 91.111 97.1766 91.7654 97.6782 92.2584C98.1799 92.7515 99.0332 93.2185 100.234 93.6596C101.435 94.1007 102.377 94.5102 103.062 94.885C103.748 95.2598 104.325 95.6893 104.795 96.1723C105.263 96.6552 105.625 97.2116 105.879 97.8402C106.131 98.4701 106.258 99.2067 106.258 100.052C106.258 101.637 105.772 102.923 104.802 103.908C103.83 104.894 102.477 105.476 100.74 105.653V108.4H98.5013V105.668C96.6433 105.462 95.2148 104.796 94.2159 103.668C93.2155 102.543 92.7168 101.051 92.7168 99.1923H96.1373C96.1373 100.374 96.4343 101.29 97.031 101.937C97.6263 102.586 98.4696 102.909 99.5579 102.909C100.627 102.909 101.442 102.649 102 102.135C102.559 101.618 102.837 100.934 102.837 100.079V100.08Z" fill="#000032"/>
</svg>
