<svg width="192" height="225" viewBox="0 0 192 225" fill="none" xmlns="http://www.w3.org/2000/svg">
<path fill-rule="evenodd" clip-rule="evenodd" d="M96.0009 188.903C147.31 188.903 188.904 147.309 188.904 96C188.904 44.6911 147.31 3.09677 96.0009 3.09677C44.692 3.09677 3.09766 44.6911 3.09766 96C3.09766 147.309 44.692 188.903 96.0009 188.903Z" stroke="white" stroke-width="3" stroke-linecap="square" stroke-dasharray="2 6"/>
<g filter="url(#filter0_dd_419:1013)">
<path d="M96.0018 216.177C111.395 216.177 123.873 203.832 123.873 188.604C123.873 173.377 111.395 161.032 96.0018 161.032C80.6091 161.032 68.1309 173.377 68.1309 188.604C68.1309 203.832 80.6091 216.177 96.0018 216.177Z" fill="black"/>
</g>
<path d="M96.0018 216.177C111.395 216.177 123.873 203.832 123.873 188.604C123.873 173.377 111.395 161.032 96.0018 161.032C80.6091 161.032 68.1309 173.377 68.1309 188.604C68.1309 203.832 80.6091 216.177 96.0018 216.177Z" fill="white"/>
<path d="M103.743 185.655H89.8077C88.0974 185.655 86.7109 187.041 86.7109 188.751V194.858C86.7109 196.569 88.0974 197.955 89.8077 197.955H103.743C105.454 197.955 106.84 196.569 106.84 194.858V188.751C106.84 187.041 105.454 185.655 103.743 185.655Z" stroke="#000032" stroke-width="2" stroke-linecap="round" stroke-linejoin="round"/>
<path d="M91.1836 185.655V181.181C91.1836 180.447 91.3282 179.72 91.6092 179.042C91.8902 178.363 92.302 177.747 92.8212 177.228C93.3404 176.709 93.9568 176.297 94.6351 176.016C95.3135 175.735 96.0406 175.59 96.7748 175.59C97.5091 175.59 98.2361 175.735 98.9145 176.016C99.5928 176.297 100.209 176.709 100.728 177.228C101.248 177.747 101.659 178.363 101.94 179.042C102.221 179.72 102.366 180.447 102.366 181.181V185.655" stroke="#000032" stroke-width="2" stroke-linecap="round" stroke-linejoin="round"/>
<g clip-path="url(#clip0_419:1013)">
<path d="M156.387 61.2719H34.0645V131.17H156.387V61.2719Z" fill="#56B46F"/>
<path d="M147.65 61.2719H38.4336V52.5346L147.65 61.2719Z" fill="#74BE86"/>
<path d="M123.623 96.2212C123.623 111.905 110.91 124.617 95.2264 124.617C79.5429 124.617 66.8301 111.905 66.8301 96.2212C66.8301 80.5377 79.5429 67.8249 95.2264 67.8249C110.91 67.8249 123.623 80.5377 123.623 96.2212Z" fill="#4D8157"/>
<path d="M80.141 120.249C72.155 115.223 66.8296 106.354 66.8296 96.2212C66.8296 86.0881 72.155 77.2197 80.141 72.1935H58.0377C58.0705 72.554 58.0923 72.9166 58.0923 73.2857C58.0923 79.9217 52.7123 85.2995 46.0785 85.2995C45.7093 85.2995 45.3467 85.2777 44.9863 85.2449V107.197C45.3467 107.165 45.7093 107.143 46.0785 107.143C52.7123 107.143 58.0923 112.521 58.0923 119.157C58.0923 119.526 58.0705 119.888 58.0377 120.249H80.141Z" fill="white"/>
<path d="M144.373 85.2995C137.737 85.2995 132.359 79.9217 132.359 73.2857C132.359 72.9166 132.381 72.554 132.414 72.1935H110.311C118.296 77.2197 123.622 86.0881 123.622 96.2212C123.622 106.354 118.296 115.223 110.311 120.249H132.414C132.381 119.888 132.359 119.526 132.359 119.157C132.359 112.521 137.737 107.143 144.373 107.143C144.742 107.143 145.105 107.165 145.465 107.197V85.2449C145.105 85.2777 144.742 85.2995 144.373 85.2995Z" fill="white"/>
<path d="M46.078 78.7465C43.0658 78.7465 40.6172 76.2979 40.6172 73.2857C40.6172 70.2735 43.0658 67.8249 46.078 67.8249C49.0902 67.8249 51.5388 70.2735 51.5388 73.2857C51.5388 76.2979 49.0902 78.7465 46.078 78.7465Z" fill="white"/>
<path d="M144.373 78.7465C141.361 78.7465 138.912 76.2979 138.912 73.2857C138.912 70.2735 141.361 67.8249 144.373 67.8249C147.385 67.8249 149.834 70.2735 149.834 73.2857C149.834 76.2979 147.385 78.7465 144.373 78.7465Z" fill="white"/>
<path d="M46.078 124.618C43.0658 124.618 40.6172 122.169 40.6172 119.157C40.6172 116.144 43.0658 113.696 46.078 113.696C49.0902 113.696 51.5388 116.144 51.5388 119.157C51.5388 122.169 49.0902 124.618 46.078 124.618Z" fill="white"/>
<path d="M144.373 124.618C141.361 124.618 138.912 122.169 138.912 119.157C138.912 116.144 141.361 113.696 144.373 113.696C147.385 113.696 149.834 116.144 149.834 119.157C149.834 122.169 147.385 124.618 144.373 124.618Z" fill="white"/>
<path d="M44.9863 43.7972V53.0588L147.65 61.2719H154.203L44.9863 43.7972Z" fill="#83C38E"/>
<path d="M107.389 102.829C108.94 102.348 110.08 100.915 110.08 99.2115V97.3111C110.08 95.8542 109.241 94.596 108.031 93.9582C107.192 86.8067 102.465 83.9125 94.866 83.9125C94.5078 83.9125 94.154 83.9256 93.8088 83.954C91.2248 84.1593 88.6123 83.6744 86.4651 82.2261C85.5717 81.6233 84.8203 80.9854 84.2917 80.3127C84.0492 80.0069 83.5665 80.2013 83.6124 80.5901C83.6888 81.2541 83.8002 82.0317 83.9706 82.8793C84.5975 86.0356 84.2218 85.5747 83.0008 88.5542C82.3258 90.2011 81.8911 92.0294 81.688 93.9647C80.4866 94.6069 79.6522 95.8586 79.6522 97.3111V99.2115C79.6522 100.915 80.7946 102.348 82.3433 102.829C83.3721 106.678 85.4843 109.755 89.1606 111.339V113.517C89.1606 114.074 88.8438 114.58 88.3458 114.827L81.0043 118.445C80.3686 118.79 79.8444 119.264 79.377 119.786C83.9029 122.835 89.3572 124.617 95.2265 124.617C100.877 124.617 106.131 122.946 110.554 120.1C110.01 119.441 109.326 118.89 108.531 118.493L101.369 114.832C100.88 114.583 100.572 114.08 100.572 113.532V111.339C104.248 109.755 106.36 106.678 107.389 102.829Z" fill="white"/>
</g>
<defs>
<filter id="filter0_dd_419:1013" x="64.1309" y="157.032" width="63.7422" height="65.1443" filterUnits="userSpaceOnUse" color-interpolation-filters="sRGB">
<feFlood flood-opacity="0" result="BackgroundImageFix"/>
<feColorMatrix in="SourceAlpha" type="matrix" values="0 0 0 0 0 0 0 0 0 0 0 0 0 0 0 0 0 0 127 0" result="hardAlpha"/>
<feOffset dy="2"/>
<feGaussianBlur stdDeviation="2"/>
<feColorMatrix type="matrix" values="0 0 0 0 0 0 0 0 0 0 0 0 0 0 0 0 0 0 0.12 0"/>
<feBlend mode="normal" in2="BackgroundImageFix" result="effect1_dropShadow_419:1013"/>
<feColorMatrix in="SourceAlpha" type="matrix" values="0 0 0 0 0 0 0 0 0 0 0 0 0 0 0 0 0 0 127 0" result="hardAlpha"/>
<feOffset/>
<feGaussianBlur stdDeviation="2"/>
<feColorMatrix type="matrix" values="0 0 0 0 0 0 0 0 0 0 0 0 0 0 0 0 0 0 0.08 0"/>
<feBlend mode="normal" in2="effect1_dropShadow_419:1013" result="effect2_dropShadow_419:1013"/>
<feBlend mode="normal" in="SourceGraphic" in2="effect2_dropShadow_419:1013" result="shape"/>
</filter>
<clipPath id="clip0_419:1013">
<rect width="122.323" height="122.323" fill="white" transform="translate(34.0645 26.3226)"/>
</clipPath>
</defs>
</svg>
