<svg width="196" height="196" viewBox="0 0 196 196" fill="none" xmlns="http://www.w3.org/2000/svg">
<path fill-rule="evenodd" clip-rule="evenodd" d="M98 194C151.019 194 194 151.019 194 98C194 44.9808 151.019 2 98 2C44.9808 2 2 44.9808 2 98C2 151.019 44.9808 194 98 194Z" stroke="white" stroke-width="3" stroke-linecap="square" stroke-dasharray="2 6"/>
<path fill-rule="evenodd" clip-rule="evenodd" d="M63.4473 86.4308H134.946C128.927 76.6494 115.187 69.8975 99.1966 69.8975C83.2085 69.8975 69.4702 76.648 63.4473 86.4308Z" fill="white"/>
<path fill-rule="evenodd" clip-rule="evenodd" d="M119.126 44.4791C119.126 32.618 109.663 23 97.9817 23C86.3083 23 76.8457 32.618 76.8457 44.4791C76.8457 56.3401 86.3083 65.9581 97.9817 65.9581C109.663 65.9581 119.126 56.3401 119.126 44.4791Z" fill="white"/>
<path fill-rule="evenodd" clip-rule="evenodd" d="M52.7266 91.3364H143.842V161.013H52.7266V91.3364Z" fill="#E0E8EE"/>
<path fill-rule="evenodd" clip-rule="evenodd" d="M66.6193 130.527C66.847 124.047 61.955 118.028 55.6265 118.136C54.8118 118.15 52.8394 118.31 52.0301 118.414C45.5958 119.207 44.9901 123.511 44.7476 130.111C44.5144 136.617 44.6618 142.414 50.8751 142.326C51.6884 142.314 53.6072 142.098 54.4192 142.047C60.7785 141.655 66.3807 137.128 66.6193 130.527Z" fill="#4F6983"/>
<mask id="mask0_419:1176" style="mask-type:alpha" maskUnits="userSpaceOnUse" x="131" y="118" width="22" height="24">
<path d="M131.037 118.142H152.513V141.719H131.037V118.142Z" fill="white"/>
</mask>
<g mask="url(#mask0_419:1176)">
<path fill-rule="evenodd" clip-rule="evenodd" d="M145.318 118.414C144.526 118.339 142.601 118.155 141.802 118.143C135.609 118.038 130.813 123.903 131.045 130.218C131.277 136.65 136.759 141.058 142.987 141.447C143.777 141.494 145.66 141.706 146.457 141.718C152.535 141.805 152.681 136.152 152.456 129.811C152.216 123.381 151.702 118.984 145.318 118.414Z" fill="#4F6983"/>
</g>
<path d="M99.6246 151.116C112.945 151.116 123.743 140.433 123.743 127.256C123.743 114.078 112.945 103.396 99.6246 103.396C86.3042 103.396 75.5059 114.078 75.5059 127.256C75.5059 140.433 86.3042 151.116 99.6246 151.116Z" fill="#3CB95D"/>
<path d="M111.685 120.815L96.9457 135.554L90.2461 128.854" stroke="white" stroke-width="3" stroke-linecap="round" stroke-linejoin="round"/>
<path d="M47.4475 121.134C44.213 126.678 43.3474 135.407 47.4475 139.842C51.5477 144.274 60.6458 142.216 64.4378 135.789C68.2285 129.362 64.4378 123.229 62.7991 121.134C61.1617 119.038 50.6808 115.589 47.4475 121.134Z" fill="#E0E8EE"/>
<path fill-rule="evenodd" clip-rule="evenodd" d="M45.1331 119.783C47.2435 116.165 51.3397 114.979 56.0776 115.612C59.7397 116.101 63.5076 117.686 64.9118 119.484C68.7976 124.455 70.4658 130.846 66.7475 137.15C62.1435 144.956 50.9538 147.577 45.4815 141.661C40.7435 136.54 41.0517 126.78 45.1331 119.783V119.783Z" stroke="white" stroke-width="4"/>
<path d="M152.986 136.655C155.647 130.809 155.62 122.053 151.078 118.094C146.537 114.135 137.672 117.152 134.546 123.936C131.421 130.72 135.827 136.397 137.675 138.301C139.522 140.204 150.327 142.503 152.986 136.655Z" fill="#E0E8EE"/>
<path fill-rule="evenodd" clip-rule="evenodd" d="M155.433 137.746C153.698 141.562 149.733 143.177 144.944 143.058C141.242 142.965 137.322 141.796 135.738 140.163C131.356 135.649 129.041 129.488 132.106 122.833C135.903 114.595 146.794 110.795 152.855 116.078C158.102 120.652 158.79 130.367 155.433 137.746V137.746Z" stroke="white" stroke-width="4"/>
</svg>
