<svg width="196" height="196" viewBox="0 0 196 196" fill="none" xmlns="http://www.w3.org/2000/svg">
<path fill-rule="evenodd" clip-rule="evenodd" d="M98 194C151.019 194 194 151.019 194 98C194 44.9808 151.019 2 98 2C44.9808 2 2 44.9808 2 98C2 151.019 44.9808 194 98 194Z" stroke="white" stroke-width="3" stroke-linecap="square" stroke-dasharray="2 6"/>
<path d="M89.2839 91.0136H68.5816C67.971 91.0136 67.3854 91.2562 66.9536 91.688C66.5219 92.1197 66.2793 92.7053 66.2793 93.3159C66.2793 93.9266 66.5219 94.5122 66.9536 94.9439C67.3854 95.3757 67.971 95.6183 68.5816 95.6183H89.2839C89.8945 95.6183 90.4801 95.3757 90.9119 94.9439C91.3436 94.5122 91.5862 93.9266 91.5862 93.3159C91.5862 92.7053 91.3436 92.1197 90.9119 91.688C90.4801 91.2562 89.8945 91.0136 89.2839 91.0136Z" fill="white"/>
<path d="M122.119 95.6183C122.73 95.6183 123.316 95.3757 123.747 94.9439C124.179 94.5122 124.422 93.9266 124.422 93.3159C124.422 92.7053 124.179 92.1197 123.747 91.688C123.316 91.2562 122.73 91.0136 122.119 91.0136H100.457C100.154 91.0136 99.8551 91.0731 99.5757 91.1888C99.2964 91.3045 99.0426 91.4741 98.8288 91.6878C98.6149 91.9016 98.4453 92.1554 98.3296 92.4347C98.2139 92.714 98.1543 93.0134 98.1543 93.3158C98.1543 93.6181 98.2138 93.9175 98.3295 94.1969C98.4452 94.4762 98.6147 94.73 98.8285 94.9438C99.0423 95.1576 99.2961 95.3272 99.5754 95.443C99.8547 95.5587 100.154 95.6182 100.456 95.6183H122.119Z" fill="white"/>
<path d="M89.2838 126.848H68.5815C67.9709 126.848 67.3854 127.091 66.9536 127.523C66.5219 127.955 66.2793 128.54 66.2793 129.151C66.2793 129.761 66.5219 130.347 66.9536 130.779C67.3854 131.21 67.9709 131.453 68.5815 131.453H89.2838C89.8944 131.453 90.48 131.21 90.9117 130.779C91.3435 130.347 91.586 129.761 91.586 129.151C91.586 128.54 91.3435 127.955 90.9117 127.523C90.48 127.091 89.8944 126.848 89.2838 126.848Z" fill="white"/>
<path d="M98.1543 129.152C98.1546 129.455 98.2144 129.754 98.3304 130.033C98.4463 130.312 98.6161 130.566 98.83 130.779C99.0439 130.993 99.2978 131.162 99.5772 131.277C99.8565 131.392 100.156 131.452 100.458 131.451H120.28L120.202 126.849H100.458C99.8474 126.85 99.262 127.093 98.8301 127.524C98.3983 127.956 98.1553 128.542 98.1543 129.152Z" fill="white"/>
<path d="M89.2839 108.931H68.5817C67.9711 108.931 67.3854 109.174 66.9537 109.605C66.5219 110.037 66.2793 110.623 66.2793 111.233C66.2793 111.844 66.5219 112.43 66.9537 112.861C67.3854 113.293 67.9711 113.536 68.5817 113.536H89.2839C89.8946 113.536 90.4802 113.293 90.912 112.861C91.3438 112.43 91.5863 111.844 91.5863 111.233C91.5863 110.623 91.3438 110.037 90.912 109.605C90.4802 109.174 89.8946 108.931 89.2839 108.931Z" fill="white"/>
<path d="M124.422 111.233C124.421 110.623 124.178 110.038 123.747 109.606C123.315 109.175 122.73 108.932 122.119 108.931H100.457C99.8462 108.931 99.2606 109.173 98.8288 109.605C98.397 110.037 98.1543 110.623 98.1543 111.233C98.1543 111.844 98.3968 112.429 98.8285 112.861C99.2603 113.293 99.8459 113.536 100.457 113.536H122.119C122.73 113.535 123.315 113.292 123.747 112.861C124.178 112.429 124.421 111.844 124.422 111.233Z" fill="white"/>
<path d="M138.587 132.853V145.044C138.585 145.985 138.21 146.887 137.544 147.553C136.878 148.218 135.975 148.592 135.033 148.592H56.0042C55.0626 148.592 54.1597 148.218 53.4935 147.553C52.8273 146.887 52.4522 145.985 52.4505 145.044V73.7491H67.2927C70.3426 73.7454 73.2666 72.5322 75.4233 70.3756C77.5799 68.2189 78.7931 65.2949 78.7968 62.245V47.4028H135.033C135.976 47.4035 136.879 47.7781 137.546 48.4444C138.212 49.1107 138.586 50.0142 138.587 50.9565V93.9586L146.538 81.5967V50.9565C146.536 47.906 145.323 44.981 143.166 42.824C141.009 40.667 138.084 39.4543 135.033 39.4523H74.8216C73.7651 39.4546 72.7522 39.8738 72.0032 40.6189L65.2487 47.4028L52.4505 60.2598L46.2891 66.4506C45.7389 66.813 45.2874 67.3064 44.9752 67.8865C44.6629 68.4665 44.4996 69.1151 44.5 69.7739V145.044C44.5037 148.094 45.7169 151.018 47.8736 153.174C50.0302 155.331 52.9542 156.544 56.0042 156.548H135.033C138.084 156.545 141.008 155.332 143.165 153.175C145.322 151.018 146.535 148.094 146.538 145.044V120.81L139.788 131.304C139.433 131.854 139.032 132.373 138.587 132.853Z" fill="white"/>
<path d="M124.599 125.93L124.722 133.211L123.746 134.729C123.673 134.843 123.623 134.97 123.599 135.104C123.574 135.237 123.577 135.374 123.606 135.507C123.634 135.639 123.689 135.765 123.766 135.876C123.843 135.988 123.942 136.083 124.056 136.156C124.17 136.229 124.297 136.28 124.431 136.304C124.564 136.328 124.701 136.326 124.834 136.297C124.966 136.268 125.092 136.213 125.203 136.136C125.315 136.059 125.41 135.96 125.483 135.846L126.459 134.329L133.136 131.422C134.343 130.896 135.367 130.025 136.079 128.918L164.576 84.6149C165.463 83.2328 165.765 81.555 165.416 79.9503C165.067 78.3456 164.095 76.9452 162.713 76.0567C161.332 75.1683 159.655 74.8645 158.05 75.2122C156.445 75.5598 155.043 76.5304 154.153 77.9108L125.656 122.214C124.944 123.321 124.576 124.614 124.599 125.93Z" fill="white"/>
<path d="M168.788 86.6578C168.443 86.4356 168.023 86.3597 167.622 86.4469C167.22 86.534 166.87 86.7771 166.648 87.1226L152.68 108.838C152.458 109.184 152.382 109.603 152.469 110.005C152.556 110.406 152.799 110.756 153.145 110.979C153.49 111.201 153.91 111.277 154.311 111.19C154.713 111.102 155.063 110.859 155.285 110.514L169.253 88.7985C169.475 88.453 169.551 88.0333 169.464 87.6319C169.377 87.2304 169.134 86.8801 168.788 86.6578Z" fill="white"/>
</svg>
