<svg width="196" height="196" viewBox="0 0 196 196" fill="none" xmlns="http://www.w3.org/2000/svg">
<mask id="mask0_418:890" style="mask-type:alpha" maskUnits="userSpaceOnUse" x="2" y="2" width="192" height="192">
<path d="M98 194C151.019 194 194 151.019 194 98C194 44.9808 151.019 2 98 2C44.9808 2 2 44.9808 2 98C2 151.019 44.9808 194 98 194Z" fill="white"/>
</mask>
<g mask="url(#mask0_418:890)">
<path fill-rule="evenodd" clip-rule="evenodd" d="M141.455 48.5039C140.141 48.8367 138.068 49.7023 136.4 50.4239V68.3519L144.527 64.2767C148.492 62.5247 150.357 57.7119 148.706 53.5199C147.352 50.1151 143.903 47.8815 141.455 48.5039Z" fill="white"/>
<path fill-rule="evenodd" clip-rule="evenodd" d="M60.8685 147.085C59.4973 144.989 58.8573 142.79 59.9821 140.237C60.8189 138.336 63.1405 136.018 66.3773 134.262C63.2477 131.757 61.2461 127.773 61.2461 123.344V46.3088C57.2525 38.7216 49.6925 37.7696 46.6877 39.5968C43.3165 41.6528 50.7821 54.7328 42.7613 78.9888C39.4397 88.9872 36.3565 98.7488 35.7357 107.042C34.1565 128.053 46.5485 142.245 60.8685 147.085Z" fill="white"/>
<path fill-rule="evenodd" clip-rule="evenodd" d="M110.799 114V122.949C111.918 122.642 113.073 122.486 114.234 122.486C115.768 122.476 117.292 122.725 118.743 123.224C118.235 121.719 118.034 120.127 118.15 118.543C118.267 116.959 118.7 115.414 119.423 114H110.799Z" fill="white"/>
<path fill-rule="evenodd" clip-rule="evenodd" d="M100.673 35.832H96.4005C95.2965 35.832 94.4005 34.92 94.4005 33.7984C94.4005 32.672 95.2965 31.7616 96.4005 31.7616H100.673C100.937 31.7641 101.199 31.8188 101.443 31.9225C101.687 32.0263 101.908 32.177 102.093 32.3662C102.278 32.5554 102.425 32.7792 102.524 33.025C102.623 33.2707 102.672 33.5335 102.669 33.7984C102.669 34.9184 101.773 35.8304 100.671 35.8304L100.673 35.832ZM124.026 26.1472C114.874 25.2672 106.788 24.8192 98.6741 24.8192C90.5749 24.8192 82.4453 25.2672 73.2021 26.1616C69.2533 26.6768 66.1621 30.512 66.1621 34.8848V124.718C66.1621 129.086 69.2485 132.923 73.2853 133.451C77.5029 133.862 81.6261 134.162 85.7141 134.379V113.077H72.5349V41.7232H124.612V72.0848L131.151 69.0544V34.8848C131.151 30.5072 128.055 26.6768 124.026 26.1472Z" fill="white"/>
<path fill-rule="evenodd" clip-rule="evenodd" d="M136.46 109.2C135.644 109.2 134.841 109.36 134.119 109.683L127.426 112.675C124.247 114.077 122.759 117.923 124.082 121.28C125.159 124.005 127.582 125.296 129.879 125.296C130.698 125.296 131.498 125.134 132.22 124.816L138.916 121.824C142.092 120.422 143.58 116.57 142.26 113.219C141.182 110.488 138.766 109.2 136.46 109.2Z" fill="white"/>
<path fill-rule="evenodd" clip-rule="evenodd" d="M144.242 94.4416C143.048 91.4224 140.368 90 137.823 90C136.92 90 136.035 90.176 135.24 90.528L127.832 93.8432C124.322 95.3872 122.669 99.6512 124.133 103.365C125.328 106.379 128.005 107.802 130.549 107.802C131.455 107.802 132.343 107.624 133.139 107.269L140.544 103.96C144.059 102.413 145.703 98.152 144.243 94.44" fill="white"/>
<path fill-rule="evenodd" clip-rule="evenodd" d="M132.854 72.9328L127.83 75.2816C124.318 76.8288 122.67 81.0896 124.133 84.7968C125.33 87.8144 128.006 89.2416 130.55 89.2416C131.456 89.2416 132.341 89.0624 133.138 88.7104L138.157 86.3648C141.672 84.8096 143.32 80.5472 141.856 76.8448C140.662 73.824 137.984 72.4 135.44 72.4C134.536 72.4 133.651 72.5792 132.854 72.9328Z" fill="white"/>
<path fill-rule="evenodd" clip-rule="evenodd" d="M147.16 139.069C143.912 139.069 141.125 141.018 139.845 143.84V138.92C139.845 134.229 136.114 130.419 131.525 130.419C127.722 130.419 124.517 133.032 123.528 136.603C123.528 130.355 120.666 126.261 115.227 126.261C111.088 126.261 107.675 129.344 107.029 133.379V98.4992C107.029 93.8032 103.303 90 98.7154 90C94.1218 90 90.4018 93.8032 90.4018 98.4992V152.584C85.2738 142.626 79.413 138.488 74.2098 138.488H74.061C69.133 138.563 65.2834 141.68 64.5218 143.419C63.0738 146.688 74.8946 152.059 83.2706 173.235C92.3394 196.122 99.6946 207.635 121.882 207.635C146.194 207.635 155.256 190.226 155.256 179.002V147.35C155.256 142.77 151.635 139.069 147.16 139.069Z" fill="white"/>
</g>
<path fill-rule="evenodd" clip-rule="evenodd" d="M98 194C151.019 194 194 151.019 194 98C194 44.9808 151.019 2 98 2C44.9808 2 2 44.9808 2 98C2 151.019 44.9808 194 98 194Z" stroke="white" stroke-width="3" stroke-linecap="square" stroke-dasharray="2 6"/>
<g clip-path="url(#clip0_418:890)">
<path d="M99.498 73.3173H100.616V75.9608H100.634C100.785 75.7258 100.993 75.5404 101.259 75.4043C101.525 75.2683 101.833 75.2003 102.184 75.2003C102.46 75.2003 102.735 75.2497 103.01 75.3486C103.286 75.4476 103.532 75.5975 103.748 75.7985C103.964 75.9995 104.139 76.2499 104.274 76.5499C104.408 76.8498 104.476 77.2038 104.476 77.6119C104.476 77.9582 104.415 78.2797 104.292 78.5766C104.17 78.8734 103.998 79.1285 103.776 79.3418C103.554 79.5552 103.289 79.7221 102.982 79.8427C102.675 79.9633 102.341 80.0236 101.977 80.0236C101.608 80.0236 101.271 79.9663 100.968 79.852C100.664 79.7376 100.404 79.5737 100.188 79.3603C99.9723 79.147 99.8033 78.8888 99.6812 78.5858C99.5591 78.2828 99.498 77.9458 99.498 77.5748V73.3173ZM101.977 78.994C102.391 78.994 102.722 78.8657 102.973 78.609C103.223 78.3524 103.349 78.0201 103.349 77.6119C103.349 77.2038 103.223 76.8714 102.973 76.6148C102.722 76.3581 102.391 76.2298 101.977 76.2298C101.564 76.2298 101.234 76.3581 100.987 76.6148C100.739 76.8714 100.616 77.2038 100.616 77.6119C100.616 78.0201 100.739 78.3524 100.987 78.609C101.234 78.8657 101.564 78.994 101.977 78.994ZM108.674 79.2351H108.655C108.517 79.464 108.332 79.6433 108.101 79.7731C107.869 79.9029 107.6 79.9679 107.293 79.9679C107.024 79.9679 106.764 79.9231 106.513 79.8334C106.263 79.7438 106.041 79.6061 105.847 79.4207C105.653 79.2351 105.498 78.9955 105.382 78.7018C105.266 78.4081 105.208 78.0571 105.208 77.649V75.3208H106.326V77.649C106.326 78.0881 106.432 78.4127 106.645 78.6229C106.858 78.8332 107.143 78.9383 107.5 78.9383C107.844 78.9383 108.126 78.8301 108.345 78.6136C108.564 78.3973 108.674 78.0756 108.674 77.649V75.3208H109.791V79.7453C109.791 80.1472 109.732 80.4889 109.613 80.7703C109.494 81.0516 109.329 81.282 109.12 81.4613C108.91 81.6406 108.664 81.772 108.382 81.8555C108.101 81.939 107.8 81.9807 107.481 81.9807C107.212 81.9807 106.956 81.9498 106.715 81.888C106.474 81.8261 106.255 81.7303 106.058 81.6004C105.861 81.4706 105.692 81.3067 105.551 81.1088C105.41 80.9109 105.308 80.676 105.246 80.4039H106.363C106.545 80.8182 106.917 81.0253 107.481 81.0253C107.863 81.0253 108.157 80.9279 108.364 80.7331C108.57 80.5384 108.674 80.2183 108.674 79.7731V79.2351ZM114.656 78.1406C114.656 78.456 114.611 78.7327 114.52 78.9708C114.429 79.2088 114.299 79.4052 114.13 79.5598C113.961 79.7144 113.761 79.8303 113.529 79.9076C113.297 79.9849 113.041 80.0236 112.759 80.0236C112.477 80.0236 112.22 79.9849 111.989 79.9076C111.757 79.8303 111.557 79.7144 111.388 79.5598C111.219 79.4052 111.089 79.2088 110.998 78.9708C110.907 78.7327 110.862 78.456 110.862 78.1406V73.7903H111.979V75.3208H114.374V76.3225H111.979V78.1406C111.979 78.4498 112.051 78.6693 112.195 78.7992C112.339 78.929 112.527 78.994 112.759 78.994C112.991 78.994 113.178 78.9306 113.322 78.8038C113.466 78.6771 113.538 78.456 113.538 78.1406V78.0201H114.656V78.1406ZM116.356 78.0015V78.0201C116.431 78.3292 116.583 78.5735 116.811 78.7528C117.04 78.9321 117.329 79.0218 117.68 79.0218C118.181 79.0218 118.547 78.8765 118.779 78.5858H119.972C119.796 79.0248 119.508 79.3743 119.108 79.634C118.707 79.8937 118.231 80.0236 117.68 80.0236C117.311 80.0236 116.974 79.9633 116.67 79.8427C116.367 79.7221 116.104 79.5552 115.882 79.3418C115.659 79.1285 115.487 78.8734 115.365 78.5766C115.243 78.2797 115.182 77.9582 115.182 77.6119C115.182 77.2656 115.243 76.944 115.365 76.6472C115.487 76.3504 115.659 76.0953 115.882 75.882C116.104 75.6686 116.367 75.5017 116.67 75.3811C116.974 75.2605 117.311 75.2003 117.68 75.2003C118.043 75.2003 118.378 75.2605 118.685 75.3811C118.992 75.5017 119.253 75.6686 119.469 75.882C119.685 76.0953 119.854 76.3504 119.976 76.6472C120.098 76.944 120.159 77.2656 120.159 77.6119V78.0015H116.356ZM117.68 76.202C117.348 76.202 117.071 76.2824 116.849 76.4432C116.627 76.6039 116.472 76.8235 116.384 77.1017V77.1203H118.976V77.1017C118.888 76.8235 118.732 76.6039 118.507 76.4432C118.281 76.2824 118.006 76.202 117.68 76.202Z" fill="white"/>
<path fill-rule="evenodd" clip-rule="evenodd" d="M88.3345 58.0819C94.4683 58.0819 99.4425 62.9947 99.4425 69.0527C99.4425 75.1107 94.4683 80.0236 88.3345 80.0236C82.2008 80.0236 77.2266 75.1107 77.2266 69.0527C77.2266 62.9947 82.2008 58.0819 88.3345 58.0819ZM88.3345 59.2808C93.798 59.2808 98.2286 63.6568 98.2286 69.0527C98.2286 74.4487 93.798 78.8247 88.3345 78.8247C82.8711 78.8247 78.4404 74.4487 78.4404 69.0527C78.4404 63.6568 82.8711 59.2808 88.3345 59.2808Z" fill="white"/>
</g>
<defs>
<clipPath id="clip0_418:890">
<rect width="43.2" height="24" fill="white" transform="translate(77.1992 58)"/>
</clipPath>
</defs>
</svg>
