<svg width="196" height="196" viewBox="0 0 196 196" fill="none" xmlns="http://www.w3.org/2000/svg">
<path fill-rule="evenodd" clip-rule="evenodd" d="M98 194C151.019 194 194 151.019 194 98C194 44.9808 151.019 2 98 2C44.9808 2 2 44.9808 2 98C2 151.019 44.9808 194 98 194Z" stroke="white" stroke-width="3" stroke-linecap="square" stroke-dasharray="2 6"/>
<path d="M95.0646 114.678H98.1195L98.7118 118.348H108.767L107.601 111.118C107.579 110.987 107.549 110.861 107.52 110.734V82.5869L119.033 70.3965C119.698 69.6924 120.059 68.7084 120.025 67.6921L119.352 47.4361C119.287 45.4675 117.784 43.9469 116.004 44.0018C114.219 44.0741 112.826 45.7287 112.892 47.6974L113.512 66.3558L105.206 75.1502C103.416 78.177 100.322 80.1832 96.8099 80.1832C94.2123 80.1832 91.8426 79.0864 90.0604 77.291H89.9997L79.6719 66.3558L80.2922 47.6974C80.3577 45.7288 78.9648 44.0741 77.1805 44.0023C75.4025 43.9326 73.8975 45.4675 73.832 47.4361L73.1584 67.6921C73.1245 68.7084 73.4856 69.6925 74.1504 70.3966L85.664 82.5874V110.734C85.6349 110.861 85.6048 110.987 85.5837 111.118L84.4167 118.348H94.4724L95.0646 114.678Z" fill="white"/>
<path d="M79.429 145.569C78.95 148.26 80.743 150.83 83.4341 151.31C83.7277 151.362 84.0197 151.387 84.3081 151.387C86.6615 151.387 88.7481 149.702 89.1754 147.305L94.3988 117.979H84.343L79.429 145.569Z" fill="white"/>
<path d="M103.741 147.305C104.168 149.703 106.255 151.387 108.608 151.387C108.896 151.387 109.188 151.362 109.482 151.31C112.173 150.83 113.966 148.26 113.487 145.569L108.573 117.979H98.5176L103.741 147.305Z" fill="white"/>
<path d="M96.6774 76.0005C101.699 76.0005 105.769 71.9303 105.769 66.909C105.769 61.8881 101.699 57.8176 96.6774 57.8176C91.6565 57.8176 87.5859 61.8881 87.5859 66.909C87.5859 71.9303 91.6565 76.0005 96.6774 76.0005Z" fill="white"/>
<path d="M21.1834 110.213C21.3497 110.435 21.5313 110.649 21.7388 110.847L35.2017 123.701L36.1905 146.319C36.3091 149.031 38.5447 151.15 41.2329 151.149C41.3072 151.149 41.3822 151.148 41.4572 151.144C44.244 151.023 46.4044 148.664 46.2827 145.878L45.205 121.23C45.148 119.927 44.5897 118.698 43.6468 117.797L32.6899 107.336C34.4444 102.25 37.7458 97.2845 40.5172 93.2387L43.6277 103.654C43.9368 104.689 44.7422 105.501 45.7745 105.819L58.9065 109.859C59.2232 109.957 59.5432 110.003 59.8581 110.003C61.24 110.003 62.519 109.11 62.9468 107.72C63.4718 106.014 62.5141 104.205 60.8077 103.68L49.3278 100.148L46.3679 90.237L37.6708 90.3242H37.6329C35.3616 90.3242 33.4952 88.476 33.4719 86.2043C33.449 83.9097 35.2973 82.024 37.5918 82.0007L43.8616 81.9379C43.6874 81.5391 43.4397 81.1902 43.1387 80.9022C42.9501 80.6909 42.7479 80.4903 42.5153 80.3152C39.6753 78.1766 34.3403 77.9495 30.1576 82.6023C24.444 89.0337 21.8286 93.6876 19.2864 102.36C18.4685 106.214 19.4958 108.609 21.1834 110.213Z" fill="white"/>
<path d="M41.7435 68.4396C39.989 73.1443 42.3808 78.3803 47.0851 80.1347C51.2963 81.7051 55.9304 79.9524 58.1153 76.1942C57.5101 76.1167 56.8516 76.0689 56.1678 76.1202C53.3487 76.3317 51.1866 78.1354 51.0635 76.5037C50.9414 74.8717 53.1272 73.3774 55.9456 73.1654C57.1351 73.0762 58.2445 73.2318 59.1419 73.5615C60.1012 69.2077 57.7363 64.7007 53.4386 63.098C48.7343 61.3436 43.4981 63.7349 41.7435 68.4396Z" fill="white"/>
<path d="M37.6007 82.9302C35.8155 82.9483 34.3828 84.4099 34.4006 86.195C34.4187 87.9691 35.8621 89.3952 37.6323 89.3952C37.6433 89.3952 37.6544 89.3952 37.6654 89.3952L67.8691 89.0921C68.9712 89.0809 69.3743 86.6197 69.1054 84.7376L74.1666 84.6868C74.7528 84.6809 75.2231 84.2009 75.2172 83.6148C75.2113 83.0322 74.7374 82.564 74.1562 82.564C74.1526 82.564 74.1488 82.564 74.1453 82.564L67.8387 82.6273C67.8383 82.6273 67.8379 82.6271 67.8375 82.6271C67.8265 82.6271 67.8154 82.6271 67.8044 82.6271L37.6007 82.9302Z" fill="white"/>
<path d="M175.37 84.6974C174.252 83.9919 164.421 77.9849 156.597 79.4327C156.423 79.4482 156.248 79.4751 156.074 79.5212L153.443 80.2162C152.063 83.4076 149.061 85.7968 145.365 86.213C144.989 86.2556 144.608 86.2769 144.232 86.2769C142.159 86.2769 140.227 85.6361 138.62 84.544L128.565 88.9977L123.413 80.7696C123.406 80.758 123.402 80.7457 123.395 80.7342L123.065 80.2136L121.702 78.0383C121.676 77.9966 121.645 77.96 121.612 77.9256L118.685 73.3137C118.386 72.842 117.761 72.7042 117.291 73.0019C116.82 73.301 116.68 73.9252 116.979 74.3961L119.304 78.0594C117.551 78.8279 115.631 80.5236 116.223 81.4697L124.573 94.8038C125.181 95.7737 126.23 96.321 127.314 96.321C127.754 96.321 128.198 96.2314 128.622 96.0436L139.759 91.1102L145.064 111.189L136.17 119.99C135.45 120.703 134.961 121.616 134.766 122.611L130.119 146.371C129.584 149.108 131.369 151.762 134.107 152.297C134.434 152.361 134.76 152.392 135.082 152.392C137.448 152.392 139.562 150.72 140.033 148.31L144.381 126.076L154.926 115.642C155.117 115.453 155.283 115.25 155.438 115.04L152.991 124.713C152.643 126.086 152.888 127.541 153.666 128.725L167.202 149.332C168.172 150.809 169.784 151.611 171.428 151.61C172.379 151.61 173.342 151.342 174.196 150.78C176.528 149.249 177.177 146.117 175.645 143.786L163.329 125.036L167.026 110.422C167.289 109.384 167.207 108.34 166.856 107.409C167.155 107.625 167.494 107.796 167.87 107.902C168.164 107.985 168.459 108.025 168.75 108.025C170.16 108.025 171.457 107.094 171.859 105.669L176.757 88.3087C177.145 86.9308 176.581 85.4613 175.37 84.6974ZM165.695 103.709L160.966 85.8137C164.042 86.2812 167.501 87.7795 169.846 88.9953L165.695 103.709Z" fill="white"/>
<path d="M145.26 85.2894C150.249 84.7275 153.839 80.2273 153.277 75.2377C152.715 70.248 148.214 66.6589 143.225 67.2208C138.235 67.7827 134.646 72.2828 135.208 77.2725C135.77 82.2622 140.27 85.8514 145.26 85.2894ZM141.137 76.5286C142.418 75.9749 144.03 76.8544 144.739 78.4929C145.447 80.1315 144.984 81.9086 143.704 82.4623C142.424 83.0161 140.812 82.1366 140.103 80.4981C139.394 78.8595 139.857 77.0824 141.137 76.5286Z" fill="white"/>
</svg>
