<svg width="196" height="229" viewBox="0 0 196 229" fill="none" xmlns="http://www.w3.org/2000/svg">
<mask id="mask0_418:769" style="mask-type:alpha" maskUnits="userSpaceOnUse" x="2" y="2" width="192" height="192">
<path d="M98 194C151.019 194 194 151.019 194 98C194 44.9808 151.019 2 98 2C44.9808 2 2 44.9808 2 98C2 151.019 44.9808 194 98 194Z" fill="white"/>
</mask>
<g mask="url(#mask0_418:769)">
<path d="M126.847 27.093L64.2476 72.5745C63.5327 73.0939 63.3742 74.0945 63.8936 74.8094L86.4645 105.876C86.9839 106.59 87.9845 106.749 88.6994 106.23L151.299 60.7481C152.014 60.2287 152.173 59.2282 151.653 58.5133L129.082 27.447C128.563 26.7321 127.562 26.5736 126.847 27.093Z" stroke="#3CB95D" stroke-width="3"/>
<path d="M129.674 39.5754L57.7998 79.4159C57.0269 79.8443 56.7477 80.8181 57.1761 81.591L78.1199 119.375C78.5483 120.147 79.5221 120.427 80.2949 119.998L152.169 80.1577C152.942 79.7293 153.221 78.7555 152.793 77.9826L131.849 40.1991C131.421 39.4262 130.447 39.147 129.674 39.5754Z" fill="#3CB95D"/>
<path fill-rule="evenodd" clip-rule="evenodd" d="M115.911 89.1104C121.106 83.824 121.107 75.2512 115.911 69.9648C114.687 68.7098 113.224 67.7124 111.609 67.0314C109.993 66.3503 108.258 65.9995 106.505 65.9995C104.752 65.9995 103.017 66.3503 101.401 67.0314C99.786 67.7124 98.3233 68.7098 97.0994 69.9648C91.9026 75.256 91.9026 83.8288 97.0946 89.1104C98.3184 90.3664 99.7814 91.3646 101.397 92.0461C103.013 92.7277 104.749 93.0788 106.503 93.0788C108.256 93.0788 109.992 92.7277 111.608 92.0461C113.224 91.3646 114.687 90.3664 115.911 89.1104Z" fill="#3CB95D"/>
<path d="M116.657 94.3876C126.4 90.0184 130.847 78.6691 126.59 69.0382C122.333 59.4074 110.984 55.1419 101.241 59.5111C91.4978 63.8803 87.0507 75.2296 91.3079 84.8604C95.5651 94.4913 106.914 98.7568 116.657 94.3876Z" fill="#3CB95D"/>
<path fill-rule="evenodd" clip-rule="evenodd" d="M112.57 79.4824C112.328 78.936 111.971 78.5551 111.497 78.3396C111.024 78.1255 110.357 78.0403 109.493 78.0852C108.804 78.132 108.112 78.1235 107.426 78.0599C105.709 77.8671 104.502 76.985 103.806 75.4115C103.335 74.3464 103.242 73.337 103.528 72.3864C103.814 71.4343 104.435 70.6674 105.388 70.0864L104.46 67.9882L105.862 67.3603L106.798 69.4774C107.887 69.1815 108.882 69.3049 109.784 69.8417C110.687 70.3799 111.418 71.2778 111.975 72.5353L109.853 73.4858C109.496 72.6771 109.049 72.1144 108.512 71.7962C108.269 71.6415 107.99 71.5515 107.701 71.5348C107.412 71.518 107.122 71.5751 106.859 71.7005C106.299 71.9517 105.935 72.3156 105.766 72.7907C105.599 73.2672 105.652 73.8144 105.928 74.438C106.175 74.9961 106.529 75.3733 106.991 75.5712C107.453 75.7677 108.122 75.8501 109.005 75.8159C109.887 75.7839 110.598 75.8005 111.138 75.8659C111.678 75.9313 112.166 76.0636 112.604 76.2634C113.043 76.4633 113.435 76.7431 113.785 77.103C114.133 77.4621 114.434 77.9298 114.69 78.5082C115.17 79.5937 115.257 80.6092 114.95 81.5534C114.643 82.499 113.978 83.2735 112.951 83.8804L113.782 85.7586L112.388 86.3832L111.561 84.5138C110.343 84.8922 109.251 84.8333 108.288 84.3429C107.326 83.8504 106.562 82.9685 106 81.698L108.129 80.7441C108.487 81.5528 108.95 82.096 109.516 82.3731C110.084 82.6494 110.706 82.6362 111.384 82.3322C112.05 82.0341 112.479 81.6304 112.669 81.121C112.861 80.6124 112.828 80.0652 112.569 79.481L112.57 79.4824Z" fill="white"/>
<path fill-rule="evenodd" clip-rule="evenodd" d="M38.4294 92.8704L81.1942 96.3584C84.2998 96.64 87.2662 95.4944 89.5942 93.1264C91.8934 90.7936 93.3862 87.4144 93.7766 83.6128C94.2246 79.3952 93.2646 75.5616 91.0742 72.8448C89.3222 70.648 86.9414 69.352 84.2054 69.1008L42.4006 65.04L61.9206 46.0752C61.9206 46.0752 63.8774 46.656 67.159 47.4976L94.6726 26.68C77.7974 22.1952 59.303 18 59.303 18C17.0118 68.4624 -2.11136 93.616 1.93664 93.4624L38.4294 92.8704Z" fill="white"/>
<mask id="mask1_418:769" style="mask-type:alpha" maskUnits="userSpaceOnUse" x="83" y="98" width="114" height="65">
<path d="M83.7969 98.1423H196.376V162.109H83.7969V98.1423Z" fill="white"/>
</mask>
<g mask="url(#mask1_418:769)">
<path fill-rule="evenodd" clip-rule="evenodd" d="M160.626 98.8002L114.739 116C110.96 117.391 109.039 121.951 110.642 126.765C112.205 131.458 116.203 133.674 119.907 132.514L141.17 125.266C138.923 127.759 136.347 129.842 134.2 131.458L112.909 139.941L95.821 128.269C93.069 126.555 89.389 127.338 88.445 132.005C82.269 133.509 83.3314 140.085 85.469 141.631C92.6226 146.8 113.568 161.232 113.568 161.232C115.016 162.235 116.282 162.256 117.488 161.888L146.843 152.837C149.143 151.994 151.372 150.971 153.511 149.776C156.73 147.744 167.723 139.829 176.682 136.619L192.191 132.799L196.375 104.013L171.245 99.2098C166.73 97.8114 163.467 97.9074 160.626 98.8018" fill="white"/>
</g>
<mask id="mask2_418:769" style="mask-type:alpha" maskUnits="userSpaceOnUse" x="-8" y="38" width="97" height="68">
<path d="M-7.59961 38.8H88.4004V106H-7.59961V38.8Z" fill="white"/>
</mask>
<g mask="url(#mask2_418:769)">
<path fill-rule="evenodd" clip-rule="evenodd" d="M52.7492 95.568L31.2292 95.968C30.0932 101.523 37.3492 104.474 37.3492 104.474L46.3316 98.9216C46.53 103.424 52.5764 106 52.5764 106L63.658 99.1712L63.6836 99.2208L67.978 96.5696L67.8788 96.3936L52.7492 95.5696V95.568ZM12.9892 84.416L-7.59961 64.1744L15.9876 40.344L25.1508 44.6288L64.5348 38.8C64.5348 38.8 77.0148 41.6192 88.4004 44.6336L69.8356 58.624C67.6212 58.056 66.3044 57.6672 66.3044 57.6672L53.13 70.4128L81.338 73.1408C83.186 73.3104 84.7892 74.1808 85.9716 75.656C87.45 77.4832 88.0996 80.056 87.7988 82.8912C87.5316 85.4464 86.5252 87.7184 84.9716 89.2848C83.4036 90.8768 81.4004 91.648 79.306 91.4576L50.4484 89.1136L25.8244 89.5136C21.7284 89.6688 17.8484 88.8096 12.9892 84.416Z" fill="white"/>
</g>
</g>
<path fill-rule="evenodd" clip-rule="evenodd" d="M98 194C151.019 194 194 151.019 194 98C194 44.9808 151.019 2 98 2C44.9808 2 2 44.9808 2 98C2 151.019 44.9808 194 98 194Z" stroke="white" stroke-width="3" stroke-linecap="square" stroke-dasharray="2 6"/>
<g filter="url(#filter0_dd_418:769)">
<path d="M97.9992 222.182C113.905 222.182 126.799 209.426 126.799 193.691C126.799 177.956 113.905 165.2 97.9992 165.2C82.0934 165.2 69.1992 177.956 69.1992 193.691C69.1992 209.426 82.0934 222.182 97.9992 222.182Z" fill="black"/>
</g>
<path d="M97.9992 222.182C113.905 222.182 126.799 209.426 126.799 193.691C126.799 177.956 113.905 165.2 97.9992 165.2C82.0934 165.2 69.1992 177.956 69.1992 193.691C69.1992 209.426 82.0934 222.182 97.9992 222.182Z" fill="white"/>
<path d="M106 190.872H91.6004C89.8331 190.872 88.4004 192.305 88.4004 194.072V200.382C88.4004 202.15 89.8331 203.582 91.6004 203.582H106C107.768 203.582 109.2 202.15 109.2 200.382V194.072C109.2 192.305 107.768 190.872 106 190.872Z" stroke="#000032" stroke-width="2" stroke-linecap="round" stroke-linejoin="round"/>
<path d="M93.4988 189.751L93.096 185.146C92.9693 183.718 93.3776 182.295 94.2417 181.152C95.1058 180.008 96.3639 179.227 97.7717 178.959C99.1795 178.692 100.637 178.957 101.86 179.703C103.083 180.449 103.986 181.624 104.392 182.998" stroke="#000032" stroke-width="2" stroke-linecap="round" stroke-linejoin="round"/>
<defs>
<filter id="filter0_dd_418:769" x="65.1992" y="161.2" width="65.5996" height="66.9824" filterUnits="userSpaceOnUse" color-interpolation-filters="sRGB">
<feFlood flood-opacity="0" result="BackgroundImageFix"/>
<feColorMatrix in="SourceAlpha" type="matrix" values="0 0 0 0 0 0 0 0 0 0 0 0 0 0 0 0 0 0 127 0" result="hardAlpha"/>
<feOffset dy="2"/>
<feGaussianBlur stdDeviation="2"/>
<feColorMatrix type="matrix" values="0 0 0 0 0 0 0 0 0 0 0 0 0 0 0 0 0 0 0.12 0"/>
<feBlend mode="normal" in2="BackgroundImageFix" result="effect1_dropShadow_418:769"/>
<feColorMatrix in="SourceAlpha" type="matrix" values="0 0 0 0 0 0 0 0 0 0 0 0 0 0 0 0 0 0 127 0" result="hardAlpha"/>
<feOffset/>
<feGaussianBlur stdDeviation="2"/>
<feColorMatrix type="matrix" values="0 0 0 0 0 0 0 0 0 0 0 0 0 0 0 0 0 0 0.08 0"/>
<feBlend mode="normal" in2="effect1_dropShadow_418:769" result="effect2_dropShadow_418:769"/>
<feBlend mode="normal" in="SourceGraphic" in2="effect2_dropShadow_418:769" result="shape"/>
</filter>
</defs>
</svg>
